<svg width="22" height="35" viewBox="0 0 22 35" fill="none" xmlns="http://www.w3.org/2000/svg">
<path d="M3.26436 2.94414C2.45153 0.854182 2.32552 -0.243404 3.4762 0.045647C4.54563 0.314288 7.5713 1.92991 8.8578 2.74274C10.1443 3.55556 12.2667 5.66218 13.0244 6.45779C14.55 8.05969 15.2137 9.28421 16.2791 10.928C17.1555 12.2802 17.5447 13.1125 18.359 14.5029C19.5238 16.4917 20.5717 18.9699 20.8906 21.1225C21.191 23.1499 21.0022 24.2741 20.3522 26.6357C19.7757 28.7304 18.5303 30.2658 16.8975 31.6989C14.8487 33.4971 12.2933 34.5668 9.29921 34.0713C5.95026 33.5172 4.12611 32.3593 2.06514 29.6621C0.772002 27.9698 7.02533e-06 25.6867 0 23.5568C-6.71554e-06 21.5209 0.792051 18.7783 1.68364 17.0738C2.78047 14.977 3.06163 14.723 3.94181 12.5575C4.66587 10.7761 5.03864 10.1763 5.03864 8.36375C5.03864 6.4927 4.00021 4.83616 3.26436 2.94414Z" fill="#5D8BB4"/>
<path d="M20.3526 26.6355C21.0026 24.2739 21.1914 23.1497 20.891 21.1223C20.5721 18.9696 19.5241 16.4915 18.3594 14.5026C17.545 13.1122 17.1558 12.2799 16.2794 10.9278C15.214 9.28397 14.5504 8.05945 13.0247 6.45755C12.267 5.66194 10.1447 3.55532 8.85816 2.7425C7.57167 1.92967 4.54601 0.314051 3.47658 0.0454102C11.2799 4.62286 15.7868 18.5967 16.2794 22.5001C16.6113 25.1294 14.5657 31.6036 9.29957 34.0711C12.2937 34.5666 14.8491 33.4968 16.8978 31.6987C18.5306 30.2656 19.7761 28.7301 20.3526 26.6355Z" fill="#3A6892"/>
</svg>
