<svg width="30" height="29" viewBox="0 0 30 29" fill="none" xmlns="http://www.w3.org/2000/svg">
<path d="M15.9901 0.0469036C21.1003 -0.642534 14.2792 6.4667 16.9436 8.35554C19.7451 10.3416 23.5932 0.148807 25.7695 5.21379C27.9459 10.2788 18.7452 8.88661 19.4125 12.2145C20.1115 15.7002 30.0728 10.4235 29.1231 14.697C27.9954 19.772 21.681 14.6519 19.7945 17.5495C17.6383 20.8613 25.0585 23.3621 22.3918 27.2202C17.803 33.8595 19.5843 19.436 14.9453 19.8286C10.5983 20.1964 13.9186 30.2877 8.29441 27.2202C4.00395 24.8802 12.8629 22.4747 9.42707 17.5495C7.3045 14.5069 1.00654 21.777 0.0641618 16.8764C-0.925061 11.7323 9.84116 15.7308 10.535 12.2145C11.2155 8.7659 1.87158 8.32327 4.00596 5.53041C7.72555 0.663282 9.76538 9.47243 12.8301 7.82548C15.9015 6.17492 10.9317 0.729357 15.9901 0.0469036Z" fill="#72B065"/>
<path d="M14.9453 19.8288C10.5983 20.1966 13.9187 30.288 8.29443 27.2205C12.1993 27.4405 10.9975 19.5853 14.9453 19.8288Z" fill="#508D43"/>
<path d="M25.0815 16.9861C26.9096 17.2163 28.5918 17.088 29.1231 14.6973C29.4798 13.092 28.2969 12.8343 26.6437 12.9535C28.2131 14.6973 27.8754 16.4435 25.0815 16.9861Z" fill="#508D43"/>
<path d="M19.7948 17.5493C17.6387 20.8611 25.0588 23.3619 22.3922 27.22C22.8741 24.7595 17.4867 20.0405 19.7948 17.5493Z" fill="#508D43"/>
<path d="M19.4126 12.2142C17.9555 9.78633 25.3462 8.52386 25.7696 5.21338C27.946 10.2784 18.7453 8.88632 19.4126 12.2142Z" fill="#508D43"/>
<path d="M15.9904 0.0469036C21.1006 -0.642534 14.2795 6.4667 16.9439 8.35555C13.9951 7.76134 18.3253 0.641446 15.9904 0.0469036Z" fill="#508D43"/>
</svg>
