<svg width="65" height="40" viewBox="0 0 65 40" fill="none" xmlns="http://www.w3.org/2000/svg">
<rect x="2.5" y="2.5" width="59.2461" height="34.4831" rx="4.5" stroke="white" stroke-width="5"/>
<rect x="18.9843" y="26.4123" width="26.3252" height="3.9903" rx="1" fill="white" stroke="white"/>
<rect x="10.3903" y="26.4123" width="3.9912" height="3.9903" rx="1" fill="white" stroke="white"/>
<rect x="49.9124" y="26.4123" width="3.9912" height="3.9903" rx="1" fill="white" stroke="white"/>
<rect x="38.7988" y="17.7589" width="3.9912" height="3.9903" rx="1" fill="white" stroke="white"/>
<rect x="36.3163" y="9.10504" width="3.9912" height="3.9903" rx="1" fill="white" stroke="white"/>
<rect x="30.1328" y="17.7589" width="3.9912" height="3.9903" rx="1" fill="white" stroke="white"/>
<rect x="27.6503" y="9.10504" width="3.9912" height="3.9903" rx="1" fill="white" stroke="white"/>
<rect x="21.4668" y="17.7589" width="3.9912" height="3.9903" rx="1" fill="white" stroke="white"/>
<rect x="18.9843" y="9.10504" width="3.9912" height="3.9903" rx="1" fill="white" stroke="white"/>
<rect x="10.3903" y="9.10504" width="3.9912" height="3.9903" rx="1" fill="white" stroke="white"/>
<rect x="10.3903" y="17.7589" width="6.44894" height="3.9903" rx="1" fill="white" stroke="white"/>
<rect x="47.4546" y="17.7589" width="6.44894" height="3.9903" rx="1" fill="white" stroke="white"/>
<rect x="45.0219" y="9.10504" width="8.88165" height="3.9903" rx="1" fill="white" stroke="white"/>
</svg>
