<svg width="44" height="56" viewBox="0 0 44 56" fill="none" xmlns="http://www.w3.org/2000/svg">
<path d="M21.6445 0C35.478 0.000108206 43.289 8.53012 43.2891 27.8965C43.2891 47.8921 35.4781 55.9091 21.6445 55.9092C7.81076 55.9092 0 47.8922 0 27.8965C0.000103997 8.53 7.81086 0 21.6445 0ZM23.9111 10.4424C26.1857 10.7281 27.9453 12.6685 27.9453 15.0205V23.0381C27.9453 25.5866 25.8795 27.653 23.3311 27.6533H19.958C17.4094 27.6532 15.3438 25.5867 15.3438 23.0381V15.0205C15.3438 12.6683 17.1031 10.7278 19.3779 10.4424V4.71094C14.7027 5.11678 11.4625 6.8192 9.22363 9.58789C6.48722 12.9719 4.61529 18.7125 4.61523 27.8965C4.61523 37.4306 6.50055 43.1698 9.20703 46.4805C11.7536 49.5954 15.6437 51.2939 21.6445 51.2939C27.645 51.2939 31.5345 49.5952 34.0811 46.4805C36.7876 43.1698 38.6738 37.4306 38.6738 27.8965C38.6738 18.7126 36.8019 12.9719 34.0654 9.58789C31.8266 6.81919 28.5863 5.11587 23.9111 4.70996V10.4424ZM19.959 23.0381H23.3301V15.0205H19.959V23.0381Z" fill="black"/>
</svg>
