<svg width="30" height="30" viewBox="0 0 30 30" fill="none" xmlns="http://www.w3.org/2000/svg">
<path d="M5.81081 20.2251C6.45357 19.5653 6.48335 18.9283 6.65797 18.0239C7.10764 15.6949 5.50118 14.5001 4.98572 12.1848C4.34634 9.31288 5.13766 7.10087 4.33681 4.26972C3.80941 2.40527 0.205293 0.0890516 2.1429 0.08907C3.53545 0.0890831 4.7915 1.19958 5.59885 2.39343C8.30517 6.39533 6.51076 8.48265 7.24617 11.895C7.51243 13.1304 9.13973 15.689 9.62891 15.432C10.482 14.9837 11.5035 13.1178 11.0703 11.542C10.484 9.40881 9.53947 9.01144 9.27591 6.93932C9.00058 4.77464 8.46135 -1.50922 9.62891 0.334255C10.7467 2.0992 9.9246 3.99727 10.835 6.39533C11.6107 8.43873 13.139 9.72421 13.3942 11.895C13.632 13.917 12.3077 15.432 12.5892 17.3693C12.7147 18.2325 13.2746 19.3177 14.1388 19.1991C15.07 19.0714 13.9575 17.6738 14.1388 16.7515C14.6156 14.3269 16.6795 12.9346 16.1239 10.5268C15.7485 8.90022 14.6907 8.10177 14.8414 6.39533C15.0291 4.26972 15.197 2.07526 16.5618 0.642265C18.4694 -1.36055 16.0746 3.71889 16.5618 6.21013C16.9544 8.21742 18.9289 9.49675 18.9078 11.542C18.889 13.3718 17.4137 15.2334 17.4412 17.0632C17.4546 17.9562 18.0977 19.1083 18.6291 19.6506C19.3373 20.3733 20.8418 17.3907 21.1647 15.6183C21.638 13.021 19.9978 10.9828 21.05 8.5422C21.9071 6.55404 23.2359 4.23793 24.8585 3.67455C26.742 3.02055 23.2363 7.16324 22.8979 9.12813C22.4185 11.9116 23.9125 13.0593 23.4387 15.8437C23.179 17.3704 21.681 19.7649 22.2444 20.2832C23.1985 21.1609 24.1722 19.8073 24.7803 18.6623C25.5936 17.1311 24.9792 14.716 25.7291 13.1319C26.7895 10.8921 26.7476 10.4573 29.204 8.33125C30.9011 6.86233 27.8812 11.5333 27.3557 13.4301C26.6907 15.8305 27.5497 17.2797 26.7864 19.6506C25.8797 22.4669 25.6258 23.0033 23.9057 25.4105C22.6777 27.1289 21.7699 27.6544 19.7456 28.2569C18.2385 28.7054 17.3679 29.0126 15.9836 29.2096C14.4564 29.427 13.9178 29.5264 12.3683 29.2096C10.6508 28.8584 10.7665 28.8595 9.15109 28.1788C8.19105 27.7743 8.02953 27.782 6.16352 26.6447C4.53361 25.6512 4.11155 25.3744 2.93998 23.8354C1.37618 21.7812 0.724316 20.5572 0.226787 18.0239C-0.137613 16.1684 -0.0065558 15.0584 0.226775 13.1819C0.511867 10.8892 1.28731 9.73311 1.83362 7.48826C2.18288 6.05311 0.0359696 3.82349 1.51301 3.82349C2.93998 3.82349 3.44812 7.03788 3.53545 9.16104C3.63336 11.5416 2.41701 12.9084 2.93998 15.2329C3.43362 17.427 4.24142 21.8359 5.81081 20.2251Z" fill="#DF753B"/>
<path d="M25.2552 20.4138C23.7021 22.9194 16.9501 27.5102 12.3687 29.2089C13.9182 29.5258 14.4569 29.4263 15.9841 29.2089C17.3684 29.0119 18.2389 28.7047 19.746 28.2562C21.7704 27.6538 22.6782 27.1283 23.9061 25.4098C25.6263 23.0026 25.8802 22.4662 26.7869 19.6499C27.5502 17.279 26.6911 15.8298 27.3562 13.4295C27.8817 11.5326 30.9016 6.86165 29.2044 8.33057C29.3792 8.70702 27.7394 10.5195 26.7869 12.9215C26.1408 14.5507 26.1686 18.9401 25.2552 20.4138Z" fill="#BF6534"/>
<path d="M22.5645 15.9619C21.8259 17.7646 21.053 20.1236 22.2446 20.2824C21.6813 19.7641 23.1793 17.3696 23.439 15.8429C23.9128 13.0585 22.4187 11.9108 22.8982 9.12734C23.2366 7.16246 26.7423 3.01976 24.8588 3.67376C24.6572 4.71809 23.1018 6.66161 22.2447 8.64978C21.1925 11.0904 23.3032 14.1588 22.5645 15.9619Z" fill="#BF6534"/>
<path d="M16.6484 17.3604C16.845 18.8684 18.0196 19.6505 18.6285 19.6505C18.0971 19.1082 17.454 17.956 17.4406 17.063C17.4131 15.2333 18.8884 13.3717 18.9072 11.5418C18.9283 9.49662 16.9538 8.2173 16.5612 6.21C16.0739 3.71876 18.4688 -1.36068 16.5612 0.642138C16.6921 1.27516 15.2496 4.16002 15.8834 6.4548C16.3394 8.10606 17.8941 10.0088 17.8941 11.6781C17.8941 12.9457 16.2639 14.4131 16.6484 17.3604Z" fill="#BF6534"/>
<path d="M12.5892 12.1929C11.9474 16.0912 11.2209 19.7767 14.1388 19.1989C13.2746 19.3174 12.7147 18.2322 12.5892 17.369C12.3077 15.4317 13.6319 13.9168 13.3942 11.8947C13.139 9.72394 11.6107 8.43846 10.835 6.39506C9.92459 3.997 10.7467 2.09893 9.62891 0.333984C10.2382 2.17402 9.46668 3.93578 10.1754 6.50506C10.7309 8.51866 12.8438 10.6469 12.5892 12.1929Z" fill="#BF6534"/>
<path d="M7.24634 11.8948C6.51093 8.48245 8.30533 6.39512 5.59901 2.39323C4.79166 1.19938 3.53561 0.0888804 2.14307 0.0888672C3.66847 0.997426 4.15282 1.46672 5.32161 3.05263C6.83804 5.11025 6.24182 8.03673 6.40486 11.6005C6.51327 13.97 9.28225 16.6494 9.62908 15.4318C9.1399 15.6888 7.51259 13.1302 7.24634 11.8948Z" fill="#BF6534"/>
<path d="M3.53513 9.16079C3.4478 7.03763 2.93967 3.82324 1.5127 3.82324C2.36954 5.14926 3.33896 7.584 3.01335 9.16079C2.41899 12.0391 1.97038 13.4529 2.35101 15.3561C2.99331 18.5676 4.44453 21.9357 5.8105 20.2248C4.24111 21.8357 3.43331 17.4267 2.93967 15.2326C2.4167 12.9082 3.63305 11.5414 3.53513 9.16079Z" fill="#BF6534"/>
</svg>
