<svg width="378" height="176" viewBox="0 0 378 176" fill="none" xmlns="http://www.w3.org/2000/svg">
<path d="M53.3375 110.281L53.3375 116.829L47.6671 113.555L53.3375 110.281Z" fill="#B486D2"/>
<path d="M59.0077 120.102L59.0077 126.649L53.3373 123.376L59.0077 120.102Z" fill="#B486D2"/>
<path d="M59.0077 139.745L59.0077 146.292L53.3373 143.019L59.0077 139.745Z" fill="#FF5D4F"/>
<path d="M70.3489 139.745L70.3489 146.292L64.6785 143.019L70.3489 139.745Z" fill="#FF5D4F"/>
<path d="M47.6672 120.102L47.6672 126.649L41.9968 123.376L47.6672 120.102Z" fill="#B486D2"/>
<path d="M41.9969 110.281L41.9969 116.829L36.3265 113.555L41.9969 110.281Z" fill="#B486D2"/>
<path d="M47.6672 100.459L47.6672 107.007L41.9968 103.733L47.6672 100.459Z" fill="#B486D2"/>
<path d="M59.0077 100.459L59.0077 107.007L53.3373 103.733L59.0077 100.459Z" fill="#B486D2"/>
<path d="M64.678 110.281L64.678 116.829L59.0076 113.555L64.678 110.281Z" fill="#B486D2"/>
<path d="M70.3489 120.102L70.3489 126.649L64.6785 123.376L70.3489 120.102Z" fill="#B486D2"/>
<path d="M70.3489 100.459L70.3489 107.007L64.6785 103.733L70.3489 100.459Z" fill="#B486D2"/>
<path d="M53.3375 90.6379L53.3375 97.1855L47.6671 93.9117L53.3375 90.6379Z" fill="#B486D2"/>
<path d="M36.326 100.459L36.326 107.007L30.6556 103.733L36.326 100.459Z" fill="#B486D2"/>
<path d="M36.326 120.102L36.326 126.649L30.6556 123.376L36.326 120.102Z" fill="#B486D2"/>
<path d="M53.3375 129.923L53.3375 136.471L47.6671 133.197L53.3375 129.923Z" fill="#B486D2"/>
<path d="M64.678 129.923L64.678 136.471L59.0076 133.197L64.678 129.923Z" fill="#FF5D4F"/>
<path d="M76.0192 110.281L76.0192 116.829L70.3488 113.555L76.0192 110.281Z" fill="#B486D2"/>
<path d="M87.3597 110.281L87.3597 116.829L81.6893 113.555L87.3597 110.281Z" fill="#B486D2"/>
<path d="M64.678 90.6379L64.678 97.1855L59.0076 93.9117L64.678 90.6379Z" fill="#669ACA"/>
<path d="M59.0077 80.8162L59.0077 87.3638L53.3373 84.09L59.0077 80.8162Z" fill="#669ACA"/>
<path d="M70.3489 80.8162L70.3489 87.3638L64.6785 84.09L70.3489 80.8162Z" fill="#669ACA"/>
<path d="M41.9969 90.6379L41.9969 97.1855L36.3265 93.9117L41.9969 90.6379Z" fill="#B486D2"/>
<path d="M30.6557 90.6379L30.6557 97.1855L24.9854 93.9117L30.6557 90.6379Z" fill="#B4EDA7"/>
<path d="M36.326 80.8162L36.326 87.3638L30.6556 84.09L36.326 80.8162Z" fill="#B4EDA7"/>
<path d="M30.6557 110.281L30.6557 116.829L24.9854 113.555L30.6557 110.281Z" fill="#B486D2"/>
<path d="M24.9855 120.102L24.9855 126.649L19.3151 123.376L24.9855 120.102Z" fill="#FFE54F"/>
<path d="M24.9855 100.459L24.9855 107.007L19.3151 103.733L24.9855 100.459Z" fill="#FFE54F"/>
<path d="M19.3152 110.281L19.3152 116.829L13.6448 113.555L19.3152 110.281Z" fill="#FFE54F"/>
<path d="M7.97405 110.281L7.97405 116.829L2.30365 113.555L7.97405 110.281Z" fill="#FFE54F"/>
<path d="M41.9969 129.923L41.9969 136.471L36.3265 133.197L41.9969 129.923Z" fill="#B486D2"/>
<path d="M30.6557 129.923L30.6557 136.471L24.9854 133.197L30.6557 129.923Z" fill="#EBB090"/>
<path d="M36.326 139.745L36.326 146.292L30.6556 143.019L36.326 139.745Z" fill="#EBB090"/>
<path d="M53.3372 116.828L47.6668 120.102L47.6668 113.555L53.3372 116.828Z" fill="#F79D95"/>
<path d="M59.0075 126.65L53.3371 129.923L53.3371 123.376L59.0075 126.65Z" fill="#F79D95"/>
<path d="M70.3486 146.292L64.6782 149.566L64.6782 143.018L70.3486 146.292Z" fill="#F79D95"/>
<path d="M47.6669 126.65L41.9965 129.923L41.9965 123.376L47.6669 126.65Z" fill="#F79D95"/>
<path d="M41.9967 116.828L36.3263 120.102L36.3263 113.555L41.9967 116.828Z" fill="#F79D95"/>
<path d="M47.6669 107.007L41.9965 110.281L41.9965 103.733L47.6669 107.007Z" fill="#F79D95"/>
<path d="M59.0081 107.007L53.3377 110.281L53.3377 103.733L59.0081 107.007Z" fill="#F79D95"/>
<path d="M64.6784 116.828L59.008 120.102L59.008 113.555L64.6784 116.828Z" fill="#F79D95"/>
<path d="M70.3486 126.65L64.6782 129.923L64.6782 123.376L70.3486 126.65Z" fill="#F79D95"/>
<path d="M70.3486 107.007L64.6782 110.281L64.6782 103.733L70.3486 107.007Z" fill="#F79D95"/>
<path d="M53.3372 97.1852L47.6668 100.459L47.6668 93.9114L53.3372 97.1852Z" fill="#F79D95"/>
<path d="M36.3258 107.007L30.6554 110.281L30.6554 103.733L36.3258 107.007Z" fill="#F79D95"/>
<path d="M36.3258 126.65L30.6554 129.923L30.6554 123.376L36.3258 126.65Z" fill="#F79D95"/>
<path d="M53.3372 136.471L47.6668 139.745L47.6668 133.197L53.3372 136.471Z" fill="#F79D95"/>
<path d="M64.6784 136.471L59.008 139.745L59.008 133.197L64.6784 136.471Z" fill="#F79D95"/>
<path d="M76.0189 116.828L70.3485 120.102L70.3485 113.555L76.0189 116.828Z" fill="#9751C5"/>
<path d="M81.6892 107.007L76.0188 110.281L76.0188 103.733L81.6892 107.007Z" fill="#9751C5"/>
<path d="M87.36 116.828L81.6896 120.102L81.6896 113.555L87.36 116.828Z" fill="#9751C5"/>
<path d="M64.6784 97.1852L59.008 100.459L59.008 93.9114L64.6784 97.1852Z" fill="#F79D95"/>
<path d="M59.0081 87.364L53.3377 90.6378L53.3377 84.0901L59.0081 87.364Z" fill="#94C5F1"/>
<path d="M70.3486 87.364L64.6782 90.6378L64.6782 84.0901L70.3486 87.364Z" fill="#94C5F1"/>
<path d="M41.9967 97.1852L36.3263 100.459L36.3263 93.9114L41.9967 97.1852Z" fill="#F79D95"/>
<path d="M30.6555 97.1852L24.9851 100.459L24.9851 93.9114L30.6555 97.1852Z" fill="#87CD77"/>
<path d="M47.6669 87.364L41.9965 90.6378L41.9965 84.0901L47.6669 87.364Z" fill="#87CD77"/>
<path d="M36.3258 87.364L30.6554 90.6378L30.6554 84.0901L36.3258 87.364Z" fill="#87CD77"/>
<path d="M30.6555 77.5427L24.9851 80.8165L24.9851 74.2689L30.6555 77.5427Z" fill="#87CD77"/>
<path d="M30.6555 116.828L24.9851 120.102L24.9851 113.555L30.6555 116.828Z" fill="#F79D95"/>
<path d="M24.9852 107.007L19.3148 110.281L19.3148 103.733L24.9852 107.007Z" fill="#FFF5BB"/>
<path d="M19.315 116.828L13.6446 120.102L13.6446 113.555L19.315 116.828Z" fill="#FFF5BB"/>
<path d="M41.9967 136.471L36.3263 139.745L36.3263 133.197L41.9967 136.471Z" fill="#FF8C4F"/>
<path d="M30.6555 136.471L24.9851 139.745L24.9851 133.197L30.6555 136.471Z" fill="#FF8C4F"/>
<path d="M36.3258 146.292L30.6554 149.566L30.6554 143.018L36.3258 146.292Z" fill="#FF8C4F"/>
<path d="M41.9963 116.828L47.6667 120.102L47.6667 113.555L41.9963 116.828Z" fill="#EBB090"/>
<path d="M47.6672 126.65L53.3376 129.923L53.3376 123.376L47.6672 126.65Z" fill="#EBB090"/>
<path d="M59.0077 146.292L64.6781 149.566L64.6781 143.018L59.0077 146.292Z" fill="#FF5D4F"/>
<path d="M64.678 136.471L70.3484 139.745L70.3484 133.197L64.678 136.471Z" fill="#FF5D4F"/>
<path d="M36.326 126.65L41.9964 129.923L41.9964 123.376L36.326 126.65Z" fill="#EBB090"/>
<path d="M30.6557 116.828L36.3261 120.102L36.3261 113.555L30.6557 116.828Z" fill="#EBB090"/>
<path d="M36.326 107.007L41.9964 110.281L41.9964 103.733L36.326 107.007Z" fill="#EBB090"/>
<path d="M47.6672 107.007L53.3376 110.281L53.3376 103.733L47.6672 107.007Z" fill="#EBB090"/>
<path d="M53.3374 116.828L59.0078 120.102L59.0078 113.555L53.3374 116.828Z" fill="#EBB090"/>
<path d="M59.0077 126.65L64.6781 129.923L64.6781 123.376L59.0077 126.65Z" fill="#EBB090"/>
<path d="M59.0077 107.007L64.6781 110.281L64.6781 103.733L59.0077 107.007Z" fill="#EBB090"/>
<path d="M41.9963 97.1852L47.6667 100.459L47.6667 93.9114L41.9963 97.1852Z" fill="#EBB090"/>
<path d="M24.9855 107.007L30.6559 110.281L30.6559 103.733L24.9855 107.007Z" fill="#EBB090"/>
<path d="M24.9855 126.65L30.6559 129.923L30.6559 123.376L24.9855 126.65Z" fill="#EBB090"/>
<path d="M41.9969 136.471L47.6673 139.745L47.6673 133.197L41.9969 136.471Z" fill="#EBB090"/>
<path d="M53.3374 136.471L59.0078 139.745L59.0078 133.197L53.3374 136.471Z" fill="#FF5D4F"/>
<path d="M64.6785 116.828L70.3489 120.102L70.3489 113.555L64.6785 116.828Z" fill="#EBB090"/>
<path d="M70.3488 107.007L76.0192 110.281L76.0192 103.733L70.3488 107.007Z" fill="#B486D2"/>
<path d="M76.0191 116.828L81.6895 120.102L81.6895 113.555L76.0191 116.828Z" fill="#B486D2"/>
<path d="M53.3374 97.1852L59.0078 100.459L59.0078 93.9114L53.3374 97.1852Z" fill="#EBB090"/>
<path d="M64.6785 97.1852L70.3489 100.459L70.3489 93.9114L64.6785 97.1852Z" fill="#669ACA"/>
<path d="M47.6672 87.364L53.3376 90.6378L53.3376 84.0901L47.6672 87.364Z" fill="#669ACA"/>
<path d="M59.0077 87.364L64.6781 90.6378L64.6781 84.0901L59.0077 87.364Z" fill="#669ACA"/>
<path d="M64.6785 77.5427L70.3489 80.8165L70.3489 74.2689L64.6785 77.5427Z" fill="#669ACA"/>
<path d="M30.6557 97.1852L36.3261 100.459L36.3261 93.9114L30.6557 97.1852Z" fill="#EBB090"/>
<path d="M36.326 87.364L41.9964 90.6378L41.9964 84.0901L36.326 87.364Z" fill="#B4EDA7"/>
<path d="M24.9855 87.364L30.6559 90.6378L30.6559 84.0901L24.9855 87.364Z" fill="#B4EDA7"/>
<path d="M19.3146 116.828L24.985 120.102L24.985 113.555L19.3146 116.828Z" fill="#FFE54F"/>
<path d="M13.6443 107.007L19.3147 110.281L19.3147 103.733L13.6443 107.007Z" fill="#FFE54F"/>
<path d="M7.97405 116.828L13.6444 120.102L13.6444 113.555L7.97405 116.828Z" fill="#FFE54F"/>
<path d="M30.6557 136.471L36.3261 139.745L36.3261 133.197L30.6557 136.471Z" fill="#EBB090"/>
<path d="M24.9855 146.292L30.6559 149.566L30.6559 143.018L24.9855 146.292Z" fill="#EBB090"/>
<path d="M47.6668 107.007L41.9964 110.281L47.6668 113.555L47.6668 107.007Z" fill="#B4EDA7"/>
<path d="M64.6782 136.471L59.0078 139.745L64.6782 143.018L64.6782 136.471Z" fill="#FF5D4F"/>
<path d="M53.3371 116.828L47.6667 120.102L53.3371 123.376L53.3371 116.828Z" fill="#B4EDA7"/>
<path d="M53.3371 136.471L47.6667 139.745L53.3371 143.018L53.3371 136.471Z" fill="#FF5D4F"/>
<path d="M70.3485 126.649L64.6781 129.923L70.3485 133.197L70.3485 126.649Z" fill="#FF5D4F"/>
<path d="M70.3485 146.293L64.6781 149.566L70.3485 152.84L70.3485 146.293Z" fill="#FF5D4F"/>
<path d="M41.9965 116.828L36.3261 120.102L41.9965 123.376L41.9965 116.828Z" fill="#B4EDA7"/>
<path d="M36.3263 107.007L30.6559 110.281L36.3263 113.555L36.3263 107.007Z" fill="#B4EDA7"/>
<path d="M41.9965 97.1856L36.3261 100.459L41.9965 103.733L41.9965 97.1856Z" fill="#B4EDA7"/>
<path d="M53.3377 97.1856L47.6673 100.459L53.3377 103.733L53.3377 97.1856Z" fill="#B4EDA7"/>
<path d="M59.008 107.007L53.3376 110.281L59.008 113.555L59.008 107.007Z" fill="#B4EDA7"/>
<path d="M64.6782 116.828L59.0078 120.102L64.6782 123.376L64.6782 116.828Z" fill="#B4EDA7"/>
<path d="M64.6782 97.1856L59.0078 100.459L64.6782 103.733L64.6782 97.1856Z" fill="#B4EDA7"/>
<path d="M47.6668 87.3638L41.9964 90.6376L47.6668 93.9114L47.6668 87.3638Z" fill="#B4EDA7"/>
<path d="M30.6554 97.1856L24.985 100.459L30.6554 103.733L30.6554 97.1856Z" fill="#B4EDA7"/>
<path d="M30.6554 116.828L24.985 120.102L30.6554 123.376L30.6554 116.828Z" fill="#B4EDA7"/>
<path d="M47.6668 126.649L41.9964 129.923L47.6668 133.197L47.6668 126.649Z" fill="#B4EDA7"/>
<path d="M59.008 126.649L53.3376 129.923L59.008 133.197L59.008 126.649Z" fill="#B4EDA7"/>
<path d="M70.3485 107.007L64.6781 110.281L70.3485 113.555L70.3485 107.007Z" fill="#B4EDA7"/>
<path d="M76.0188 116.828L70.3484 120.102L76.0188 123.376L76.0188 116.828Z" fill="#B486D2"/>
<path d="M81.6896 107.007L76.0192 110.281L81.6896 113.555L81.6896 107.007Z" fill="#B486D2"/>
<path d="M59.008 87.3638L53.3376 90.6376L59.008 93.9114L59.008 87.3638Z" fill="#669ACA"/>
<path d="M70.3485 87.3638L64.6781 90.6376L70.3485 93.9114L70.3485 87.3638Z" fill="#669ACA"/>
<path d="M64.6782 77.5425L59.0078 80.8163L64.6782 84.0901L64.6782 77.5425Z" fill="#669ACA"/>
<path d="M36.3263 87.3638L30.6559 90.6376L36.3263 93.9114L36.3263 87.3638Z" fill="#B4EDA7"/>
<path d="M30.6554 77.5425L24.985 80.8163L30.6554 84.0901L30.6554 77.5425Z" fill="#B4EDA7"/>
<path d="M24.9851 107.007L19.3147 110.281L24.9851 113.555L24.9851 107.007Z" fill="#FFE54F"/>
<path d="M19.3148 116.828L13.6444 120.102L19.3148 123.376L19.3148 116.828Z" fill="#FFE54F"/>
<path d="M13.6446 107.007L7.97416 110.281L13.6446 113.555L13.6446 107.007Z" fill="#FFE54F"/>
<path d="M36.3263 126.649L30.6559 129.923L36.3263 133.197L36.3263 126.649Z" fill="#B4EDA7"/>
<path d="M41.9965 136.471L36.3261 139.745L41.9965 143.018L41.9965 136.471Z" fill="#EBB090"/>
<path d="M30.6554 136.471L24.985 139.745L30.6554 143.018L30.6554 136.471Z" fill="#EBB090"/>
<path d="M64.6781 136.471L70.3485 139.745L64.6781 143.018L64.6781 136.471Z" fill="#F79D95"/>
<path d="M47.6667 107.007L53.3371 110.281L47.6667 113.555L47.6667 107.007Z" fill="#94C5F1"/>
<path d="M53.3376 116.828L59.008 120.102L53.3376 123.376L53.3376 116.828Z" fill="#94C5F1"/>
<path d="M53.3376 136.471L59.008 139.745L53.3376 143.018L53.3376 136.471Z" fill="#F79D95"/>
<path d="M41.9964 116.828L47.6668 120.102L41.9964 123.376L41.9964 116.828Z" fill="#94C5F1"/>
<path d="M36.3261 107.007L41.9965 110.281L36.3261 113.555L36.3261 107.007Z" fill="#94C5F1"/>
<path d="M41.9964 97.1856L47.6668 100.459L41.9964 103.733L41.9964 97.1856Z" fill="#94C5F1"/>
<path d="M53.3376 97.1856L59.008 100.459L53.3376 103.733L53.3376 97.1856Z" fill="#94C5F1"/>
<path d="M59.0078 107.007L64.6782 110.281L59.0078 113.555L59.0078 107.007Z" fill="#94C5F1"/>
<path d="M64.6781 116.828L70.3485 120.102L64.6781 123.376L64.6781 116.828Z" fill="#94C5F1"/>
<path d="M64.6781 97.1856L70.3485 100.459L64.6781 103.733L64.6781 97.1856Z" fill="#94C5F1"/>
<path d="M47.6667 87.3638L53.3371 90.6376L47.6667 93.9114L47.6667 87.3638Z" fill="#94C5F1"/>
<path d="M30.6559 97.1856L36.3263 100.459L30.6559 103.733L30.6559 97.1856Z" fill="#94C5F1"/>
<path d="M30.6559 116.828L36.3263 120.102L30.6559 123.376L30.6559 116.828Z" fill="#94C5F1"/>
<path d="M47.6673 126.649L53.3377 129.923L47.6673 133.197L47.6673 126.649Z" fill="#94C5F1"/>
<path d="M59.0078 126.649L64.6782 129.923L59.0078 133.197L59.0078 126.649Z" fill="#94C5F1"/>
<path d="M70.3489 107.007L76.0193 110.281L70.3489 113.555L70.3489 107.007Z" fill="#9751C5"/>
<path d="M76.0192 116.828L81.6896 120.102L76.0192 123.376L76.0192 116.828Z" fill="#9751C5"/>
<path d="M81.6895 107.007L87.3599 110.281L81.6895 113.555L81.6895 107.007Z" fill="#9751C5"/>
<path d="M59.0078 87.3638L64.6782 90.6376L59.0078 93.9114L59.0078 87.3638Z" fill="#94C5F1"/>
<path d="M64.6781 77.5425L70.3485 80.8163L64.6781 84.0901L64.6781 77.5425Z" fill="#94C5F1"/>
<path d="M36.3261 87.3638L41.9965 90.6376L36.3261 93.9114L36.3261 87.3638Z" fill="#87CD77"/>
<path d="M24.985 87.3638L30.6554 90.6376L24.985 93.9114L24.985 87.3638Z" fill="#87CD77"/>
<path d="M30.6559 77.5425L36.3263 80.8163L30.6559 84.0901L30.6559 77.5425Z" fill="#87CD77"/>
<path d="M24.985 107.007L30.6554 110.281L24.985 113.555L24.985 107.007Z" fill="#94C5F1"/>
<path d="M19.3147 116.828L24.9851 120.102L19.3147 123.376L19.3147 116.828Z" fill="#FFF5BB"/>
<path d="M13.6444 107.007L19.3148 110.281L13.6444 113.555L13.6444 107.007Z" fill="#FFF5BB"/>
<path d="M59.0081 139.745L59.0081 146.292L64.6785 143.019L59.0081 139.745Z" fill="#F79D95"/>
<path d="M36.3261 126.649L41.9965 129.923L36.3261 133.197L36.3261 126.649Z" fill="#94C5F1"/>
<path d="M41.9964 136.471L47.6668 139.745L41.9964 143.018L41.9964 136.471Z" fill="#FF8C4F"/>
<path d="M24.985 126.649L30.6554 129.923L24.985 133.197L24.985 126.649Z" fill="#FF8C4F"/>
<path d="M30.6559 136.471L36.3263 139.745L30.6559 143.018L30.6559 136.471Z" fill="#FF8C4F"/>
<path d="M24.985 146.293L30.6554 149.566L24.985 152.84L24.985 146.293Z" fill="#FF8C4F"/>
<path d="M41.9967 110.281L41.9967 116.829L47.6671 113.555L41.9967 110.281Z" fill="#FFF5BB"/>
<path d="M47.6669 120.102L47.6669 126.649L53.3373 123.376L47.6669 120.102Z" fill="#FFF5BB"/>
<path d="M64.6784 129.923L64.6784 136.471L70.3488 133.197L64.6784 129.923Z" fill="#F79D95"/>
<path d="M36.3264 120.102L36.3264 126.649L41.9968 123.376L36.3264 120.102Z" fill="#FFF5BB"/>
<path d="M30.6561 110.281L30.6561 116.829L36.3265 113.555L30.6561 110.281Z" fill="#FFF5BB"/>
<path d="M36.3264 100.459L36.3264 107.007L41.9968 103.733L36.3264 100.459Z" fill="#FFF5BB"/>
<path d="M47.6669 100.459L47.6669 107.007L53.3373 103.733L47.6669 100.459Z" fill="#FFF5BB"/>
<path d="M53.3372 110.281L53.3372 116.829L59.0076 113.555L53.3372 110.281Z" fill="#FFF5BB"/>
<path d="M59.0081 120.102L59.0081 126.649L64.6785 123.376L59.0081 120.102Z" fill="#FFF5BB"/>
<path d="M59.0081 100.459L59.0081 107.007L64.6785 103.733L59.0081 100.459Z" fill="#FFF5BB"/>
<path d="M41.9967 90.6379L41.9967 97.1855L47.6671 93.9117L41.9967 90.6379Z" fill="#FFF5BB"/>
<path d="M24.9852 100.459L24.9852 107.007L30.6556 103.733L24.9852 100.459Z" fill="#FFF5BB"/>
<path d="M24.9852 120.102L24.9852 126.649L30.6556 123.376L24.9852 120.102Z" fill="#FFF5BB"/>
<path d="M41.9967 129.923L41.9967 136.471L47.6671 133.197L41.9967 129.923Z" fill="#FFF5BB"/>
<path d="M53.3372 129.923L53.3372 136.471L59.0076 133.197L53.3372 129.923Z" fill="#FFF5BB"/>
<path d="M64.6784 110.281L64.6784 116.829L70.3488 113.555L64.6784 110.281Z" fill="#FFF5BB"/>
<path d="M70.3486 120.102L70.3486 126.649L76.019 123.376L70.3486 120.102Z" fill="#9751C5"/>
<path d="M70.3486 100.459L70.3486 107.007L76.019 103.733L70.3486 100.459Z" fill="#9751C5"/>
<path d="M76.0189 110.281L76.0189 116.829L81.6893 113.555L76.0189 110.281Z" fill="#9751C5"/>
<path d="M87.3601 110.281L87.3601 116.829L93.0305 113.555L87.3601 110.281Z" fill="#9751C5"/>
<path d="M53.3372 90.6379L53.3372 97.1855L59.0076 93.9117L53.3372 90.6379Z" fill="#FFF5BB"/>
<path d="M64.6784 90.6379L64.6784 97.1855L70.3488 93.9117L64.6784 90.6379Z" fill="#94C5F1"/>
<path d="M59.0081 80.8162L59.0081 87.3638L64.6785 84.09L59.0081 80.8162Z" fill="#94C5F1"/>
<path d="M30.6561 90.6379L30.6561 97.1855L36.3265 93.9117L30.6561 90.6379Z" fill="#87CD77"/>
<path d="M36.3264 80.8162L36.3264 87.3638L41.9968 84.09L36.3264 80.8162Z" fill="#87CD77"/>
<path d="M24.9852 80.8162L24.9852 87.3638L30.6556 84.09L24.9852 80.8162Z" fill="#87CD77"/>
<path d="M19.315 110.281L19.315 116.829L24.9854 113.555L19.315 110.281Z" fill="#FFF5BB"/>
<path d="M7.97438 110.281L7.97438 116.829L13.6448 113.555L7.97438 110.281Z" fill="#FFF5BB"/>
<path d="M30.6561 129.923L30.6561 136.471L36.3265 133.197L30.6561 129.923Z" fill="#FF8C4F"/>
<path d="M36.3264 139.745L36.3264 146.292L41.9968 143.019L36.3264 139.745Z" fill="#FF8C4F"/>
<path d="M24.9852 139.745L24.9852 146.292L30.6556 143.019L24.9852 139.745Z" fill="#FF8C4F"/>
<path d="M14.3555 14.6875L18.2227 15.4492C18.8867 15.4492 20.0195 16.0156 21.6211 17.1484H21.8555C21.8945 15.625 22.0312 14.8633 22.2656 14.8633C23.4375 15.293 24.1406 15.5078 24.375 15.5078H25.5469L26.4844 15.4492L26.6016 15.625L26.543 15.9766V23.4766C26.543 23.9063 26.4062 24.2578 26.1328 24.5312C26.4453 24.8438 26.6016 25.1367 26.6016 25.4102C26.6016 25.6836 26.4844 26.0156 26.25 26.4062L26.4258 27.4023C26.4258 27.8711 26.3086 28.1055 26.0742 28.1055L24.5508 27.8711H24.4922L23.6719 28.1055H23.5547C23.3984 28.1055 23.1445 27.2656 22.793 25.5859C22.793 25.0391 22.5586 24.5508 22.0898 24.1211C21.582 23.3789 21.3281 22.8711 21.3281 22.5977L21.6797 22.4805V22.4219C21.0938 21.9531 20.7422 21.4258 20.625 20.8398C19.0234 19.2383 17.6562 18.4375 16.5234 18.4375H16.1133C15.6836 18.4375 13.7305 18.8477 10.2539 19.668C9.94141 19.9023 9.43359 20.6445 8.73047 21.8945C7.98828 22.8711 7.61719 23.8086 7.61719 24.707C7.85156 27.207 8.16406 28.457 8.55469 28.457C9.0625 29.7852 9.66797 30.5859 10.3711 30.8594C10.4883 31.0547 10.957 31.25 11.7773 31.4453C12.3242 31.9531 13.4766 32.5781 15.2344 33.3203C15.2344 33.4766 15.4297 33.5742 15.8203 33.6133L16.5234 33.3789C16.8359 33.457 16.9922 33.5352 16.9922 33.6133V33.6719L16.7578 33.9062V34.082C17.3047 34.7461 17.9688 35.0781 18.75 35.0781V35.0195L17.6367 34.082V34.0234C17.9883 34.0234 19.2383 34.707 21.3867 36.0742C24.6289 39.082 26.25 40.9961 26.25 41.8164C26.7969 44.1992 27.0703 45.6836 27.0703 46.2695C26.7188 49.2383 26.3867 50.7227 26.0742 50.7227L24.668 53.1836C21.9727 54.8242 20.3906 55.6445 19.9219 55.6445C15.4297 54.668 12.4414 53.8867 10.957 53.3008C7.91016 50.4492 6.38672 48.7695 6.38672 48.2617L6.15234 48.0859L6.03516 48.1445V48.4375V51.7188C6.03516 51.9922 5.33203 52.1289 3.92578 52.1289H2.87109L1.99219 52.4219C1.71875 52.4219 1.36719 52.207 0.9375 51.7773V51.7188L1.23047 51.25C1.50391 44.6875 1.83594 41.4062 2.22656 41.4062H2.34375L3.39844 41.582C3.59375 41.582 3.78906 41.5234 3.98438 41.4062L4.74609 41.582L5.15625 41.4648H5.39062C5.54688 41.543 5.89844 42.1094 6.44531 43.1641C7.92969 45.0391 9.25781 46.8359 10.4297 48.5547C10.5859 48.5547 11.0742 49.082 11.8945 50.1367L15.5273 51.7188H16.582V51.9531H16.6992L16.9922 51.7773H17.1094C17.4219 52.0117 17.7148 52.1289 17.9883 52.1289H18.3398C19.3945 52.0898 19.9219 51.9531 19.9219 51.7188V51.6016H18.75L18.0469 51.543C18.0859 51.3867 19.4727 51.0938 22.207 50.6641C22.832 50.6641 23.4375 49.5703 24.0234 47.3828C24.0234 46.6797 24.1992 46.1719 24.5508 45.8594V45.625C23.8867 43.5547 23.1445 42.207 22.3242 41.582C21.8555 40.7617 20.0781 39.8047 16.9922 38.7109C14.9609 37.9297 13.3203 37.0117 12.0703 35.957C10.2344 35.4102 9.17969 34.8047 8.90625 34.1406C8.67188 33.6328 7.77344 32.793 6.21094 31.6211C5.50781 29.4727 4.74609 27.8125 3.92578 26.6406C3.49609 24.9219 3.28125 23.1055 3.28125 21.1914C3.59375 19.9023 5 18.125 7.5 15.8594C8.94531 15.0781 11.2305 14.6875 14.3555 14.6875ZM7.5 16.7383H8.20312C8.51562 16.7383 9.96094 16.4063 12.5391 15.7422C13.4766 15.5859 13.9453 15.4297 13.9453 15.2734L13.7109 15.2148C9.57031 15.5664 7.5 16.0742 7.5 16.7383ZM22.9688 15.9766L22.9102 16.2109V16.3867C22.9102 16.6211 23.0664 16.7383 23.3789 16.7383H24.375V16.6797C23.9844 16.2109 23.5156 15.9766 22.9688 15.9766ZM9.25781 18.9062H9.375C9.76562 18.9062 10.6836 18.5547 12.1289 17.8516L13.7109 17.2656V17.3242L13.5352 17.6758H14.0039L14.3555 17.5586V17.3242L14.2383 17.1484V16.7969H14.1211C12.5586 17.2656 11.2695 17.7539 10.2539 18.2617C9.58984 18.3789 9.25781 18.5937 9.25781 18.9062ZM19.1602 17.2656H18.1641C18.1641 17.3438 18.75 17.5391 19.9219 17.8516H20.2148L20.332 17.793V17.6758C20.2148 17.4023 19.8242 17.2656 19.1602 17.2656ZM23.2031 17.3242L23.0859 17.5586V17.6758L23.1445 18.0273H23.3203L23.4961 17.8516V17.5586L23.3203 17.3242H23.2031ZM7.79297 18.1445V18.2031C7.79297 18.3203 7.87109 18.3789 8.02734 18.3789C8.22266 18.3008 8.35938 18.1641 8.4375 17.9688V17.8516C8.08594 17.8516 7.87109 17.9492 7.79297 18.1445ZM21.0938 18.4375L21.3867 18.7305H21.6797L21.8555 18.5547V18.3789C21.8555 18.2617 21.6992 18.1445 21.3867 18.0273C21.1914 18.1055 21.0938 18.2422 21.0938 18.4375ZM24.082 19.2578L24.2578 19.375V19.4336L24.0234 19.7266V19.9023C24.0234 19.9805 24.1797 20.0781 24.4922 20.1953C24.5703 20.5078 24.6875 20.6836 24.8438 20.7227H25.0195V20.4883L24.9609 20.3125V20.0781H25.1367L25.4297 20.3125H25.5469L25.6055 19.9609V19.8438C25.332 18.75 25.1367 18.2031 25.0195 18.2031H24.668C24.2773 18.3594 24.082 18.7109 24.082 19.2578ZM7.44141 20.7227L7.79297 21.0742H7.91016C8.37891 20.9961 8.80859 20.7422 9.19922 20.3125L9.02344 20.1953H8.37891C7.94922 20.1953 7.63672 20.3711 7.44141 20.7227ZM4.86328 20.2539L4.6875 20.4297V20.4883H4.98047V20.2539H4.86328ZM6.44531 23.0078V23.0664H6.5625C7.26562 22.4023 7.61719 21.8164 7.61719 21.3086L7.44141 21.1328C6.97266 21.1328 6.64062 21.7578 6.44531 23.0078ZM25.5469 21.3086H25.2539V21.4258C25.3711 21.6602 25.4883 21.7773 25.6055 21.7773V21.543L25.5469 21.3086ZM24.9609 21.7188L24.7852 21.8945H24.9609V21.7188ZM24.0234 22.0117L23.7891 22.1875V22.2461L24.0234 22.4805H24.2578L24.4922 22.2461V22.1875L24.2578 22.0117H24.0234ZM25.3711 22.5977L25.1367 22.7734V23.1836L25.1953 23.5938H25.3711L25.5469 22.5977H25.3711ZM24.1406 23.5938H24.0234V23.7109L24.1406 23.8867H24.375V23.7109L24.1406 23.5938ZM23.9648 25.1758V26.1133L24.082 26.2305H24.1406C24.4531 26.2305 24.6289 26.0938 24.668 25.8203C24.4727 25.3516 24.375 24.9609 24.375 24.6484H24.2578C24.0625 24.7266 23.9648 24.9023 23.9648 25.1758ZM24.2578 27.0508L24.082 27.2266L24.375 27.4023H24.5508L24.6094 27.2266L24.375 27.0508H24.2578ZM6.21094 29.5703V29.9805L6.44531 30.2148H6.91406V29.9805C6.64062 29.707 6.40625 29.5703 6.21094 29.5703ZM7.32422 31.1523H7.26562V31.4453C8.08594 32.0312 8.63281 32.3242 8.90625 32.3242H9.14062V32.0898C8.59375 31.6992 7.98828 31.3867 7.32422 31.1523ZM14.6484 33.1445H14.1211C14.1602 33.3008 14.3164 33.3789 14.5898 33.3789H14.8242V33.3203L14.6484 33.1445ZM15.2344 34.0234L15.0586 34.1406C15.2148 34.375 15.8594 34.7461 16.9922 35.2539V35.0195C16.4453 34.5117 15.8594 34.1797 15.2344 34.0234ZM16.582 37.5391H16.2891V37.832C16.7969 38.0664 17.4219 38.2031 18.1641 38.2422C18.1641 38.3984 18.3008 38.4766 18.5742 38.4766H19.043V38.418C19.043 38.0664 18.2227 37.7734 16.582 37.5391ZM20.5078 39.1211H20.332V39.2969L20.5078 39.4727H20.625V39.2969L20.5078 39.1211ZM2.87109 45.1562H2.63672C2.44141 45.7422 2.34375 46.4844 2.34375 47.3828L2.46094 48.1445H2.51953C2.87109 48.1445 3.04688 47.9883 3.04688 47.6758C2.92969 46.7773 2.87109 45.9375 2.87109 45.1562ZM4.10156 46.8555C3.90625 47.5195 3.69141 47.9492 3.45703 48.1445L3.69141 48.7891V50.3125V50.6641C3.69141 50.9375 3.76953 51.0742 3.92578 51.0742H4.27734L4.45312 50.8984V50.6641C4.45312 48.125 4.33594 46.8555 4.10156 46.8555ZM7.32422 48.3203H7.26562V48.4375C7.42188 49.0625 7.71484 49.375 8.14453 49.375V49.2578C7.87109 48.6328 7.59766 48.3203 7.32422 48.3203ZM2.51953 49.6094L2.63672 49.7266H2.69531C2.8125 49.7266 2.91016 49.3359 2.98828 48.5547L2.87109 48.4375C2.71484 48.4375 2.59766 48.8281 2.51953 49.6094ZM9.375 48.8477H9.25781V48.9062C9.57031 49.4922 9.88281 49.7852 10.1953 49.7852V49.6094C9.88281 49.2578 9.60938 49.0039 9.375 48.8477ZM24.5508 49.8438L24.2578 50.1367L24.4922 50.3711H24.7852L25.0195 50.1367V50.0195L24.8438 49.8438H24.5508ZM12.832 51.1914V51.25C12.9102 51.4453 13.0469 51.543 13.2422 51.543C13.1641 51.3086 13.0273 51.1914 12.832 51.1914ZM10.0195 51.3086L9.60938 51.25V51.3086C10 52.168 10.9766 52.832 12.5391 53.3008C13.8281 53.7695 15.6445 54.2578 17.9883 54.7656C18.457 55.0781 18.8672 55.2539 19.2188 55.293H19.7461C20.7227 55.0195 21.2109 54.668 21.2109 54.2383L15.9375 53.8281C12.8516 52.8516 10.8789 52.0117 10.0195 51.3086ZM20.332 53.0078V53.125L20.5078 53.2422H20.8008C22.207 53.2422 22.9883 53.0469 23.1445 52.6562L22.9102 52.5391H22.5586C22.1289 52.5391 21.3867 52.6953 20.332 53.0078ZM18.5742 54.4727V54.2383H18.6914C18.9648 54.2383 19.1016 54.3164 19.1016 54.4727H18.9258H18.5742Z" fill="#FF5D4F"/>
<path d="M41.4258 7.89062C42.2852 7.89062 42.9883 8.125 43.5352 8.59375C43.0664 9.84375 42.7539 11.8164 42.5977 14.5117L42.0703 19.9023C42.0703 20.1758 42.8516 20.3125 44.4141 20.3125C49.0234 20.3125 51.3281 20.5273 51.3281 20.957C51.5234 20.957 51.7578 21.0742 52.0312 21.3086C51.6406 21.8164 51.4453 22.1875 51.4453 22.4219V22.5977L51.6211 23.7695L50.8594 26.3477C50.8594 26.6211 51.1523 27.0117 51.7383 27.5195V27.6367C50.8008 27.9492 50.0391 28.1055 49.4531 28.1055C48.8281 28.0664 48.5156 27.9688 48.5156 27.8125V27.6953L49.043 27.6367H49.4531L49.6875 27.4023V27.2852L49.4531 27.2266L45.5273 27.2852L42.3047 27.2266C42.1094 27.2266 41.8945 28.3203 41.6602 30.5078H41.6016L40.7812 29.5703L40.6055 30.2148V30.5664C40.6445 31.6602 40.7812 32.2461 41.0156 32.3242C41.1719 32.3242 41.3086 31.9727 41.4258 31.2695V30.8594H41.6016L41.6602 31.0352L41.25 36.6602C41.7188 44.7461 42.1289 48.7891 42.4805 48.7891C42.6758 50.0391 43.1641 50.6641 43.9453 50.6641C44.375 50.9375 44.9023 51.0742 45.5273 51.0742H46.582L50.0977 50.8984C50.1758 50.8984 50.3125 51.9336 50.5078 54.0039C50.5859 54.6289 50.4492 55.0781 50.0977 55.3516C49.7852 55.6641 49.2383 55.8203 48.457 55.8203L43.9453 55.9375C41.4844 55.9375 39.4141 55.2539 37.7344 53.8867C36.6406 53.4961 36.0938 52.3242 36.0938 50.3711C36.0156 49.3164 35.8789 46.1914 35.6836 40.9961L36.3867 33.0273L36.5625 29.5703V29.1016C36.2891 27.4609 35.8203 26.6406 35.1562 26.6406H33.3984H31.3477C30.7617 26.6406 30.1758 26.7773 29.5898 27.0508C29.1992 27.0117 28.7109 26.4844 28.125 25.4688L29.2969 20.2539C29.2969 20.0977 31.6602 20 36.3867 19.9609C36.3867 19.4531 36.6602 18.8086 37.207 18.0273C37.3633 11.9336 37.5781 8.88672 37.8516 8.88672V8.71094C37.8516 8.63281 37.7539 8.59375 37.5586 8.59375V8.41797C37.5586 8.30078 38.8477 8.125 41.4258 7.89062ZM39.1992 9.47266H39.1406V9.82422H39.3164V9.58984L39.1992 9.47266ZM41.7188 9.58984L41.4844 9.82422V9.94141L41.6602 11.2891H41.7773C42.2461 10.8203 42.4805 10.4102 42.4805 10.0586V9.82422L42.3047 9.58984H41.7188ZM39.6094 11.7578L39.4336 11.582C39.3555 11.9727 39.3164 12.4805 39.3164 13.1055V13.3398H39.4336L39.6094 12.3438V11.7578ZM39.7852 14.2188H39.668L39.4336 20.0195V20.0781L39.6094 20.2539H39.7266C40 20.2539 40.1367 19.7656 40.1367 18.7891V17.4414L40.0195 14.5703C39.9414 14.3359 39.8633 14.2188 39.7852 14.2188ZM29.6484 20.957C29.6484 21.2305 29.8242 21.3672 30.1758 21.3672H31.0547C32.6562 21.3672 34.1406 21.2891 35.5078 21.1328V21.0156C35.5078 20.8203 34.5508 20.7227 32.6367 20.7227H30.1758C29.8242 20.7227 29.6484 20.8008 29.6484 20.957ZM47.9297 20.7227L47.168 21.0156H46.4648H45.4688V21.1914C46.3281 21.4258 47.0703 21.543 47.6953 21.543H49.043C49.1211 21.543 49.1602 21.4844 49.1602 21.3672C49.082 20.9375 48.8672 20.7227 48.5156 20.7227H47.9297ZM49.5703 21.3086L49.3945 21.4258V21.543L49.5703 21.6016C49.9609 21.6016 50.1758 21.5234 50.2148 21.3672V21.3086H49.5703ZM30.5859 22.0703L30.4688 22.1875V22.5391C30.4688 22.9297 31.7773 23.125 34.3945 23.125C35.7227 23.125 36.3867 23.0273 36.3867 22.832C36.3867 22.3633 34.668 22.1094 31.2305 22.0703H30.5859ZM43.0664 22.5977L42.8906 22.7734V22.832C42.8906 23.0273 43.5938 23.1445 45 23.1836L45.9961 23.125L47.3438 23.3594H47.5781C47.8516 23.3594 47.9883 23.2422 47.9883 23.0078H47.9297L43.4766 22.5977H43.0664ZM49.3945 23.8867L49.1602 24.1211V24.1797L49.3945 24.3555H49.6875C50.0391 24.3555 50.2539 24.2383 50.332 24.0039L50.1562 23.8867H49.3945ZM31.1133 24.1211L30.8789 24.2969C30.8789 24.4531 30.9766 24.5312 31.1719 24.5312L32.6367 24.5898L34.2188 24.5312L34.2773 24.4727V24.3555C33.8086 24.1992 32.9297 24.1211 31.6406 24.1211H31.1133ZM35.6836 25.2344L30.8789 25.0586V25.1758C30.8789 25.4492 32.3633 25.5859 35.332 25.5859L35.8008 25.4688V25.4102L35.6836 25.2344ZM44.0625 25.4102H43.7695V25.5859C43.8086 25.6641 44.4922 25.8594 45.8203 26.1719H45.9375V26.0547C45.3125 25.625 44.6875 25.4102 44.0625 25.4102ZM47.0508 25.9961C48.1055 26.3477 49.043 26.5234 49.8633 26.5234L50.0977 26.2891V25.9375L49.9219 25.7617H48.6328C47.5781 25.7617 47.0508 25.8398 47.0508 25.9961ZM38.9062 28.1055V28.5742L39.082 28.75C39.2383 28.7109 39.3164 28.5742 39.3164 28.3398V28.1055L39.1992 27.6953H39.1406C38.9844 27.7344 38.9062 27.8711 38.9062 28.1055ZM41.0742 29.1602L40.7812 28.9258V29.1016L41.0156 29.3359H41.0742V29.1602ZM39.1992 29.2773H39.082L39.0234 29.5703V29.8633L39.082 30.2148H39.3164V29.6875V29.3945L39.1992 29.2773ZM39.3164 33.3203H39.1406V33.7891L39.3164 34.0234H39.4336V33.7891L39.3164 33.3203ZM36.5039 40.7617L36.6797 42.4023L36.6211 44.4531L36.6797 45.0391H36.8555C37.0898 45.0391 37.207 44.1211 37.207 42.2852V40.9375C37.207 39.1406 37.1289 38.2422 36.9727 38.2422C36.6992 38.2422 36.543 39.082 36.5039 40.7617ZM40.3125 45.3906H40.1953L40.1367 45.8008V46.2695C40.1367 46.543 40.2148 46.6992 40.3711 46.7383H40.4883C40.6445 46.6992 40.7227 46.5625 40.7227 46.3281C40.6836 45.7031 40.5469 45.3906 40.3125 45.3906ZM40.7812 47.9102L40.5469 48.5547C40.5469 49.4531 40.7422 50.0195 41.1328 50.2539L41.25 50.0195V49.4922C41.2109 48.5156 41.0547 47.9883 40.7812 47.9102ZM38.4961 48.3203H38.3203V49.1992L38.4375 49.5508H38.4961L38.6133 49.4336V48.4375L38.4961 48.3203ZM40.1953 52.0117V52.0703V52.4219C40.2344 52.5781 40.3711 52.7344 40.6055 52.8906H41.0156V52.7734C41.0156 52.3438 40.7422 52.0898 40.1953 52.0117ZM46.6992 53.1836H46.9336C48.3789 52.9492 49.1016 52.6953 49.1016 52.4219L48.9844 52.3047C47.4609 52.6953 46.6992 52.9883 46.6992 53.1836ZM38.7305 52.3633H38.6133V52.5977C38.7305 53.5742 39.1602 54.0625 39.9023 54.0625H40.4883L40.6055 53.8867V53.8281C40.6055 53.75 40.2539 53.6133 39.5508 53.418L38.7305 52.3633Z" fill="#FF8C4F"/>
<path d="M68.9648 25.5859C70.6055 25.5859 72.5977 26.2891 74.9414 27.6953C76.9336 29.1797 77.9297 30.1953 77.9297 30.7422C79.4922 34.0234 80.2734 35.9961 80.2734 36.6602L80.332 37.1289C79.7461 38.4961 79.4531 39.4336 79.4531 39.9414L79.1016 40H74.1211C73.6523 40 73.0859 40.0586 72.4219 40.1758C66.7969 39.707 62.8516 39.4727 60.5859 39.4727H59.3555C58.8867 40.1758 58.6523 40.6836 58.6523 40.9961C58.9258 41.4258 59.0625 42.1094 59.0625 43.0469C59.0625 44.5312 59.2969 45.4102 59.7656 45.6836L59.8242 45.9766V46.0352L59.4727 45.8594V46.0352L60 46.6211C60 47.1289 60.3516 47.7734 61.0547 48.5547C62.3438 50.8203 63.75 52.2266 65.2734 52.7734C66.5625 53.2031 68.0273 53.418 69.668 53.418C69.9414 53.418 70.5078 53.1641 71.3672 52.6562C72.0703 52.5 73.5547 51.2305 75.8203 48.8477V48.6719C75.8203 48.5938 75.5469 48.5156 75 48.4375L74.8828 48.1445C75.7812 46.4258 76.8555 45.293 78.1055 44.7461C78.457 45.0977 79.1797 45.6445 80.2734 46.3867C81.1328 47.7148 82.2852 49.2773 83.7305 51.0742V51.3086C82.4805 52.9492 81.582 53.7695 81.0352 53.7695H80.8008C80.8008 52.9102 80.2734 52.4219 79.2188 52.3047C79.0234 52.3047 78.1641 52.9492 76.6406 54.2383C75.7422 54.9414 74.1992 55.6055 72.0117 56.2305C69.4727 56.7383 67.6758 56.9922 66.6211 56.9922L63.2812 55.8203C61.4062 55.8203 59.6875 54.8047 58.125 52.7734C57.4609 52.0703 56.9141 51.2305 56.4844 50.2539C56.4844 49.9414 56.0547 48.3203 55.1953 45.3906C54.9219 44.2578 54.7852 43.1641 54.7852 42.1094V42.0508C54.7852 36.8555 56.3477 32.3047 59.4727 28.3984C59.8633 27.4219 60.7617 26.6992 62.168 26.2305C63.1055 25.957 64.2383 25.7422 65.5664 25.5859C65.918 25.4297 67.0508 25.4297 68.9648 25.5859ZM63.5742 26.8164V26.875H63.6914C64.3164 26.875 65.4883 26.6602 67.207 26.2305C67.5586 26.1914 67.7344 26.0938 67.7344 25.9375L67.5586 25.7617H67.5C66.3672 25.7617 65.0977 26.0742 63.6914 26.6992L63.5742 26.8164ZM61.2305 27.8125V27.8711L61.4062 27.9883H61.4648C62.2461 27.793 62.6367 27.5977 62.6367 27.4023V27.0508L62.4023 26.8164H62.2852C61.582 27.0508 61.2305 27.3828 61.2305 27.8125ZM70.2539 27.2266H68.4961V27.3438C68.4961 27.5 69.2969 27.6172 70.8984 27.6953H70.957V27.4609C70.957 27.3828 70.7227 27.3047 70.2539 27.2266ZM66.0938 28.1055V28.1641C66.0938 28.3203 66.8945 28.5156 68.4961 28.75L68.6133 28.6914V28.457C68.3008 28.0273 67.7734 27.8125 67.0312 27.8125H66.8555C66.3477 27.8516 66.0938 27.9492 66.0938 28.1055ZM69.668 28.457V28.5156C71.8945 29.8047 73.0859 30.4492 73.2422 30.4492H73.3008L73.8867 30.2148L74.2383 30.332L74.2969 30.2148V30.1562C74.1406 30.0391 73.8086 29.9219 73.3008 29.8047L72.1289 29.2773C71.8164 28.6133 71.1914 28.2812 70.2539 28.2812H70.0781C69.8047 28.3203 69.668 28.3789 69.668 28.457ZM62.6953 30.1562C63.0859 29.8438 63.8672 29.5117 65.0391 29.1602V29.043L64.9805 28.9258H64.3945C63.2617 29.2383 62.6953 29.6484 62.6953 30.1562ZM59.5898 34.0234V34.1992C59.5898 34.6289 63.1445 35.1172 70.2539 35.6641L70.8398 35.8398L71.6016 35.7812C73.1641 36.2891 74.2188 36.543 74.7656 36.543C74.7656 36.6602 74.8828 36.7578 75.1172 36.8359C75.3516 36.4844 75.4688 36.1523 75.4688 35.8398V34.7266C75.4688 34.2188 74.4922 33.0859 72.5391 31.3281C71.6406 30.4297 70.625 29.9219 69.4922 29.8047L67.5 29.4531C64.2578 30.1172 62.1289 30.918 61.1133 31.8555C60.6836 32.6758 60.1758 33.3984 59.5898 34.0234ZM60.2344 30.5078V30.625H60.3516C60.8594 30.5078 61.1133 30.3711 61.1133 30.2148V30.1562H60.8203C60.625 30.1562 60.4297 30.2734 60.2344 30.5078ZM74.2383 31.3281C74.3164 31.6406 74.4922 31.7969 74.7656 31.7969H74.8828L75 31.6211V31.2695L74.7656 30.9766C74.4141 30.9766 74.2383 31.0938 74.2383 31.3281ZM59.1211 31.6211L59.0039 31.7969V31.8555H59.1211L59.3555 31.6797V31.6211H59.1211ZM75.7031 32.0898H75.4688C75.8984 33.3789 76.2109 34.082 76.4062 34.1992H76.6406L76.8164 34.082C76.5039 32.832 76.1719 32.207 75.8203 32.207L75.7031 32.0898ZM59.6484 33.1445C59.8828 33.1055 60 32.9492 60 32.6758V32.6172C59.7656 32.6953 59.6484 32.8711 59.6484 33.1445ZM77.6953 34.7266L77.5195 34.8438V35.2539L77.6953 35.4883C77.8516 35.4492 77.9297 35.3125 77.9297 35.0781V34.8438L77.8711 34.7266H77.6953ZM59.0039 35.5469V35.7812L59.1211 35.8984H59.2383C59.5117 35.7812 59.7461 35.5664 59.9414 35.2539V35.0781H59.6484C59.4141 35.0781 59.1992 35.2344 59.0039 35.5469ZM56.6016 35.1953C56.2891 35.5078 56.0156 36.2891 55.7812 37.5391H55.8984C56.1328 37.5391 56.4844 36.8555 56.9531 35.4883C56.875 35.293 56.7578 35.1953 56.6016 35.1953ZM62.5781 35.8984V36.0742C63.3203 36.582 64.668 36.8359 66.6211 36.8359H67.1484L67.9102 36.7773V36.543C66.3086 36.1914 64.5312 35.9766 62.5781 35.8984ZM73.3008 37.4219H73.125V37.5977H73.3008V37.4219ZM61.9922 37.8906V38.0078C62.7734 38.2031 64.8438 38.3984 68.2031 38.5938V38.6523V38.7109L66.9727 38.8867C66.9727 39.0039 67.4805 39.0625 68.4961 39.0625C70.1367 39.0625 70.957 38.9844 70.957 38.8281C70.957 38.4375 67.9688 38.125 61.9922 37.8906ZM56.0742 38.3008H55.7812V38.6523C55.7812 38.8867 55.8398 39.0039 55.957 39.0039C56.1523 39.0039 56.2695 38.8086 56.3086 38.418L56.0742 38.3008ZM60.8203 38.418L60.5273 38.4766V38.8281H60.8203V38.5938V38.4766V38.418ZM58.9453 38.8867V38.9453H59.0039L60 38.8281V38.7109L59.8242 38.4766H59.6484C59.2969 38.4766 59.0625 38.6133 58.9453 38.8867ZM73.1836 39.0039C73.1836 39.1602 73.5352 39.2383 74.2383 39.2383L74.7656 39.1797V39.0625C74.7656 38.9062 74.3945 38.8281 73.6523 38.8281C73.3398 38.9062 73.1836 38.9648 73.1836 39.0039ZM55.7812 40.5273V40.7031V40.7617C55.7422 40.8789 55.7227 41.1523 55.7227 41.582V41.8164C55.7227 42.5195 55.918 43.1445 56.3086 43.6914H56.3672C56.3672 41.8164 56.1719 40.7617 55.7812 40.5273ZM56.8359 45.625H56.6602V45.7422L56.8359 45.8594H56.9531V45.7422L56.8359 45.625ZM57.2461 46.6211L57.1875 46.6797V46.7969C57.3438 47.4219 57.5781 47.7344 57.8906 47.7344V47.6758V47.5586C57.8906 47.2461 57.6758 46.9336 57.2461 46.6211ZM76.3477 47.1484L76.4648 47.3242H76.7578C76.9922 47.3242 77.1289 47.2461 77.168 47.0898L76.9336 46.8555H76.875C76.6016 46.8555 76.4258 46.9531 76.3477 47.1484ZM75 50.5469L75.1172 50.6055H75.1758C75.6055 50.6055 75.8789 50.3516 75.9961 49.8438V49.7266C75.5664 49.7266 75.2344 50 75 50.5469ZM79.1016 50.4297L79.1602 50.4883H79.3359C79.5703 50.332 79.6875 50.1172 79.6875 49.8438H79.5117C79.2383 50 79.1016 50.1953 79.1016 50.4297ZM81.1523 49.8438H81.0938V49.9609C81.2109 50.4297 81.3867 50.6641 81.6211 50.6641H81.6797L81.7969 50.5469V50.4883C81.7188 50.0586 81.5039 49.8438 81.1523 49.8438ZM77.7539 51.0742L77.9297 51.1914C78.5156 50.9961 78.8086 50.7422 78.8086 50.4297V50.3125H78.75C78.2031 50.3125 77.8711 50.5664 77.7539 51.0742ZM73.1836 52.3633H73.3008C73.6133 52.2461 73.7891 52.0508 73.8281 51.7773L73.7695 51.7188C73.3789 51.9531 73.1836 52.168 73.1836 52.3633ZM76.6406 52.6562H76.875C77.2656 52.3047 77.4609 52.0508 77.4609 51.8945H77.4023C76.8945 52.0508 76.6406 52.3047 76.6406 52.6562ZM60 53.1836H59.8242V53.418C59.9023 53.6133 60.2344 53.8281 60.8203 54.0625L61.0547 54.2383C60.625 53.5742 60.2734 53.2227 60 53.1836ZM64.1016 53.418H64.043V53.4766C64.043 53.6328 64.4531 53.8086 65.2734 54.0039L65.332 53.9453V53.8281C64.8242 53.5547 64.4141 53.418 64.1016 53.418ZM67.5586 54.0625H67.3828V54.2383H67.5586V54.0625ZM73.6523 54.9414C74.043 54.9414 74.3555 54.6484 74.5898 54.0625H74.4141C73.9062 54.3359 73.6523 54.6289 73.6523 54.9414ZM69.5508 55.5273L68.3203 55.4102H68.0859C67.7344 55.4102 67.5391 55.4883 67.5 55.6445V55.7617L67.7344 55.9375H68.7891C70 55.9375 71.4258 55.7227 73.0664 55.293C72.9883 55.0586 72.7539 54.9414 72.3633 54.9414H72.0703C71.1328 54.9414 70.293 55.1367 69.5508 55.5273Z" fill="#FFE54F"/>
<path d="M106.992 27.6953C108.516 27.6953 109.805 28.7695 110.859 30.918C111.055 30.918 111.328 31.1719 111.68 31.6797L112.441 36.0156C112.168 36.4844 111.133 36.7188 109.336 36.7188H108.75C107.305 36.4844 106.582 35.9961 106.582 35.2539C106.582 34.707 106.133 33.9453 105.234 32.9688C105.117 32.7734 104.277 32.6758 102.715 32.6758C101.23 32.6758 99.4336 33.0664 97.3242 33.8477C95.8398 35.4102 94.8633 36.6211 94.3945 37.4805C94.668 44.1602 94.7656 48.3398 94.6875 50.0195C94.6875 50.3711 94.9219 50.5469 95.3906 50.5469H96.7969C97.4219 50.5859 97.7344 50.7031 97.7344 50.8984V50.957L97.9688 51.7188L97.8516 55L97.5 55.4688L94.7461 55.7617H94.5117L93.3398 56.1133C88.8477 55.957 86.6016 55.7812 86.6016 55.5859C85.8203 55.5859 85.4297 55.2344 85.4297 54.5312C85.3516 53.8281 85.3125 53.1055 85.3125 52.3633C85.3125 51.6211 86.0742 51.1328 87.5977 50.8984C87.5977 50.5859 88.125 50.4297 89.1797 50.4297L89.3555 50.3711V50.2539L89.0039 34.1992C89.0039 33.2227 88.75 32.7344 88.2422 32.7344H87.8906C87.4219 32.7344 86.6406 32.9492 85.5469 33.3789L85.4297 33.2617V33.1445C85.4297 33.0664 85.5859 32.9688 85.8984 32.8516V32.7344C85.5078 32.7344 85.3125 31.6406 85.3125 29.4531C85.2344 29.4531 85.1758 29.1016 85.1367 28.3984C86.6992 27.1875 88.3398 26.582 90.0586 26.582H91.5234C92.1094 26.582 93.1055 26.7773 94.5117 27.168V27.3438C94.1602 27.8906 93.9844 28.2812 93.9844 28.5156V28.9258C97.1484 27.5195 101.484 27.1094 106.992 27.6953ZM91.6406 36.543V36.8359C91.8359 37.2266 91.9336 37.6367 91.9336 38.0664C91.8945 38.2227 91.8359 39.0234 91.7578 40.4688L91.875 42.8125H91.9336C92.0508 42.8125 92.207 40.9961 92.4023 37.3633C92.4805 37.3633 92.5195 36.9727 92.5195 36.1914C92.4805 35.8398 92.3828 35.6641 92.2266 35.6641H92.1094C91.7969 35.8594 91.6406 36.1523 91.6406 36.543ZM88.125 54.2383L87.3633 54.2969V54.4141C87.3633 54.6094 87.9297 54.707 89.0625 54.707H90.8203L91.2305 54.6484C91.2305 54.4531 90.1953 54.3164 88.125 54.2383ZM98.2617 30.2148V30.332C98.6133 30.332 99.082 29.7656 99.668 28.6328V28.3398H99.6094C98.5938 28.6523 98.1445 29.2773 98.2617 30.2148ZM105.82 32.0898H106.113C106.309 32.0508 106.68 31.582 107.227 30.6836V30.625C107.227 30.5469 107.148 30.5078 106.992 30.5078C106.328 30.8203 105.996 31.2305 105.996 31.7383C105.957 31.7383 105.898 31.8555 105.82 32.0898ZM92.3438 33.4375H92.1094L91.8164 34.668C91.8164 34.8633 91.9336 35.0586 92.168 35.2539H92.2266C92.3438 35.2539 92.4414 34.9805 92.5195 34.4336L92.3438 33.4375ZM100.488 28.9258L100.781 30.0977H101.25V28.8672L101.074 28.6914H100.898C100.625 28.7305 100.488 28.8086 100.488 28.9258ZM87.7148 53.3008L87.5977 53.418L87.6562 53.5352H90.8789V53.3594L88.8867 53.3008H87.7148ZM86.6602 28.8672C86.9727 29.1797 87.3047 29.3359 87.6562 29.3359L87.7148 29.2188V28.8086L87.4805 28.5156C86.9336 28.5938 86.6602 28.7109 86.6602 28.8672ZM92.5781 53.7109L92.7539 53.8867H93.6328L93.8672 53.6523C93.8672 53.5742 93.7695 53.4961 93.5742 53.418C92.9102 53.4961 92.5781 53.5938 92.5781 53.7109ZM109.453 30.4492H109.277V30.5664C109.59 30.8789 109.863 31.0352 110.098 31.0352H110.273V30.918C109.961 30.6055 109.688 30.4492 109.453 30.4492ZM89.3555 27.6953H89.1797V27.9297L89.5312 28.3398H90.0586V28.2227L89.3555 27.6953ZM87.5977 31.1523V31.2695H87.7734C88.2031 31.2695 88.4375 31.1914 88.4766 31.0352L88.3594 30.8594H88.2422C87.8906 30.8594 87.6758 30.957 87.5977 31.1523ZM102.598 28.3984L101.895 28.457V28.5156L102.012 28.6914H102.598C102.871 28.6914 103.027 28.6133 103.066 28.457L102.949 28.3984H102.598ZM93.3398 47.2656L93.1055 47.4414V47.9102H93.3398L93.5742 47.7344V47.3828L93.457 47.2656H93.3398ZM86.3086 53.6523L86.0742 53.418L85.957 53.6523V53.8867L86.0742 54.0625H86.3086V53.6523ZM94.5117 31.5039L94.2773 31.5625V31.7383L94.5117 31.9141H94.6875L94.8633 31.7383V31.5625L94.5117 31.5039ZM103.77 28.3398V28.457H104.18L104.414 28.2812L104.238 28.1055C103.926 28.1836 103.77 28.2617 103.77 28.3398ZM107.637 28.3398L107.52 28.457V28.5156L107.637 28.6914H107.871L107.988 28.5156V28.457L107.871 28.3398H107.637ZM93.3984 27.7539L93.1055 27.8711V28.1055H93.3984L93.5742 27.8711L93.3984 27.7539ZM93.2227 28.8086L92.9883 28.9844V29.1016L93.1055 29.2188L93.3984 28.9844V28.8086H93.2227ZM107.461 33.6719V33.7891H107.578L107.812 33.6133V33.4375H107.754C107.559 33.5547 107.461 33.6328 107.461 33.6719ZM105.469 28.5156L105.234 28.6914V28.75H105.527L105.645 28.6328V28.5156H105.469ZM93.3398 48.5547H93.2227V48.7891H93.3398V48.5547Z" fill="#87CD77"/>
<path d="M114.141 25.4688L114.258 25.3516C115.156 25.5078 116.094 25.5859 117.07 25.5859H121.875L122.051 25.7617C121.816 26.4648 121.699 27.0117 121.699 27.4023V28.3984C121.855 29.4922 122.168 30.0391 122.637 30.0391C122.871 29.6094 123.652 29.1992 124.98 28.8086C128.145 27.4414 130.723 26.7578 132.715 26.7578C134.043 26.7578 135.469 27.3438 136.992 28.5156C138.125 28.9453 139.219 29.8633 140.273 31.2695C141.875 33.8086 142.676 36.7969 142.676 40.2344V40.7031L142.266 44.9219L142.676 47.9688L142.09 50.7227V50.8398V51.3086L144.316 51.4258H145.312C145.977 51.4258 146.367 51.4844 146.484 51.6016C146.328 54.4531 146.035 55.8789 145.605 55.8789C144.824 56.3477 143.984 56.582 143.086 56.582H141.855C139.98 56.582 138.008 56.8359 135.938 57.3438C134.57 57.1484 133.887 56.4648 133.887 55.293L133.828 53.1836C133.828 51.8945 134.16 50.957 134.824 50.3711C135.176 48.457 135.586 46.7188 136.055 45.1562L136.406 39.9414C136.523 39.9414 136.582 39.5117 136.582 38.6523C136.582 37.5977 135.742 36.0938 134.062 34.1406C132.773 33.5938 132.031 33.3203 131.836 33.3203C129.57 33.3203 127.539 34.2773 125.742 36.1914C125.586 36.1914 124.629 37.1484 122.871 39.0625C122.324 39.4922 122.051 40.8008 122.051 42.9883C122.129 46.9336 122.266 48.9062 122.461 48.9062C124.023 49.1797 124.805 49.4727 124.805 49.7852V50.0195L123.516 49.9609L122.578 50.0195V50.2539C122.578 50.4102 123.32 50.6055 124.805 50.8398C125.078 51.1133 125.215 51.5625 125.215 52.1875V52.3047C125.215 53.2422 125.02 54.2383 124.629 55.293L117.832 55.3516C117.168 55.3516 116.68 55.0195 116.367 54.3555C116.211 53.6133 116.035 52.168 115.84 50.0195C115.84 49.8242 116.426 49.6094 117.598 49.375L117.891 48.9648V48.9062C117.891 48.6719 117.734 48.3398 117.422 47.9102V46.0938V42.7539L117.656 37.3633C117.656 33.6914 117.5 31.8555 117.188 31.8555H116.895L114.141 32.207C113.867 32.207 113.496 31.9727 113.027 31.5039V31.2695C113.223 30.957 113.32 30.625 113.32 30.2734L113.203 28.1055L114.141 25.4688ZM119.238 26.5234L114.434 27.2852V27.4023C114.434 27.5195 114.727 27.5977 115.312 27.6367C117.852 27.6367 119.121 27.4609 119.121 27.1094L119.355 26.7578V26.6406H119.238V26.5234ZM130.898 27.6367V27.6953C131.172 27.6953 131.641 27.9297 132.305 28.3984L132.949 28.5742L134.824 28.5156L134.883 28.3984V28.3398C134.844 28.1055 134.629 27.9883 134.238 27.9883H134.004L133.418 28.1055C132.559 27.5977 131.934 27.3438 131.543 27.3438C131.191 27.3438 130.977 27.4414 130.898 27.6367ZM126.914 28.6914V28.75L127.031 28.9258C128.867 28.457 129.785 28.1055 129.785 27.8711H129.668C128.809 27.8711 127.891 28.1445 126.914 28.6914ZM115.605 28.75L115.781 28.9258H115.898C116.406 28.8867 116.66 28.7695 116.66 28.5742L116.367 28.5156C115.859 28.5156 115.605 28.5938 115.605 28.75ZM116.133 29.9219V30.0391L117.246 29.9805H117.422C117.812 29.9805 118.047 30.0781 118.125 30.2734V30.4492C117.93 30.6445 117.832 30.8398 117.832 31.0352C118.027 31.1914 118.262 31.2695 118.535 31.2695C118.652 31.2695 118.711 31.1914 118.711 31.0352L118.77 29.1016L118.711 28.9258H118.535C118.301 29.082 117.52 29.3945 116.191 29.8633L116.133 29.9219ZM125.859 29.2773L125.918 29.3359V29.3945C126.27 29.2773 126.445 29.1797 126.445 29.1016V28.9844H126.328C126.016 29.0625 125.859 29.1602 125.859 29.2773ZM114.023 29.3359V29.3945C114.023 29.5117 114.121 29.6094 114.316 29.6875C114.629 29.6875 114.98 29.5117 115.371 29.1602V29.1016H114.434C114.16 29.1406 114.023 29.2188 114.023 29.3359ZM134.238 30.2734C134.238 30.4297 134.59 30.5469 135.293 30.625C135.449 30.5078 135.527 30.3516 135.527 30.1562C135.527 29.9609 135.215 29.8047 134.59 29.6875C134.355 29.8438 134.238 30.0391 134.238 30.2734ZM122.402 30.7422V30.9766C122.949 30.9766 123.535 30.625 124.16 29.9219V29.8633L124.102 29.8047H124.043C123.574 29.8047 123.027 30.1172 122.402 30.7422ZM136.465 29.9219L136.289 30.1562C136.367 30.3516 136.523 30.4492 136.758 30.4492H137.051L137.344 30.2148V30.1562C137.305 30 137.109 29.9219 136.758 29.9219H136.465ZM129.961 30.5078V30.625H130.254C130.84 30.5469 131.133 30.4297 131.133 30.2734V30.1562H130.723C130.215 30.1953 129.961 30.3125 129.961 30.5078ZM120.352 30.2148H120.059L119.941 30.5664V31.6211C119.941 32.0898 119.863 32.4023 119.707 32.5586V32.8516L119.941 33.6719V34.1406C119.941 34.4531 120.039 34.668 120.234 34.7852C120.273 34.7852 120.391 34.3359 120.586 33.4375C121.133 33.0078 121.406 32.6758 121.406 32.4414C121.406 32.2461 121.191 31.8164 120.762 31.1523C120.645 30.5273 120.508 30.2148 120.352 30.2148ZM114.492 31.1523V31.2695H115.078L115.312 31.0352V30.9766L115.02 30.8594C114.668 30.9766 114.492 31.0742 114.492 31.1523ZM135.469 31.3281L135.117 31.1523L135 31.2695V31.3281L135.293 31.5039H135.352L135.469 31.3281ZM130.957 31.7383L131.074 31.8555H131.133C131.992 31.8555 132.422 31.7773 132.422 31.6211L131.953 31.5039C131.289 31.582 130.957 31.6602 130.957 31.7383ZM122.461 34.0234V34.1992C123.477 34.082 124.883 33.2422 126.68 31.6797V31.6211H126.328C126.172 31.6211 125.703 31.8945 124.922 32.4414C123.281 32.9492 122.461 33.4766 122.461 34.0234ZM136.465 31.7383H136.406V31.9141C136.406 32.0312 136.66 32.5781 137.168 33.5547C137.168 33.8672 137.246 34.0234 137.402 34.0234L137.637 33.7891V33.5547C137.637 32.9297 137.246 32.3242 136.465 31.7383ZM118.242 32.4414L118.359 32.6172H118.477L118.652 31.8555H118.477C118.359 31.8555 118.281 32.0508 118.242 32.4414ZM133.008 32.8516V33.0273H134.473L134.707 32.8516V32.6172L134.414 32.4414H134.121C133.379 32.5586 133.008 32.6953 133.008 32.8516ZM127.207 33.7891C128.066 33.6328 128.496 33.418 128.496 33.1445L128.32 33.0273H128.145C127.559 33.0273 127.246 33.2812 127.207 33.7891ZM125.332 34.4922V34.6094H125.508C126.133 34.1016 126.445 33.6719 126.445 33.3203H126.328V33.2031C126.016 33.2031 125.684 33.6328 125.332 34.4922ZM120.82 33.9062L120.938 34.2578C120.938 34.5703 120.762 34.8828 120.41 35.1953C120.605 35.3906 120.703 35.5859 120.703 35.7812C120.703 37.7344 120.84 38.7109 121.113 38.7109H121.172C121.484 38.0078 121.641 37.0898 121.641 35.957C121.602 34.5117 121.426 33.75 121.113 33.6719H120.996C120.879 33.6719 120.82 33.75 120.82 33.9062ZM137.344 34.668V34.8438C137.812 36.6016 138.105 37.5195 138.223 37.5977L138.34 37.1875V36.6602C138.066 35.332 137.734 34.668 137.344 34.668ZM139.98 34.7852H139.922C140 36.8555 140.195 37.8906 140.508 37.8906H140.625C140.43 35.8203 140.215 34.7852 139.98 34.7852ZM124.629 34.9023L124.277 35.3711V35.4883L124.336 35.6055H124.629L124.805 34.9023H124.629ZM122.988 35.4883L122.871 35.6055L122.988 35.7812H123.223V35.6055L123.105 35.4883H122.988ZM139.57 42.4023V42.4609L139.746 43.1641H140.039C140 42.6562 139.844 42.4023 139.57 42.4023ZM137.344 46.6211L137.402 46.6797H137.461C137.578 46.6797 137.637 46.4844 137.637 46.0938V45.3906C137.48 45.3906 137.383 45.8008 137.344 46.6211ZM136.992 47.5586C137.227 47.832 137.344 48.2031 137.344 48.6719H137.461L137.637 47.9688V46.9727C137.207 46.9727 136.992 47.168 136.992 47.5586ZM139.57 47.0312H139.453V47.3242H139.57V47.0312ZM140.918 47.3242L140.801 48.4961V49.9609H140.859C141.367 49.3359 141.621 48.75 141.621 48.2031V48.1445C141.621 47.5977 141.387 47.3242 140.918 47.3242ZM139.395 50.0195V50.1367H139.453L139.688 49.4922V49.375H139.57C139.453 49.375 139.395 49.5898 139.395 50.0195ZM116.777 50.2539L116.66 50.4883V50.5469C116.738 51.25 116.992 51.6016 117.422 51.6016H117.773L117.949 51.4258V51.3086C117.598 50.8789 117.422 50.5273 117.422 50.2539H116.777ZM139.57 51.0742H139.336V51.3086L139.57 51.543L139.746 51.4258V51.3086L139.57 51.0742ZM142.734 52.4219V52.5977C144.492 52.5977 145.371 52.4609 145.371 52.1875V52.0703H144.551C143.34 52.1094 142.734 52.2266 142.734 52.4219ZM119.238 53.0078C119.238 53.2031 119.746 53.3008 120.762 53.3008C122.715 53.3008 123.691 53.2031 123.691 53.0078C123.691 52.7734 123.027 52.6562 121.699 52.6562C120.215 52.6562 119.395 52.7734 119.238 53.0078ZM135.117 53.1836H134.941V53.5352L135.117 53.7109H135.293L135.352 53.5352V53.4766L135.117 53.1836ZM143.262 53.6523V53.8281C143.34 54.0234 143.516 54.1211 143.789 54.1211C144.414 54.1211 144.785 53.9844 144.902 53.7109V53.5352C144.824 53.3008 144.609 53.1836 144.258 53.1836H143.965C143.574 53.1836 143.34 53.3398 143.262 53.6523ZM136.406 54.707C136.523 55.0195 136.719 55.1758 136.992 55.1758C139.102 55.1367 140.156 55 140.156 54.7656C139.883 54.4141 139.395 54.2383 138.691 54.2383C137.168 54.2773 136.406 54.4336 136.406 54.707ZM134.941 55.8203L134.707 56.0547V56.1719C134.707 56.4453 135.234 56.582 136.289 56.582H136.582L137.051 56.4648V56.4062C136.66 56.0156 136.035 55.8203 135.176 55.8203H134.941Z" fill="#669ACA"/>
<path d="M154.758 77.7656C156.841 78.2865 157.883 79.3607 157.883 80.9883L158.078 83.5273C158.078 83.918 155.409 84.4388 150.07 85.0898L149.777 85.4805V85.8711C149.777 86.5872 150.461 89.8099 151.828 95.5391V97.1016L151.535 101.398C152.967 110.773 153.684 121.581 153.684 133.82H153.879C159.478 133.82 162.277 134.439 162.277 135.676C162.863 138.996 163.156 141.079 163.156 141.926C163.156 143.163 161.008 143.781 156.711 143.781H154.855L154.367 143.879L153.879 143.781H152.805C149.484 143.781 147.824 143.488 147.824 142.902C147.238 139.777 146.945 137.499 146.945 136.066V134.602L147.336 132.453V132.258C146.945 130.695 146.75 129.621 146.75 129.035V128.352C146.424 121.971 146.262 117.544 146.262 115.07H146.066L125.852 114.582L125.461 115.07L125.559 118.977L125.461 130.012V133.332C125.461 134.96 125.656 136.62 126.047 138.312L125.461 140.168C125.852 140.949 126.047 141.535 126.047 141.926C126.047 143.814 124.777 144.758 122.238 144.758C117.876 144.758 115.109 144.367 113.938 143.586C111.529 142.935 110.324 141.958 110.324 140.656L111.105 136.457C111.366 136.262 111.822 136.164 112.473 136.164H115.012C116.574 136.164 117.355 135.969 117.355 135.578L117.453 134.602V129.816C117.453 119.204 117.225 111.132 116.77 105.598L116.867 101.301C116.607 101.301 116.281 96.4831 115.891 86.8477L115.109 86.5547H115.012C109.803 86.5547 107.199 86.2617 107.199 85.6758L106.223 83.4297C106.223 81.8672 108.827 81.0859 114.035 81.0859C117.03 80.8906 119.797 80.793 122.336 80.793L123.605 81.0859L123.117 82.3555L123.41 83.0391C122.954 83.4948 122.727 83.9505 122.727 84.4062V84.9922L124.387 105.012C124.387 106.118 124.647 106.672 125.168 106.672L145.578 107.355L145.773 106.965L145.383 101.984C145.383 101.594 145.578 101.073 145.969 100.422L145.578 99.9336V99.7383L145.773 99.3477V99.1523L145.383 96.418V93.293C144.862 89.6471 144.471 87.6289 144.211 87.2383C143.625 87.2383 142.941 85.2526 142.16 81.2812C142.355 79.7188 142.518 78.9375 142.648 78.9375C147.727 78.612 151.763 78.2214 154.758 77.7656ZM144.602 80.207L144.406 80.4023V80.5977C144.471 80.8581 144.699 80.9883 145.09 80.9883H145.578C146.164 80.9883 146.49 80.8581 146.555 80.5977C146.49 80.3372 146.229 80.207 145.773 80.207H144.602ZM145.578 82.0625L145.383 82.3555V82.5508L145.578 82.7461L145.969 82.5508V82.0625H145.578ZM108.664 83.4297L108.469 83.0391L108.273 83.2344V83.4297H108.664ZM120.969 88.4102H120.773V88.7031L120.969 88.9961H121.359V88.7031L120.969 88.4102ZM118.527 89.0938H118.039L117.941 90.2656L118.039 90.7539H118.527V89.875V89.7773V89.0938ZM150.07 96.8086L149.777 97.0039V97.2969L150.07 97.4922L150.363 97.2969V97.0039L150.07 96.8086ZM149.973 99.1523L150.07 99.543H150.363L150.461 99.25V98.3711L150.363 98.1758C150.103 98.1758 149.973 98.5013 149.973 99.1523ZM118.723 107.258H118.527V107.648C118.527 108.104 118.658 108.365 118.918 108.43H119.016L119.309 108.234C119.309 107.779 119.113 107.453 118.723 107.258ZM125.07 108.625H124.875V108.82L125.168 109.113H125.461V109.016L125.07 108.625ZM139.133 108.625H135.91V108.82L138.547 109.113H139.133L139.328 108.82L139.133 108.625ZM118.918 109.211L118.723 109.406V109.602H118.918L119.211 109.309V109.211H118.918ZM140.207 112.043L140.305 112.141H141.672L142.062 111.848L141.965 111.652H141.184C140.598 111.652 140.272 111.783 140.207 112.043ZM146.945 118L146.75 118.293V118.586L147.043 118.879H147.238V118.293L146.945 118ZM146.945 119.465L146.75 119.66V120.734H146.945L147.238 120.539V119.66L146.945 119.465ZM149.973 131.574L149.484 131.184V131.867L149.68 132.062L149.973 131.867V131.574ZM123.605 131.477H123.215V131.574C123.28 132.03 123.41 132.258 123.605 132.258H123.898L123.605 131.477ZM116.574 138.898H116.184V139.094H116.574V138.898ZM124.191 140.461L123.801 140.949V141.047L124.094 141.438H124.191L124.777 140.949V140.754L124.484 140.461H124.191ZM160.91 141.633L160.715 141.73V142.121H161.301V141.73L161.008 141.633H160.91ZM158.078 141.73L157.688 142.121L157.883 142.512H158.371C158.827 142.512 159.087 142.382 159.152 142.121L158.957 141.73H158.078Z" fill="#9751C5"/>
<path d="M177.121 90.0703L189.23 89.7773C190.272 89.7773 192.453 90.2331 195.773 91.1445C199.549 94.7253 201.796 97.5247 202.512 99.543C203.944 101.04 205.083 104.003 205.93 108.43C206.971 109.471 207.492 111.783 207.492 115.363L207.59 117.805L207.199 127.473C207.199 129.426 208.404 131.835 210.812 134.699C213.026 136.848 214.458 137.922 215.109 137.922V138.117C215.109 138.898 213.97 140.135 211.691 141.828C209.999 143.521 208.924 144.367 208.469 144.367H208.371C207.329 144.237 204.693 142.316 200.461 138.605C192.779 141.6 188.905 143.13 188.84 143.195C186.301 143.977 183.469 144.367 180.344 144.367H179.855C176.34 143.781 173.345 142.414 170.871 140.266C170.415 139.875 169.471 138.247 168.039 135.383C166.867 133.951 166.281 132.193 166.281 130.109V127.277C166.281 125.454 166.77 123.762 167.746 122.199C168.592 119.53 170.057 116.991 172.141 114.582C173.182 113.345 174.224 112.564 175.266 112.238C178.651 110.415 182.004 109.504 185.324 109.504L189.719 109.406H190.305C192.779 109.406 194.536 109.764 195.578 110.48H196.164C196.49 110.48 196.652 110.35 196.652 110.09C195.936 107.03 194.764 104.1 193.137 101.301C191.704 98.8919 189.035 97.6875 185.129 97.6875L181.125 97.1016C177.674 97.8177 175.949 98.5339 175.949 99.25C174.582 101.008 173.768 103.189 173.508 105.793C173.378 106.118 172.206 106.281 169.992 106.281L169.406 106.477C169.146 106.477 168.82 107.03 168.43 108.137C166.607 107.876 165.695 107.486 165.695 106.965C165.826 106.574 166.053 104.23 166.379 99.9336C167.421 96.9388 169.895 94.1719 173.801 91.6328C175.624 90.5911 176.73 90.0703 177.121 90.0703ZM188.059 91.7305L187.863 92.0234L188.156 92.4141H188.742L188.84 92.2188L188.547 91.7305H188.059ZM195.48 92.5117H195.285V92.707C195.806 93.2279 196.262 93.4883 196.652 93.4883H196.75V93.293C196.229 92.7721 195.806 92.5117 195.48 92.5117ZM179.855 93V93.293C179.921 93.4883 180.246 93.5859 180.832 93.5859C181.418 93.5859 182.232 93.3906 183.273 93V92.6094H182.883C181.451 92.6094 180.441 92.7396 179.855 93ZM171.066 96.125V96.3203H171.164C171.75 96.3203 172.629 95.7018 173.801 94.4648V94.1719H173.703C173.052 94.1719 172.173 94.8229 171.066 96.125ZM184.641 95.4414L184.152 95.832L184.445 96.3203H185.715L186.008 96.0273L185.422 95.4414H184.641ZM170.285 103.352L169.992 103.547V105.012H170.09C170.35 104.947 170.48 104.719 170.48 104.328V103.547L170.285 103.352ZM205.734 111.164H205.637V111.359C205.767 111.88 205.897 112.141 206.027 112.141L206.125 111.652C205.995 111.327 205.865 111.164 205.734 111.164ZM203.488 114.582L203.195 114.777V115.07C203.456 116.047 203.716 116.535 203.977 116.535H204.172C204.172 115.689 203.977 115.038 203.586 114.582H203.488ZM174.875 115.168L173.801 115.656V116.145H173.996C174.452 116.145 174.777 115.884 174.973 115.363V115.168H174.875ZM173.801 124.445C174.257 128.352 174.81 130.305 175.461 130.305L176.438 131.574V131.672L175.559 131.574V131.867C176.796 133.56 179.335 135.122 183.176 136.555C183.632 136.815 184.283 137.01 185.129 137.141C186.301 137.141 190.793 135.22 198.605 131.379C199.126 131.053 199.387 130.695 199.387 130.305V129.816C198.801 127.147 198.312 124.022 197.922 120.441L197.727 120.344C197.727 119.628 197.01 119.042 195.578 118.586C190.76 117.219 187.473 116.535 185.715 116.535C180.767 117.642 177.382 119.302 175.559 121.516C174.387 122.688 173.801 123.664 173.801 124.445ZM203.195 118.098L202.902 117.902V118.195H203.195V118.098ZM203.586 119.953H203V120.344L203.293 120.637L203.586 120.344V119.953ZM200.461 122.395L200.168 122.688L200.461 123.078L200.852 122.98V122.688L200.559 122.395H200.461ZM203.977 122.688H203.684V122.785C203.814 125.259 204.074 126.496 204.465 126.496L204.66 126.301V126.105C204.66 124.738 204.432 123.599 203.977 122.688ZM200.168 125.812L200.07 125.91V126.496L200.363 126.887H200.461L200.852 126.496V125.91L200.559 125.812H200.168ZM208.469 134.992H208.176V135.578C208.436 136.424 208.729 136.848 209.055 136.848H209.348V136.555C209.087 135.513 208.794 134.992 208.469 134.992ZM172.531 135.285L172.336 135.48V135.578L172.531 135.773H173.02V135.578L172.727 135.285H172.531ZM205.441 136.555L205.148 136.848C205.344 137.303 205.604 137.596 205.93 137.727H206.027L206.418 137.336V137.141L205.93 136.555H205.441ZM191.281 137.922V138.117H191.672C192.583 138.117 193.788 137.727 195.285 136.945V136.848H194.895C192.681 137.108 191.477 137.466 191.281 137.922ZM207.59 138.215L207.395 138.605V138.801L207.785 139.191H208.176L208.469 138.996V138.801L207.98 138.215H207.59ZM183.469 138.996L183.176 139.289C183.306 139.615 183.566 139.777 183.957 139.777C184.673 139.647 185.031 139.484 185.031 139.289V139.191L184.738 138.996H183.469ZM172.824 140.363L172.531 140.754C172.792 141.34 174.419 142.089 177.414 143C178.391 143.456 179.693 143.684 181.32 143.684V143.586C181.32 143.391 180.083 143.033 177.609 142.512C176.177 142.121 174.68 141.405 173.117 140.363H172.824Z" fill="#FF5D4F"/>
<path d="M221.164 70.0508L222.629 69.6602L226.73 70.7344L233.078 70.4414C234.706 70.4414 235.52 70.9297 235.52 71.9062C235.129 74.3802 234.934 77.668 234.934 81.7695V97.1016L234.836 111.848L234.934 115.754L234.445 134.309C236.659 134.895 240.012 135.318 244.504 135.578L244.602 135.676V137.043C244.602 137.368 244.96 137.889 245.676 138.605C244.96 140.168 244.146 142.479 243.234 145.539L242.355 146.223H242.062C241.672 145.637 240.858 145.344 239.621 145.344L223.605 143.195C218.788 143.195 216.379 142.902 216.379 142.316C217.16 140.754 217.746 138.215 218.137 134.699H218.234V134.602L219.211 134.699H220.188C220.513 134.504 221.457 134.243 223.02 133.918C223.671 134.243 224.159 134.406 224.484 134.406H225.656C226.307 134.406 226.633 133.755 226.633 132.453C226.763 130.891 227.089 123.762 227.609 111.066C227.154 107.16 226.763 96.418 226.438 78.8398C226.177 78.3841 225.852 78.1562 225.461 78.1562L221.066 78.4492C220.285 78.3841 219.895 78.1237 219.895 77.668C220.155 72.5898 220.578 70.0508 221.164 70.0508ZM222.141 71.9062L221.555 72.1016V72.2969C221.555 72.8828 221.88 73.1758 222.531 73.1758H222.824C223.54 73.1758 224.257 72.8177 224.973 72.1016V71.9062H222.141ZM227.121 71.9062L226.926 72.1992L227.707 72.3945H228.684L229.074 72.1016V71.9062H227.121ZM230.246 75.7148V75.8125L230.539 76.1055H230.93C231.516 75.7148 232.232 75.3242 233.078 74.9336C233.404 74.4128 233.566 74.0221 233.566 73.7617L233.371 73.5664H233.078C232.492 73.5664 231.906 73.9245 231.32 74.6406C230.604 74.8359 230.246 75.194 230.246 75.7148ZM221.652 74.1523L221.164 74.6406V75.3242L221.555 75.7148H223.508H224.191V75.3242L222.434 74.543L221.848 74.1523H221.652ZM229.27 82.0625L229.074 82.3555V82.7461L229.27 83.0391H229.465L229.562 82.7461V82.3555L229.465 82.0625H229.27ZM229.074 87.5312L228.781 87.8242V88.0195H229.27V87.5312H229.074ZM233.371 94.2695H233.078V94.3672L233.469 94.8555H233.566V94.5625L233.371 94.2695ZM233.566 96.0273L233.176 95.7344L233.078 97.6875V98.8594H233.176C233.436 98.8594 233.566 98.4036 233.566 97.4922V96.0273ZM228.488 98.2734V98.6641L228.684 98.8594L228.879 98.6641V98.1758L228.781 97.9805C228.781 97.9154 229.042 97.7201 229.562 97.3945V97.1016H229.172C228.716 97.362 228.488 97.7526 228.488 98.2734ZM233.469 99.543H233.078V100.324H233.176L233.469 100.129V99.543ZM229.855 110.676V110.969H230.051C230.376 110.969 230.539 109.634 230.539 106.965C230.409 106.965 230.181 108.202 229.855 110.676ZM232.102 115.266L231.906 115.461L231.711 121.613V129.816L231.906 133.625L232.004 133.723H232.688C232.948 133.723 233.078 133.43 233.078 132.844C233.013 121.125 232.688 115.266 232.102 115.266ZM228.098 129.816V130.207C228.098 130.663 228.228 130.891 228.488 130.891L228.879 130.305V129.621C228.749 128.84 228.618 128.449 228.488 128.449C228.228 128.449 228.098 128.905 228.098 129.816ZM222.238 136.164L222.043 136.457C222.043 136.978 222.271 137.238 222.727 137.238H222.824V136.457L222.531 136.164H222.238ZM241.477 136.164L240.891 136.262V136.457C240.956 136.848 241.509 137.043 242.551 137.043L243.039 136.652V136.262L242.453 136.164H241.477ZM219.406 136.457L219.211 136.75V137.043L219.602 137.238L219.797 136.848L219.699 136.457H219.406ZM224.191 137.531V137.629L224.68 137.727H225.266L225.656 137.531V137.238H224.973H224.875C224.419 137.238 224.191 137.336 224.191 137.531ZM241.867 139.094L236.301 138.898V138.996C236.301 139.387 237.408 139.615 239.621 139.68H242.16L242.844 139.484V139.191L241.867 139.094ZM223.508 139.191L223.215 139.68L223.41 139.973H224.875C225.917 139.973 226.438 139.875 226.438 139.68V139.484C225.721 139.289 224.81 139.191 223.703 139.191H223.508ZM238.742 141.633L239.133 141.73H241.086C241.672 141.73 241.997 141.633 242.062 141.438V141.145L241.477 141.047H240.012C239.165 141.112 238.742 141.307 238.742 141.633ZM218.234 141.145L217.941 141.633L218.234 141.73H218.723L219.016 141.633L218.625 141.145H218.234ZM241.574 143.488H240.988V143.879L241.574 144.074H241.867L242.453 143.879V143.488H241.867H241.574Z" fill="#FF8C4F"/>
<path d="M263.742 93.293C264.458 93.4232 264.816 93.5208 264.816 93.5859L264.426 94.2695V94.3672H264.621L269.602 94.2695C275.266 94.2695 279.042 95.7018 280.93 98.5664C282.427 100.52 283.241 101.659 283.371 101.984L283.762 102.082C284.413 102.082 288.091 100.324 294.797 96.8086C295.708 96.3529 296.457 96.125 297.043 96.125C299.712 96.125 302.479 97.1341 305.344 99.1523C310.878 103.514 313.645 107.225 313.645 110.285C314.23 111.522 315.24 118.195 316.672 130.305V132.941C316.672 133.527 316.835 133.885 317.16 134.016H317.551C318.072 134.016 319.113 133.755 320.676 133.234C321.717 133.234 322.238 135.155 322.238 138.996C322.368 140.949 322.434 142.414 322.434 143.391H321.066C318.332 143.846 315.923 144.074 313.84 144.074L310.715 143.684L305.051 143.879H304.074C303.944 143.879 303.879 143.618 303.879 143.098L302.609 141.828V141.73L302.902 140.754V140.559L302.414 137.922V136.652C302.414 135.806 303.065 135.383 304.367 135.383C306.711 135.643 307.688 134.764 307.297 132.746C307.232 127.668 307.427 123.859 307.883 121.32V121.125L307.688 115.266C307.688 114.224 306.809 113.02 305.051 111.652L304.27 111.457H303.586L302.805 111.848C302.674 111.848 302.609 111.555 302.609 110.969C301.112 109.016 298.703 108.039 295.383 108.039C291.151 108.43 288.612 109.699 287.766 111.848C287.635 112.434 287.505 113.964 287.375 116.438L287.57 118.684V125.715L287.473 128.547C287.473 131.477 288.286 133.169 289.914 133.625C290.63 133.755 290.988 133.983 290.988 134.309C290.272 137.564 289.816 139.354 289.621 139.68L287.18 140.168L278.879 139.484L277.902 139.68C276.796 139.68 276.242 138.02 276.242 134.699V134.309C276.242 133.918 277.219 133.43 279.172 132.844C279.693 132.844 279.953 132.583 279.953 132.062C279.628 130.435 279.465 128.612 279.465 126.594L279.66 115.852C279.27 114.419 279.074 113.28 279.074 112.434C279.139 110.806 279.367 109.992 279.758 109.992L280.637 110.48H280.734V110.285C280.734 108.853 278.521 106.802 274.094 104.133C272.922 103.677 271.75 103.449 270.578 103.449C268.755 103.449 266.704 104.263 264.426 105.891L264.328 106.379V114.289L264.621 134.699L265.012 135.09H265.402C265.598 135.09 265.728 134.862 265.793 134.406H265.988C267.746 134.406 268.82 134.862 269.211 135.773V136.555L269.309 138.898C269.439 141.568 268.755 142.902 267.258 142.902C266.867 143.033 265.109 143.163 261.984 143.293L249.289 142.512C248.638 142.512 248.02 140.526 247.434 136.555V136.457C247.434 135.871 248.768 135.188 251.438 134.406C251.438 133.951 252.74 133.527 255.344 133.137C255.799 133.072 256.027 132.746 256.027 132.16L256.711 109.309L256.906 103.938C256.906 103.352 256.288 103.059 255.051 103.059C253.814 103.059 252.284 103.221 250.461 103.547C249.354 102.961 248.801 102.342 248.801 101.691C249.322 101.366 249.582 100.845 249.582 100.129V99.3477C249.257 97.6549 248.866 96.8086 248.41 96.8086L248.312 96.7109V96.5156C248.703 96.2552 249.159 95.6367 249.68 94.6602C254.042 94.0742 258.729 93.6185 263.742 93.293ZM259.543 102.18V107.062C259.543 108.039 259.348 109.016 258.957 109.992L259.641 110.969L259.445 112.531V113.508L259.641 113.703H259.738C260.259 113.703 260.552 110.155 260.617 103.059V102.961C260.617 102.18 260.389 101.659 259.934 101.398C259.673 101.464 259.543 101.724 259.543 102.18ZM250.559 100.324C250.559 100.975 251.145 101.301 252.316 101.301C253.814 101.301 255.344 100.812 256.906 99.8359V99.543H256.516C252.544 99.543 250.559 99.8034 250.559 100.324ZM266.77 99.1523V99.25L271.848 98.6641C273.28 98.6641 274.745 99.3151 276.242 100.617H276.535V100.227C276.145 98.8594 275.461 98.1758 274.484 98.1758H273.605C269.113 98.1758 266.835 98.5013 266.77 99.1523ZM299.289 97.4922C298.898 97.6875 298.703 97.8503 298.703 97.9805C298.703 98.1107 299.257 98.3385 300.363 98.6641C300.949 99.5104 301.665 99.9336 302.512 99.9336H304.367V99.6406C304.367 98.9896 302.707 98.2734 299.387 97.4922H299.289ZM253.684 138.02L253.391 138.312C253.391 139.159 254.53 139.322 256.809 138.801C257.069 139.257 257.427 139.484 257.883 139.484C259.51 139.419 261.203 139.257 262.961 138.996V138.605L260.422 138.508C258.794 138.638 256.841 138.573 254.562 138.312L254.074 138.02H253.684ZM269.211 100.617C269.211 100.812 270.122 101.138 271.945 101.594C273.182 102.245 274.257 102.57 275.168 102.57H275.266L275.461 102.277C273.964 100.975 272.303 100.324 270.48 100.324H269.895C269.439 100.389 269.211 100.487 269.211 100.617ZM301.242 105.598L300.949 105.891C302.382 107.453 303.716 108.234 304.953 108.234L305.246 108.039V107.551C304.79 106.965 304.074 106.314 303.098 105.598H301.242ZM296.945 102.082V102.277C297.141 102.603 297.336 102.766 297.531 102.766C300.201 102.766 301.633 102.603 301.828 102.277C301.633 101.691 300.591 101.398 298.703 101.398H298.508C297.531 101.398 297.01 101.626 296.945 102.082ZM310.129 120.148H309.543L309.348 120.539L309.641 124.25V124.543L309.934 124.934H310.129L310.617 124.445V120.637L310.129 120.148ZM250.168 136.066H249.875C249.875 136.652 249.615 137.206 249.094 137.727C249.549 139.94 250.038 141.047 250.559 141.047H250.852L250.266 136.164L250.168 136.066ZM281.516 118.977L281.32 119.855V123.469L281.516 125.227H281.809C282.069 124.641 282.199 123.827 282.199 122.785C282.069 120.246 281.841 118.977 281.516 118.977ZM264.035 96.418V96.5156L264.426 96.7109L270.773 95.5391V95.3438H267.844C265.305 95.3438 264.035 95.7018 264.035 96.418ZM284.543 103.645V104.523L284.934 104.816C285.715 104.816 286.724 104.23 287.961 103.059H285.52C285.064 103.059 284.738 103.254 284.543 103.645ZM262.375 105.891H262.18C262.049 106.932 261.984 108.039 261.984 109.211V110.48L262.18 110.969C262.635 110.969 262.863 110.09 262.863 108.332V107.551C262.863 106.444 262.701 105.891 262.375 105.891ZM306.418 103.645H306.125V104.23C306.385 105.012 307.004 105.793 307.98 106.574V106.867H308.664V106.672C308.664 105.956 307.915 104.947 306.418 103.645ZM291.281 100.617V100.812H291.379C291.77 100.812 292.876 100.064 294.699 98.5664V98.1758C292.421 98.8919 291.281 99.7057 291.281 100.617ZM310.324 137.629V137.922H311.594C313.482 137.922 314.426 137.727 314.426 137.336L314.035 137.141H313.84C311.496 137.141 310.324 137.303 310.324 137.629ZM306.418 139.094V139.289H308.957C309.608 139.289 309.999 139.126 310.129 138.801C310.064 138.54 309.803 138.41 309.348 138.41H307.883C307.557 138.41 307.069 138.638 306.418 139.094ZM309.836 113.605L311.008 115.363H311.398V114.68V113.898C311.398 113.508 311.301 113.247 311.105 113.117H310.227C310.096 113.117 309.966 113.28 309.836 113.605ZM259.543 132.062H257.492C257.557 133.104 257.688 133.625 257.883 133.625H258.176C259.022 133.625 259.478 133.104 259.543 132.062ZM252.707 97.4922L250.852 97.6875V97.9805L251.145 98.1758C253.814 98.1758 255.148 98.0456 255.148 97.7852L254.855 97.4922H252.707ZM251.633 135.578L251.73 137.043H251.926C252.382 136.392 253.033 135.904 253.879 135.578V135.285L253 135.09H252.023C251.763 135.09 251.633 135.253 251.633 135.578ZM264.426 138.215L264.035 138.508C264.035 139.094 264.654 139.419 265.891 139.484L266.379 139.094V138.703C266.379 138.378 265.728 138.215 264.426 138.215ZM262.961 134.113L261.008 132.453V132.648C261.008 133.951 261.398 134.602 262.18 134.602H262.766C262.896 134.602 262.961 134.439 262.961 134.113ZM278.977 102.277H278.879V102.375C278.879 103.026 279.465 103.612 280.637 104.133V103.059C280.637 102.928 280.083 102.668 278.977 102.277ZM308.371 109.309H308.176V109.504C308.697 111.262 309.185 112.141 309.641 112.141V111.945C309.641 111.034 309.217 110.155 308.371 109.309ZM274.484 96.418H273.898V96.7109C275.396 97.0365 276.34 97.1992 276.73 97.1992H276.926V97.0039C276.926 96.6133 276.112 96.418 274.484 96.418ZM278.684 99.9336H278.488V100.324C279.074 101.236 279.595 101.822 280.051 102.082H280.344V101.984C280.018 101.203 279.465 100.52 278.684 99.9336ZM265.402 137.336L262.863 137.531V137.922H264.719L266.184 137.727V137.336H265.402ZM288.547 101.789L288.645 101.984H289.23C290.077 101.919 290.5 101.626 290.5 101.105L290.207 101.008C289.23 101.203 288.677 101.464 288.547 101.789ZM313.156 134.211V134.406L313.449 134.699H313.742L314.133 134.211V133.723L313.938 133.332H313.547C313.286 133.527 313.156 133.82 313.156 134.211ZM256.906 136.262L256.125 136.457V136.75L256.906 136.848H257.688L258.273 136.75V136.457L257.688 136.262H256.906ZM315.793 137.531L315.891 137.629H316.281C316.607 137.629 316.835 137.531 316.965 137.336V137.238C316.965 136.717 316.867 136.457 316.672 136.457C316.411 136.457 316.118 136.815 315.793 137.531ZM254.758 95.3438L255.051 95.7344C256.353 95.6042 257.004 95.4089 257.004 95.1484L256.516 95.0508C255.344 95.1159 254.758 95.2135 254.758 95.3438ZM319.016 135.48L318.625 135.773V136.945L319.016 137.336C319.211 137.336 319.309 136.815 319.309 135.773L319.211 135.48H319.016ZM263.645 141.047V141.242L263.938 141.438C264.523 141.177 264.979 140.852 265.305 140.461V140.266C264.719 140.266 264.165 140.526 263.645 141.047ZM284.641 109.211L284.543 109.504C284.673 110.025 284.803 110.285 284.934 110.285H285.031L285.617 109.797V109.504C285.552 109.309 285.227 109.211 284.641 109.211ZM263.938 101.984V102.18H264.328C265.174 102.115 265.598 101.952 265.598 101.691V101.398H264.816C264.23 101.529 263.938 101.724 263.938 101.984ZM284.348 133.332L283.957 133.82L284.25 134.113H284.934L285.324 133.723V133.625L285.031 133.332H284.348ZM298.898 98.957H298.312V99.25C298.312 99.4453 298.638 99.543 299.289 99.543H299.68L299.875 99.3477C299.81 99.0872 299.484 98.957 298.898 98.957ZM262.375 113.508L262.18 113.703V114.289L262.57 114.68H262.766L262.961 114.484V113.996L262.473 113.508H262.375ZM262.375 94.3672L262.18 94.6602V94.9531L262.473 95.2461C262.928 95.2461 263.156 95.0182 263.156 94.5625L263.059 94.3672H262.375ZM277.316 100.422L277.121 100.617C277.121 101.268 277.414 101.594 278 101.594V101.398C278 100.943 277.772 100.617 277.316 100.422ZM281.809 107.258H281.613C281.613 107.779 281.874 108.039 282.395 108.039H282.59V107.648C282.525 107.388 282.264 107.258 281.809 107.258ZM282.199 137.531L281.906 137.922V138.117L282.492 138.215L283.078 138.117V137.922L282.785 137.531H282.199ZM267.062 135.578H266.379V136.164L267.062 136.262L267.355 135.871L267.062 135.578ZM252.316 138.801H252.121V139.484L252.316 139.777H252.609V139.094L252.316 138.801ZM309.934 128.547L309.641 128.84V129.23L309.836 129.426H310.129V128.547H309.934ZM262.18 96.2227L261.984 96.5156V96.7109L262.18 96.9062H262.375L262.766 96.7109L262.57 96.2227H262.18ZM310.324 131.184L309.934 131.672V131.77L310.324 132.16L310.617 131.77V131.574L310.324 131.184ZM264.328 99.1523L263.938 98.957L263.742 99.3477L263.938 99.543H264.035L264.328 99.3477V99.1523ZM284.738 131.281L284.543 131.574V131.867L284.934 131.965L285.031 131.574L284.934 131.281H284.738ZM259.738 114.289H259.641V114.68L259.934 114.973H260.031V114.484L259.738 114.289ZM258.957 98.6641L258.762 98.957V99.1523H258.957L259.348 98.8594V98.6641H258.957ZM262.375 138.02H262.57V137.922C262.505 137.922 262.44 137.954 262.375 138.02Z" fill="#FFE54F"/>
<path d="M339.133 90.0703L351.242 89.7773C352.284 89.7773 354.465 90.2331 357.785 91.1445C361.561 94.7253 363.807 97.5247 364.523 99.543C365.956 101.04 367.095 104.003 367.941 108.43C368.983 109.471 369.504 111.783 369.504 115.363L369.602 117.805L369.211 127.473C369.211 129.426 370.415 131.835 372.824 134.699C375.038 136.848 376.47 137.922 377.121 137.922V138.117C377.121 138.898 375.982 140.135 373.703 141.828C372.01 143.521 370.936 144.367 370.48 144.367H370.383C369.341 144.237 366.704 142.316 362.473 138.605C354.79 141.6 350.917 143.13 350.852 143.195C348.312 143.977 345.48 144.367 342.355 144.367H341.867C338.352 143.781 335.357 142.414 332.883 140.266C332.427 139.875 331.483 138.247 330.051 135.383C328.879 133.951 328.293 132.193 328.293 130.109V127.277C328.293 125.454 328.781 123.762 329.758 122.199C330.604 119.53 332.069 116.991 334.152 114.582C335.194 113.345 336.236 112.564 337.277 112.238C340.663 110.415 344.016 109.504 347.336 109.504L351.73 109.406H352.316C354.79 109.406 356.548 109.764 357.59 110.48H358.176C358.501 110.48 358.664 110.35 358.664 110.09C357.948 107.03 356.776 104.1 355.148 101.301C353.716 98.8919 351.047 97.6875 347.141 97.6875L343.137 97.1016C339.686 97.8177 337.961 98.5339 337.961 99.25C336.594 101.008 335.78 103.189 335.52 105.793C335.389 106.118 334.217 106.281 332.004 106.281L331.418 106.477C331.158 106.477 330.832 107.03 330.441 108.137C328.618 107.876 327.707 107.486 327.707 106.965C327.837 106.574 328.065 104.23 328.391 99.9336C329.432 96.9388 331.906 94.1719 335.812 91.6328C337.635 90.5911 338.742 90.0703 339.133 90.0703ZM350.07 91.7305L349.875 92.0234L350.168 92.4141H350.754L350.852 92.2188L350.559 91.7305H350.07ZM357.492 92.5117H357.297V92.707C357.818 93.2279 358.273 93.4883 358.664 93.4883H358.762V93.293C358.241 92.7721 357.818 92.5117 357.492 92.5117ZM341.867 93V93.293C341.932 93.4883 342.258 93.5859 342.844 93.5859C343.43 93.5859 344.243 93.3906 345.285 93V92.6094H344.895C343.462 92.6094 342.453 92.7396 341.867 93ZM333.078 96.125V96.3203H333.176C333.762 96.3203 334.641 95.7018 335.812 94.4648V94.1719H335.715C335.064 94.1719 334.185 94.8229 333.078 96.125ZM346.652 95.4414L346.164 95.832L346.457 96.3203H347.727L348.02 96.0273L347.434 95.4414H346.652ZM332.297 103.352L332.004 103.547V105.012H332.102C332.362 104.947 332.492 104.719 332.492 104.328V103.547L332.297 103.352ZM367.746 111.164H367.648V111.359C367.779 111.88 367.909 112.141 368.039 112.141L368.137 111.652C368.007 111.327 367.876 111.164 367.746 111.164ZM365.5 114.582L365.207 114.777V115.07C365.467 116.047 365.728 116.535 365.988 116.535H366.184C366.184 115.689 365.988 115.038 365.598 114.582H365.5ZM336.887 115.168L335.812 115.656V116.145H336.008C336.464 116.145 336.789 115.884 336.984 115.363V115.168H336.887ZM335.812 124.445C336.268 128.352 336.822 130.305 337.473 130.305L338.449 131.574V131.672L337.57 131.574V131.867C338.807 133.56 341.346 135.122 345.188 136.555C345.643 136.815 346.294 137.01 347.141 137.141C348.312 137.141 352.805 135.22 360.617 131.379C361.138 131.053 361.398 130.695 361.398 130.305V129.816C360.812 127.147 360.324 124.022 359.934 120.441L359.738 120.344C359.738 119.628 359.022 119.042 357.59 118.586C352.772 117.219 349.484 116.535 347.727 116.535C342.779 117.642 339.393 119.302 337.57 121.516C336.398 122.688 335.812 123.664 335.812 124.445ZM365.207 118.098L364.914 117.902V118.195H365.207V118.098ZM365.598 119.953H365.012V120.344L365.305 120.637L365.598 120.344V119.953ZM362.473 122.395L362.18 122.688L362.473 123.078L362.863 122.98V122.688L362.57 122.395H362.473ZM365.988 122.688H365.695V122.785C365.826 125.259 366.086 126.496 366.477 126.496L366.672 126.301V126.105C366.672 124.738 366.444 123.599 365.988 122.688ZM362.18 125.812L362.082 125.91V126.496L362.375 126.887H362.473L362.863 126.496V125.91L362.57 125.812H362.18ZM370.48 134.992H370.188V135.578C370.448 136.424 370.741 136.848 371.066 136.848H371.359V136.555C371.099 135.513 370.806 134.992 370.48 134.992ZM334.543 135.285L334.348 135.48V135.578L334.543 135.773H335.031V135.578L334.738 135.285H334.543ZM367.453 136.555L367.16 136.848C367.355 137.303 367.616 137.596 367.941 137.727H368.039L368.43 137.336V137.141L367.941 136.555H367.453ZM353.293 137.922V138.117H353.684C354.595 138.117 355.799 137.727 357.297 136.945V136.848H356.906C354.693 137.108 353.488 137.466 353.293 137.922ZM369.602 138.215L369.406 138.605V138.801L369.797 139.191H370.188L370.48 138.996V138.801L369.992 138.215H369.602ZM345.48 138.996L345.188 139.289C345.318 139.615 345.578 139.777 345.969 139.777C346.685 139.647 347.043 139.484 347.043 139.289V139.191L346.75 138.996H345.48ZM334.836 140.363L334.543 140.754C334.803 141.34 336.431 142.089 339.426 143C340.402 143.456 341.704 143.684 343.332 143.684V143.586C343.332 143.391 342.095 143.033 339.621 142.512C338.189 142.121 336.691 141.405 335.129 140.363H334.836Z" fill="#87CD77"/>
<path d="M168.57 26.5725C170.759 24.8018 176.112 24.8847 179.929 25.1336C183.747 25.3825 192.195 25.5709 193.347 26.7726C194.498 27.9744 194.431 29.2681 194.298 30.9271C194.198 32.1704 193.29 34.1025 193.347 36.072C193.747 50.0196 193.374 55.0849 191.073 53.5712C188.681 51.9977 190.096 43.9312 191.073 37.9143C191.515 32.9911 189.78 30.5001 188.538 32.0265C185.225 36.1 190.3 48.6823 186.296 45.2848C183.752 43.126 186.609 38.9861 183.859 37.0959C179.877 34.3585 185.66 46.4917 181.714 49.2818C176.624 52.8819 184.832 32.0499 178.79 33.5863C173.252 34.9945 180.486 51.9606 176.353 48.0144C173.365 45.1618 177.659 34.8093 174.598 37.5833C172.49 39.494 174.909 42.5568 173.038 44.6999C170.165 47.9901 173.879 37.4118 171.771 33.5863C170.005 30.3837 169.538 34.1944 169.664 39.1699C169.775 43.5561 171.867 48.3928 169.333 51.0365C166.59 53.899 167.345 40.7334 167.52 37.7306C167.678 35.0075 167.113 32.7227 167.018 30.9271C166.923 29.1243 167.166 27.708 168.57 26.5725Z" fill="#EA5143"/>
<path d="M194.298 30.927C194.431 29.2679 194.499 27.9742 193.347 26.7725C194.629 30.1171 192.476 30.9469 192.476 36.0718C192.476 44.1897 192.952 51.2178 191.073 53.571C193.374 55.0847 193.747 50.0194 193.347 36.0718C193.291 34.1023 194.199 32.1702 194.298 30.927Z" fill="#BD372B"/>
<path d="M186.297 45.2847C188.111 44.2809 185.566 34.0393 188.539 32.0264C185.225 36.0998 190.301 48.6822 186.297 45.2847Z" fill="#BD372B"/>
<path d="M181.714 49.2819C183.859 44.7848 180.086 33.8238 183.859 37.096C179.877 34.3586 185.659 46.4919 181.714 49.2819Z" fill="#BD372B"/>
<path d="M176.353 48.0148C178.458 46.7828 173.402 34.5909 178.79 33.5864C173.252 34.9946 180.486 51.961 176.353 48.0148Z" fill="#BD372B"/>
<path d="M173.038 44.6977C173.788 42.8071 172.359 37.9879 174.598 37.5811C172.49 39.4917 174.909 42.5546 173.038 44.6977Z" fill="#BD372B"/>
<path d="M169.664 39.1705C169.538 34.195 170.005 30.3843 171.77 33.5869C169.76 29.6783 169.15 32.727 168.855 38.3352C168.615 42.9002 169.897 47.5455 169.333 51.0371C171.867 48.3934 169.775 43.5567 169.664 39.1705Z" fill="#BD372B"/>
<path d="M211.004 45.0337C211.647 44.3739 211.677 43.7369 211.852 42.8325C212.301 40.5035 210.695 39.3087 210.179 36.9934C209.54 34.1215 210.331 31.9095 209.53 29.0783C209.003 27.2139 205.399 24.8976 207.337 24.8977C208.729 24.8977 209.985 26.0082 210.792 27.202C213.499 31.2039 211.704 33.2912 212.44 36.7036C212.706 37.939 214.333 40.4976 214.823 40.2406C215.676 39.7923 216.697 37.9264 216.264 36.3506C215.678 34.2174 214.733 33.82 214.47 31.7479C214.194 29.5832 213.655 23.2994 214.823 25.1428C215.94 26.9078 215.118 28.8059 216.029 31.2039C216.804 33.2473 218.333 34.5328 218.588 36.7036C218.826 38.7256 217.501 40.2406 217.783 42.1779C217.908 43.0411 218.468 44.1263 219.332 44.0077C220.264 43.88 219.151 42.4824 219.332 41.5601C219.809 39.1355 221.873 37.7432 221.317 35.3354C220.942 33.7088 219.884 32.9104 220.035 31.2039C220.223 29.0783 220.391 26.8839 221.755 25.4509C223.663 23.448 221.268 28.5275 221.755 31.0187C222.148 33.026 224.122 34.3053 224.101 36.3506C224.083 38.1804 222.607 40.042 222.635 41.8718C222.648 42.7648 223.291 43.9169 223.823 44.4592C224.531 45.1819 226.035 42.1993 226.358 40.4269C226.832 37.8296 225.191 35.7914 226.244 33.3508C227.101 31.3626 228.43 29.0465 230.052 28.4831C231.936 27.8291 228.43 31.9718 228.091 33.9367C227.612 36.7202 229.106 37.8679 228.632 40.6523C228.373 42.179 226.875 44.5735 227.438 45.0918C228.392 45.9695 229.366 44.6158 229.974 43.4709C230.787 41.9397 230.173 39.5246 230.923 37.9405C231.983 35.7007 231.941 35.2659 234.398 33.1398C236.095 31.6709 233.075 36.3419 232.549 38.2387C231.884 40.639 232.743 42.0883 231.98 44.4592C231.073 47.2755 230.819 47.8119 229.099 50.2191C227.871 51.9375 226.964 52.463 224.939 53.0655C223.432 53.514 222.562 53.8212 221.177 54.0182C219.65 54.2356 219.111 54.335 217.562 54.0182C215.844 53.667 215.96 53.6681 214.345 52.9874C213.385 52.5829 213.223 52.5906 211.357 51.4532C209.727 50.4598 209.305 50.183 208.134 48.644C206.57 46.5898 205.918 45.3658 205.42 42.8325C205.056 40.977 205.187 39.867 205.42 37.9905C205.705 35.6978 206.481 34.5417 207.027 32.2969C207.376 30.8617 205.23 28.6321 206.707 28.6321C208.134 28.6321 208.642 31.8465 208.729 33.9696C208.827 36.3502 207.611 37.717 208.134 40.0415C208.627 42.2356 209.435 46.6445 211.004 45.0337Z" fill="#DF753B"/>
<path d="M230.449 45.2224C228.896 47.728 222.144 52.3188 217.562 54.0175C219.112 54.3344 219.65 54.2349 221.178 54.0175C222.562 53.8205 223.432 53.5133 224.94 53.0648C226.964 52.4624 227.872 51.9369 229.1 50.2184C230.82 47.8112 231.074 47.2748 231.98 44.4585C232.744 42.0876 231.885 40.6384 232.55 38.238C233.075 36.3412 236.095 31.6702 234.398 33.1392C234.573 33.5156 232.933 35.3281 231.98 37.7301C231.334 39.3593 231.362 43.7487 230.449 45.2224Z" fill="#BF6534"/>
<path d="M227.758 40.7705C227.019 42.5732 226.247 44.9322 227.438 45.091C226.875 44.5727 228.373 42.1782 228.633 40.6515C229.106 37.8671 227.612 36.7194 228.092 33.9359C228.43 31.9711 231.936 27.8284 230.052 28.4824C229.851 29.5267 228.295 31.4702 227.438 33.4584C226.386 35.8989 228.497 38.9674 227.758 40.7705Z" fill="#BF6534"/>
<path d="M221.842 42.169C222.039 43.677 223.213 44.4591 223.822 44.4591C223.291 43.9168 222.648 42.7646 222.634 41.8716C222.607 40.0419 224.082 38.1803 224.101 36.3504C224.122 34.3052 222.147 33.0259 221.755 31.0186C221.267 28.5274 223.662 23.4479 221.755 25.4507C221.886 26.0838 220.443 28.9686 221.077 31.2634C221.533 32.9147 223.088 34.8174 223.088 36.4867C223.088 37.7543 221.457 39.2217 221.842 42.169Z" fill="#BF6534"/>
<path d="M217.783 37.0015C217.141 40.8997 216.414 44.5853 219.332 44.0074C218.468 44.126 217.908 43.0408 217.783 42.1776C217.501 40.2403 218.825 38.7253 218.588 36.7033C218.332 34.5325 216.804 33.2471 216.028 31.2037C215.118 28.8056 215.94 26.9075 214.822 25.1426C215.432 26.9826 214.66 28.7444 215.369 31.3137C215.924 33.3273 218.037 35.4555 217.783 37.0015Z" fill="#BF6534"/>
<path d="M212.44 36.7034C211.704 33.291 213.499 31.2037 210.792 27.2018C209.985 26.008 208.729 24.8975 207.336 24.8975C208.862 25.806 209.346 26.2753 210.515 27.8612C212.031 29.9188 211.435 32.8453 211.598 36.4091C211.706 38.7786 214.475 41.4579 214.822 40.2404C214.333 40.4974 212.706 37.9388 212.44 36.7034Z" fill="#BF6534"/>
<path d="M208.729 33.9694C208.641 31.8462 208.133 28.6318 206.706 28.6318C207.563 29.9579 208.533 32.3926 208.207 33.9694C207.613 36.8477 207.164 38.2615 207.545 40.1647C208.187 43.3762 209.638 46.7443 211.004 45.0334C209.435 46.6443 208.627 42.2353 208.133 40.0412C207.61 37.7168 208.827 36.35 208.729 33.9694Z" fill="#BF6534"/>
<path d="M246.173 40.3185C246.025 35.4666 244.364 27.8867 248.652 28.2067C252.778 28.5146 247.245 40.7451 251.293 39.7916C254.938 38.9331 250.344 27.3561 253.623 29.3476C256.26 30.9486 252.214 36.6887 255.022 37.8608C258.282 39.2218 254.183 29.3523 257.508 28.2068C261.478 26.8386 256.722 42.1594 260.304 39.7916C262.865 38.0991 259.546 30.6316 262.402 31.5418C264.929 32.3473 261.776 37.082 263.8 38.9713C266.783 41.7556 262.652 28.0403 266.519 28.2068C270.347 28.3716 265.428 40.9176 268.85 38.9713C271.562 37.4284 267.588 31.1132 270.559 30.401C273.827 29.6176 272.475 36.0195 272.579 39.7916C272.671 43.1542 273.78 46.2627 271.413 48.3051C270.252 49.3078 269.253 49.1398 267.843 49.577C266.384 50.0292 265.565 50.3036 264.071 50.5699C261.538 51.0214 260.071 50.923 257.508 50.8181C255.285 50.7272 253.992 50.83 251.84 50.1975C250.132 49.6955 248.933 49.6642 247.642 48.3051C245.578 46.1341 246.27 43.5022 246.173 40.3185Z" fill="#FFDB11"/>
<path d="M271.413 48.3057C273.779 46.2633 272.671 43.1549 272.578 39.7923C272.475 36.0201 273.826 29.6183 270.559 30.4017C273.692 32.0003 271.937 40.0326 268.164 45.9404C265.087 50.757 258.906 50.0233 257.507 50.8187C260.07 50.9236 261.537 51.0221 264.071 50.5705C265.565 50.3042 266.384 50.0298 267.842 49.5776C269.252 49.1405 270.251 49.3085 271.413 48.3057Z" fill="#E1C000"/>
<path d="M268.85 38.9716C265.59 41.5321 268.311 30.9871 266.52 28.207C270.348 28.3718 265.429 40.9179 268.85 38.9716Z" fill="#E1C000"/>
<path d="M263.8 38.9725C261.652 38.5513 263.701 32.499 262.402 31.543C264.929 32.3484 261.776 37.0832 263.8 38.9725Z" fill="#E1C000"/>
<path d="M260.304 39.7916C256.66 42.5104 260.304 28.2068 257.507 28.2068C261.478 26.8386 256.721 42.1594 260.304 39.7916Z" fill="#E1C000"/>
<path d="M255.022 37.8619C252.065 37.8619 255.022 31.7764 253.624 29.3486C256.26 30.9496 252.215 36.6898 255.022 37.8619Z" fill="#E1C000"/>
<path d="M251.293 39.7919C246.958 41.5048 250.44 29.2576 248.651 28.207C252.778 28.5149 247.244 40.7454 251.293 39.7919Z" fill="#E1C000"/>
<path d="M299.734 25.0762C304.844 24.3868 298.023 31.496 300.687 33.3848C303.489 35.3709 307.337 25.1781 309.513 30.2431C311.689 35.3081 302.489 33.9159 303.156 37.2438C303.855 40.7295 313.816 35.4527 312.867 39.7263C311.739 44.8013 305.424 39.6812 303.538 42.5788C301.382 45.8906 308.802 48.3914 306.135 52.2495C301.547 58.8888 303.328 44.4653 298.689 44.8579C294.342 45.2257 297.662 55.317 292.038 52.2495C287.747 49.9095 296.606 47.504 293.171 42.5788C291.048 39.5362 284.75 46.8062 283.808 41.9057C282.818 36.7616 293.585 40.7601 294.279 37.2438C294.959 33.7952 285.615 33.3526 287.749 30.5597C291.469 25.6926 293.509 34.5017 296.574 32.8548C299.645 31.2042 294.675 25.7587 299.734 25.0762Z" fill="#72B065"/>
<path d="M298.689 44.8581C294.342 45.2259 297.662 55.3173 292.038 52.2498C295.943 52.4698 294.741 44.6146 298.689 44.8581Z" fill="#508D43"/>
<path d="M308.825 42.0154C310.653 42.2456 312.336 42.1173 312.867 39.7266C313.224 38.1213 312.041 37.8636 310.388 37.9828C311.957 39.7266 311.619 41.4728 308.825 42.0154Z" fill="#508D43"/>
<path d="M303.538 42.5786C301.382 45.8904 308.802 48.3912 306.136 52.2493C306.618 49.7888 301.23 45.0698 303.538 42.5786Z" fill="#508D43"/>
<path d="M303.156 37.2435C301.699 34.8156 309.09 33.5532 309.513 30.2427C311.689 35.3077 302.489 33.9156 303.156 37.2435Z" fill="#508D43"/>
<path d="M299.734 25.0762C304.844 24.3868 298.023 31.496 300.688 33.3848C297.739 32.7906 302.069 25.6707 299.734 25.0762Z" fill="#508D43"/>
<path d="M327.019 25.3616C326.206 23.2717 326.08 22.1741 327.23 22.4631C328.3 22.7318 331.326 24.3474 332.612 25.1602C333.899 25.973 336.021 28.0797 336.779 28.8753C338.304 30.4772 338.968 31.7017 340.033 33.3455C340.91 34.6977 341.299 35.5299 342.113 36.9204C343.278 38.9092 344.326 41.3874 344.645 43.54C344.945 45.5674 344.756 46.6916 344.106 49.0532C343.53 51.1478 342.284 52.6833 340.652 54.1164C338.603 55.9145 336.048 56.9843 333.053 56.4888C329.704 55.9347 327.88 54.7768 325.819 52.0796C324.526 50.3873 323.754 48.1042 323.754 45.9743C323.754 43.9383 324.546 41.1958 325.438 39.4913C326.535 37.3944 326.816 37.1404 327.696 34.975C328.42 33.1936 328.793 32.5938 328.793 30.7812C328.793 28.9102 327.754 27.2536 327.019 25.3616Z" fill="#5D8BB4"/>
<path d="M344.107 49.053C344.757 46.6914 344.946 45.5672 344.645 43.5398C344.326 41.3871 343.278 38.909 342.114 36.9201C341.299 35.5297 340.91 34.6974 340.034 33.3453C338.968 31.7014 338.305 30.4769 336.779 28.875C336.021 28.0794 333.899 25.9728 332.612 25.16C331.326 24.3472 328.3 22.7315 327.231 22.4629C335.034 27.0403 339.541 41.0141 340.034 44.9176C340.366 47.5469 338.32 54.0211 333.054 56.4886C336.048 56.984 338.603 55.9143 340.652 54.1161C342.285 52.683 343.53 51.1476 344.107 49.053Z" fill="#3A6892"/>
<path d="M361.697 22.7714C364.723 19.9378 377.126 20.391 375.034 25.0366C372.765 30.0745 370.341 30.6754 368.844 34.4541C367.332 38.2714 374.082 41.5669 371.913 45.105C369.961 48.2886 362.764 54.4831 357.733 57.0621C352.522 59.7328 366.587 49.6517 365.345 44.2771C364.419 40.2664 359.773 38.7547 359.058 34.799C358.13 29.6646 357.775 26.4434 361.697 22.7714Z" fill="#8947B5"/>
<path d="M368.844 34.4552C370.341 30.6766 372.765 30.0756 375.034 25.0377C375.837 23.2535 374.503 22.0877 372.383 21.489C367.477 26.1297 363.862 33.6117 367.477 38.6502C371.583 44.3727 371.913 44.4843 356.687 57.2113C356.391 57.6227 356.63 57.6283 357.733 57.0632C362.764 54.4843 369.961 48.2897 371.913 45.1061C374.082 41.568 367.332 38.2725 368.844 34.4552Z" fill="#6E3494"/>
</svg>
