<svg width="20" height="40" viewBox="0 0 20 40" fill="none" xmlns="http://www.w3.org/2000/svg">
<path d="M6.08785 2.77138C9.11402 -0.0621622 21.517 0.390957 19.4246 5.03662C17.1556 10.0745 14.732 10.6754 13.235 14.4541C11.7227 18.2714 18.4729 21.5669 16.3037 25.105C14.3518 28.2886 7.15471 34.4831 2.12354 37.0621C-3.08677 39.7328 10.9777 29.6517 9.73623 24.2771C8.80977 20.2664 4.16372 18.7547 3.44872 14.799C2.52067 9.66464 2.16622 6.44339 6.08785 2.77138Z" fill="#8947B5"/>
<path d="M13.2355 14.4552C14.7325 10.6766 17.1561 10.0756 19.4251 5.03774C20.2287 3.25353 18.8942 2.08772 16.7739 1.48901C11.8683 6.12967 8.25293 13.6117 11.8683 18.6502C15.9746 24.3727 16.3041 24.4843 1.07799 37.2113C0.782061 37.6227 1.02152 37.6283 2.12404 37.0632C7.1552 34.4843 14.3523 28.2897 16.3042 25.1061C18.4734 21.568 11.7232 18.2725 13.2355 14.4552Z" fill="#6E3494"/>
</svg>
