<svg width="28" height="29" viewBox="0 0 28 29" fill="none" xmlns="http://www.w3.org/2000/svg">
<path d="M1.56999 1.5725C3.75878 -0.198215 9.11169 -0.115256 12.9293 0.133646C16.7469 0.382549 25.1953 0.570892 26.3469 1.77262C27.4984 2.97436 27.4309 4.26805 27.2979 5.92713C27.1982 7.17041 26.2904 9.10246 26.3469 11.072C26.7469 25.0196 26.374 30.0849 24.0731 28.5712C21.6813 26.9977 23.0957 18.9312 24.0731 12.9143C24.5152 7.99106 22.7803 5.50013 21.5385 7.02653C18.2246 11.1 23.3003 23.6823 19.2963 20.2848C16.7521 18.126 19.6086 13.9861 16.8591 12.0959C12.8772 9.35845 18.6595 21.4917 14.7144 24.2818C9.62381 27.8819 17.8324 7.04989 11.7898 8.58632C6.25162 9.99447 13.4856 26.9606 9.35256 23.0144C6.36485 20.1618 10.6586 9.80926 7.59779 12.5833C5.48964 14.494 7.90942 17.5568 6.038 19.6999C3.16475 22.9901 6.87949 12.4118 4.77066 8.58632C3.00521 5.38373 2.53833 9.19442 2.66415 14.1699C2.77506 18.5561 4.86707 23.3928 2.33348 26.0365C-0.409676 28.899 0.345274 15.7334 0.51993 12.7306C0.678319 10.0075 0.113272 7.72267 0.018283 5.92713C-0.0770903 4.12432 0.166446 2.70796 1.56999 1.5725Z" fill="#EA5143"/>
<path d="M27.298 5.92697C27.431 4.26789 27.4985 2.97419 26.347 1.77246C27.6283 5.11709 25.476 5.94687 25.476 11.0718C25.476 19.1897 25.952 26.2178 24.0732 28.571C26.3741 30.0847 26.747 25.0194 26.347 11.0718C26.2905 9.10229 27.1983 7.17025 27.298 5.92697Z" fill="#BD372B"/>
<path d="M19.2964 20.2847C21.1107 19.2809 18.5654 9.03931 21.5386 7.02637C18.2247 11.0998 23.3004 23.6822 19.2964 20.2847Z" fill="#BD372B"/>
<path d="M14.7144 24.2819C16.859 19.7848 13.0866 8.82383 16.859 12.096C12.8772 9.3586 18.6595 21.4919 14.7144 24.2819Z" fill="#BD372B"/>
<path d="M9.35274 23.0148C11.4582 21.7828 6.4021 9.59088 11.7899 8.58643C6.2518 9.99457 13.4858 26.961 9.35274 23.0148Z" fill="#BD372B"/>
<path d="M6.03809 19.6977C6.78862 17.8071 5.35872 12.9879 7.59789 12.5811C5.48974 14.4917 7.90951 17.5546 6.03809 19.6977Z" fill="#BD372B"/>
<path d="M2.66416 14.1705C2.53834 9.19503 3.00521 5.38434 4.77066 8.58693C2.76035 4.67833 2.15019 7.727 1.85507 13.3352C1.61483 17.9002 2.8969 22.5455 2.33349 26.0371C4.86708 23.3934 2.77507 18.5567 2.66416 14.1705Z" fill="#BD372B"/>
</svg>
