<svg width="766" height="191" viewBox="0 0 766 191" fill="none" xmlns="http://www.w3.org/2000/svg">
<g filter="url(#filter0_d_84_4)">
<mask id="path-1-outside-1_84_4" maskUnits="userSpaceOnUse" x="-0.661499" y="-0.368896" width="752" height="178" fill="black">
<rect fill="white" x="-0.661499" y="-0.368896" width="752" height="178"/>
<path d="M34.9351 124.643V52.2257H20.4924C18.187 52.2257 16.5596 49.31 15.6103 43.4787C15.2035 40.6308 15 37.7151 15 34.7316C15 31.7481 15.2035 28.8325 15.6103 25.9846C16.5596 20.1532 18.187 17.2376 20.4924 17.2376H88.8413C91.1467 17.2376 92.7062 20.1532 93.5199 25.9846C94.0624 28.8325 94.3336 31.7481 94.3336 34.7316C94.3336 37.7151 94.0624 40.6308 93.5199 43.4787C92.7062 49.31 91.1467 52.2257 88.8413 52.2257H75.2122V124.643H89.4515C91.757 124.643 93.3843 127.559 94.3336 133.39C94.876 136.238 95.1473 139.154 95.1473 142.137C95.1473 145.121 94.876 148.036 94.3336 150.884C93.3843 156.715 91.757 159.631 89.4515 159.631H20.8992C18.5938 159.631 17.0342 156.715 16.2206 150.884C15.6781 148.036 15.4069 145.121 15.4069 142.137C15.4069 139.154 15.6781 136.238 16.2206 133.39C17.0342 127.559 18.5938 124.643 20.8992 124.643H34.9351ZM154.487 158.411C154.487 160.038 148.791 160.852 137.4 160.852C123.838 160.309 117.058 159.428 117.058 158.207V86.1967H106.683C103.971 86.1967 102.615 81.5181 102.615 72.1608C102.615 69.7198 102.818 66.7363 103.225 63.2103C103.768 59.6844 104.785 57.9214 106.277 57.9214H117.058V40.0205C117.058 37.3083 122.754 35.9521 134.145 35.9521C145.672 35.9521 151.436 37.037 151.436 39.2069V52.2257L151.639 57.9214H168.93C171.235 57.9214 172.388 62.6679 172.388 72.1608C172.388 81.6537 171.235 86.4001 168.93 86.4001H154.487V158.411ZM204.765 69.3129C202.866 69.8554 200.968 70.1266 199.069 70.1266C197.171 70.1266 195.272 69.8554 193.373 69.3129C189.576 68.228 187.678 66.465 187.678 64.024V21.1025C187.678 18.6615 190.593 16.8985 196.425 15.8136C199.273 15.2712 202.188 14.9999 205.172 14.9999C208.155 14.9999 211.139 15.2712 214.122 15.8136C219.954 16.8985 222.869 18.6615 222.869 21.1025L210.664 64.024C210.664 66.465 208.698 68.228 204.765 69.3129ZM250.83 123.016C261.814 129.661 270.494 132.983 276.867 132.983C280.936 132.983 282.97 131.559 282.97 128.711C282.97 126.677 279.444 124.033 272.392 120.778C255.441 113.862 246.965 102.538 246.965 86.807C246.965 76.7716 250.626 69.1095 257.949 63.8206C265.273 58.5317 274.02 55.8872 284.191 55.8872C294.497 55.8872 303.176 56.9721 310.228 59.1419C317.416 61.3118 321.009 64.1596 321.009 67.6856C321.009 70.669 319.518 74.6018 316.534 79.4839C313.686 84.3659 311.72 87.0104 310.635 87.4172C304.804 84.1625 298.498 82.5352 291.717 82.5352C288.056 82.5352 286.225 83.8235 286.225 86.4001C286.225 88.0275 286.903 89.4514 288.259 90.6719C289.751 91.7568 292.395 93.1808 296.192 94.9437C299.989 96.5711 303.109 98.0628 305.55 99.419C308.126 100.775 310.974 102.674 314.093 105.115C320.603 110.268 323.857 116.981 323.857 125.253C323.857 136.102 320.264 144.917 313.076 151.698C305.889 158.343 295.04 161.665 280.529 161.665C270.901 161.665 262.153 160.038 254.288 156.783C246.422 153.529 242.49 149.053 242.49 143.358C242.49 139.56 243.371 135.56 245.134 131.356C247.033 127.152 248.931 124.372 250.83 123.016ZM389.292 85.7899C385.494 79.0092 383.596 73.5169 383.596 69.3129C383.596 64.9733 384.749 62.1932 387.054 60.9727C394.784 57.5824 405.362 55.8872 418.787 55.8872C432.349 55.8872 441.909 59.0741 447.47 65.4479C453.03 71.6861 455.81 80.9756 455.81 93.3164V125.457H462.726C465.031 125.457 466.794 126.813 468.015 129.525C469.371 132.237 470.049 135.967 470.049 140.713C470.049 145.46 468.829 150.138 466.388 154.749C464.082 159.36 460.895 161.665 456.827 161.665C449.504 161.665 443.605 159.699 439.129 155.766C437.095 154.139 435.536 152.172 434.451 149.867C428.213 157.733 418.516 161.665 405.362 161.665C395.462 161.665 387.122 158.139 380.341 151.087C373.561 144.036 370.17 135.695 370.17 126.067C370.17 103.962 383.392 92.9096 409.837 92.9096H421.025V90.8754C421.025 87.3494 420.415 85.1118 419.194 84.1625C418.109 83.0776 415.465 82.5352 411.261 82.5352C406.108 82.5352 398.785 83.6201 389.292 85.7899ZM405.565 123.219C405.565 126.203 406.379 128.508 408.006 130.135C409.634 131.627 411.668 132.373 414.109 132.373C416.685 132.373 418.991 131.356 421.025 129.322V113.658H415.329C408.82 113.658 405.565 116.845 405.565 123.219ZM566.689 158.411C566.689 160.038 560.993 160.852 549.602 160.852C536.041 160.309 529.26 159.428 529.26 158.207V86.1967H518.886C516.173 86.1967 514.817 81.5181 514.817 72.1608C514.817 69.7198 515.021 66.7363 515.428 63.2103C515.97 59.6844 516.987 57.9214 518.479 57.9214H529.26V40.0205C529.26 37.3083 534.956 35.9521 546.347 35.9521C557.874 35.9521 563.638 37.037 563.638 39.2069V52.2257L563.841 57.9214H581.132C583.437 57.9214 584.59 62.6679 584.59 72.1608C584.59 81.6537 583.437 86.4001 581.132 86.4001H566.689V158.411ZM632.02 158.411C632.02 159.495 625.782 160.038 613.306 160.038C600.965 160.038 594.794 159.563 594.794 158.614V58.7351C594.794 57.7858 600.965 57.3112 613.306 57.3112C625.782 57.3112 632.02 57.718 632.02 58.5317V158.411ZM632.02 46.5299C632.02 47.4792 625.782 47.9539 613.306 47.9539C600.965 47.9539 594.794 47.547 594.794 46.7334V17.441C594.794 16.0848 600.965 15.4068 613.306 15.4068C625.782 15.4068 632.02 15.8136 632.02 16.6273V46.5299ZM727.309 154.139C718.766 159.156 707.781 161.665 694.356 161.665C680.93 161.665 669.606 157.122 660.384 148.036C651.163 138.815 646.552 126.135 646.552 109.997C646.552 93.7232 650.959 80.6366 659.774 70.7368C668.725 60.8371 679.981 55.8872 693.542 55.8872C707.103 55.8872 717.545 59.3454 724.868 66.2616C732.327 73.1779 736.056 81.5859 736.056 91.4856C736.056 113.455 723.444 124.44 698.22 124.44H684.185C684.185 128.508 685.269 131.356 687.439 132.983C689.745 134.475 693.067 135.221 697.407 135.221C706.9 135.221 715.918 133.051 724.462 128.711C724.597 128.576 725.207 129.525 726.292 131.559C729.547 137.391 731.174 142.34 731.174 146.409C731.174 150.342 729.886 152.918 727.309 154.139ZM701.882 95.3506C701.882 89.6548 699.102 86.807 693.542 86.807C690.965 86.807 688.728 87.6207 686.829 89.248C685.066 90.7398 684.185 92.9774 684.185 95.9608V102.267H695.169C699.644 102.267 701.882 99.9614 701.882 95.3506Z"/>
</mask>
<path d="M34.9351 124.643V52.2257H20.4924C18.187 52.2257 16.5596 49.31 15.6103 43.4787C15.2035 40.6308 15 37.7151 15 34.7316C15 31.7481 15.2035 28.8325 15.6103 25.9846C16.5596 20.1532 18.187 17.2376 20.4924 17.2376H88.8413C91.1467 17.2376 92.7062 20.1532 93.5199 25.9846C94.0624 28.8325 94.3336 31.7481 94.3336 34.7316C94.3336 37.7151 94.0624 40.6308 93.5199 43.4787C92.7062 49.31 91.1467 52.2257 88.8413 52.2257H75.2122V124.643H89.4515C91.757 124.643 93.3843 127.559 94.3336 133.39C94.876 136.238 95.1473 139.154 95.1473 142.137C95.1473 145.121 94.876 148.036 94.3336 150.884C93.3843 156.715 91.757 159.631 89.4515 159.631H20.8992C18.5938 159.631 17.0342 156.715 16.2206 150.884C15.6781 148.036 15.4069 145.121 15.4069 142.137C15.4069 139.154 15.6781 136.238 16.2206 133.39C17.0342 127.559 18.5938 124.643 20.8992 124.643H34.9351ZM154.487 158.411C154.487 160.038 148.791 160.852 137.4 160.852C123.838 160.309 117.058 159.428 117.058 158.207V86.1967H106.683C103.971 86.1967 102.615 81.5181 102.615 72.1608C102.615 69.7198 102.818 66.7363 103.225 63.2103C103.768 59.6844 104.785 57.9214 106.277 57.9214H117.058V40.0205C117.058 37.3083 122.754 35.9521 134.145 35.9521C145.672 35.9521 151.436 37.037 151.436 39.2069V52.2257L151.639 57.9214H168.93C171.235 57.9214 172.388 62.6679 172.388 72.1608C172.388 81.6537 171.235 86.4001 168.93 86.4001H154.487V158.411ZM204.765 69.3129C202.866 69.8554 200.968 70.1266 199.069 70.1266C197.171 70.1266 195.272 69.8554 193.373 69.3129C189.576 68.228 187.678 66.465 187.678 64.024V21.1025C187.678 18.6615 190.593 16.8985 196.425 15.8136C199.273 15.2712 202.188 14.9999 205.172 14.9999C208.155 14.9999 211.139 15.2712 214.122 15.8136C219.954 16.8985 222.869 18.6615 222.869 21.1025L210.664 64.024C210.664 66.465 208.698 68.228 204.765 69.3129ZM250.83 123.016C261.814 129.661 270.494 132.983 276.867 132.983C280.936 132.983 282.97 131.559 282.97 128.711C282.97 126.677 279.444 124.033 272.392 120.778C255.441 113.862 246.965 102.538 246.965 86.807C246.965 76.7716 250.626 69.1095 257.949 63.8206C265.273 58.5317 274.02 55.8872 284.191 55.8872C294.497 55.8872 303.176 56.9721 310.228 59.1419C317.416 61.3118 321.009 64.1596 321.009 67.6856C321.009 70.669 319.518 74.6018 316.534 79.4839C313.686 84.3659 311.72 87.0104 310.635 87.4172C304.804 84.1625 298.498 82.5352 291.717 82.5352C288.056 82.5352 286.225 83.8235 286.225 86.4001C286.225 88.0275 286.903 89.4514 288.259 90.6719C289.751 91.7568 292.395 93.1808 296.192 94.9437C299.989 96.5711 303.109 98.0628 305.55 99.419C308.126 100.775 310.974 102.674 314.093 105.115C320.603 110.268 323.857 116.981 323.857 125.253C323.857 136.102 320.264 144.917 313.076 151.698C305.889 158.343 295.04 161.665 280.529 161.665C270.901 161.665 262.153 160.038 254.288 156.783C246.422 153.529 242.49 149.053 242.49 143.358C242.49 139.56 243.371 135.56 245.134 131.356C247.033 127.152 248.931 124.372 250.83 123.016ZM389.292 85.7899C385.494 79.0092 383.596 73.5169 383.596 69.3129C383.596 64.9733 384.749 62.1932 387.054 60.9727C394.784 57.5824 405.362 55.8872 418.787 55.8872C432.349 55.8872 441.909 59.0741 447.47 65.4479C453.03 71.6861 455.81 80.9756 455.81 93.3164V125.457H462.726C465.031 125.457 466.794 126.813 468.015 129.525C469.371 132.237 470.049 135.967 470.049 140.713C470.049 145.46 468.829 150.138 466.388 154.749C464.082 159.36 460.895 161.665 456.827 161.665C449.504 161.665 443.605 159.699 439.129 155.766C437.095 154.139 435.536 152.172 434.451 149.867C428.213 157.733 418.516 161.665 405.362 161.665C395.462 161.665 387.122 158.139 380.341 151.087C373.561 144.036 370.17 135.695 370.17 126.067C370.17 103.962 383.392 92.9096 409.837 92.9096H421.025V90.8754C421.025 87.3494 420.415 85.1118 419.194 84.1625C418.109 83.0776 415.465 82.5352 411.261 82.5352C406.108 82.5352 398.785 83.6201 389.292 85.7899ZM405.565 123.219C405.565 126.203 406.379 128.508 408.006 130.135C409.634 131.627 411.668 132.373 414.109 132.373C416.685 132.373 418.991 131.356 421.025 129.322V113.658H415.329C408.82 113.658 405.565 116.845 405.565 123.219ZM566.689 158.411C566.689 160.038 560.993 160.852 549.602 160.852C536.041 160.309 529.26 159.428 529.26 158.207V86.1967H518.886C516.173 86.1967 514.817 81.5181 514.817 72.1608C514.817 69.7198 515.021 66.7363 515.428 63.2103C515.97 59.6844 516.987 57.9214 518.479 57.9214H529.26V40.0205C529.26 37.3083 534.956 35.9521 546.347 35.9521C557.874 35.9521 563.638 37.037 563.638 39.2069V52.2257L563.841 57.9214H581.132C583.437 57.9214 584.59 62.6679 584.59 72.1608C584.59 81.6537 583.437 86.4001 581.132 86.4001H566.689V158.411ZM632.02 158.411C632.02 159.495 625.782 160.038 613.306 160.038C600.965 160.038 594.794 159.563 594.794 158.614V58.7351C594.794 57.7858 600.965 57.3112 613.306 57.3112C625.782 57.3112 632.02 57.718 632.02 58.5317V158.411ZM632.02 46.5299C632.02 47.4792 625.782 47.9539 613.306 47.9539C600.965 47.9539 594.794 47.547 594.794 46.7334V17.441C594.794 16.0848 600.965 15.4068 613.306 15.4068C625.782 15.4068 632.02 15.8136 632.02 16.6273V46.5299ZM727.309 154.139C718.766 159.156 707.781 161.665 694.356 161.665C680.93 161.665 669.606 157.122 660.384 148.036C651.163 138.815 646.552 126.135 646.552 109.997C646.552 93.7232 650.959 80.6366 659.774 70.7368C668.725 60.8371 679.981 55.8872 693.542 55.8872C707.103 55.8872 717.545 59.3454 724.868 66.2616C732.327 73.1779 736.056 81.5859 736.056 91.4856C736.056 113.455 723.444 124.44 698.22 124.44H684.185C684.185 128.508 685.269 131.356 687.439 132.983C689.745 134.475 693.067 135.221 697.407 135.221C706.9 135.221 715.918 133.051 724.462 128.711C724.597 128.576 725.207 129.525 726.292 131.559C729.547 137.391 731.174 142.34 731.174 146.409C731.174 150.342 729.886 152.918 727.309 154.139ZM701.882 95.3506C701.882 89.6548 699.102 86.807 693.542 86.807C690.965 86.807 688.728 87.6207 686.829 89.248C685.066 90.7398 684.185 92.9774 684.185 95.9608V102.267H695.169C699.644 102.267 701.882 99.9614 701.882 95.3506Z" fill="#FF6A00"/>
<path d="M34.9351 124.643V139.643H49.9351V124.643H34.9351ZM34.9351 52.2257H49.9351V37.2257H34.9351V52.2257ZM15.6103 43.4787L0.761065 45.6L0.781726 45.7446L0.805198 45.8888L15.6103 43.4787ZM15.6103 25.9846L0.805198 23.5745L0.781726 23.7187L0.761065 23.8633L15.6103 25.9846ZM93.5199 25.9846L78.6638 28.0575L78.7152 28.4259L78.7848 28.7913L93.5199 25.9846ZM93.5199 43.4787L78.7848 40.672L78.7152 41.0373L78.6638 41.4057L93.5199 43.4787ZM75.2122 52.2257V37.2257H60.2122V52.2257H75.2122ZM75.2122 124.643H60.2122V139.643H75.2122V124.643ZM94.3336 133.39L79.5285 135.8L79.5608 135.999L79.5985 136.197L94.3336 133.39ZM94.3336 150.884L79.5985 148.077L79.5608 148.275L79.5285 148.474L94.3336 150.884ZM16.2206 150.884L31.0766 148.811L31.0252 148.443L30.9556 148.077L16.2206 150.884ZM16.2206 133.39L30.9556 136.197L31.0252 135.831L31.0766 135.463L16.2206 133.39ZM34.9351 124.643H49.9351V52.2257H34.9351H19.9351V124.643H34.9351ZM34.9351 52.2257V37.2257H20.4924V52.2257V67.2257H34.9351V52.2257ZM20.4924 52.2257V37.2257C23.3385 37.2257 25.901 38.2038 27.8238 39.6293C29.5429 40.9038 30.3666 42.2373 30.6408 42.7284C31.0918 43.5366 30.7911 43.3763 30.4154 41.0685L15.6103 43.4787L0.805198 45.8888C1.37881 49.4124 2.3664 53.6256 4.44482 57.3494C6.58974 61.1924 11.65 67.2257 20.4924 67.2257V52.2257ZM15.6103 43.4787L30.4595 41.3573C30.1567 39.2376 30 37.0315 30 34.7316H15H4.95911e-05C4.95911e-05 38.3987 0.250212 42.024 0.761065 45.6L15.6103 43.4787ZM15 34.7316H30C30 32.4317 30.1567 30.2257 30.4595 28.1059L15.6103 25.9846L0.761065 23.8633C0.250212 27.4392 4.95911e-05 31.0645 4.95911e-05 34.7316H15ZM15.6103 25.9846L30.4154 28.3947C30.7911 26.087 31.0918 25.9266 30.6408 26.7348C30.3666 27.226 29.5429 28.5594 27.8238 29.8339C25.901 31.2595 23.3385 32.2376 20.4924 32.2376V17.2375V2.23755C11.65 2.23755 6.58974 8.27084 4.44482 12.1138C2.3664 15.8377 1.37881 20.0509 0.805198 23.5745L15.6103 25.9846ZM20.4924 17.2375V32.2376H88.8413V17.2375V2.23755H20.4924V17.2375ZM88.8413 17.2375V32.2376C85.9875 32.2376 83.377 31.2528 81.3969 29.759C79.6303 28.4263 78.7952 27.0262 78.5132 26.4991C78.0481 25.6295 78.3414 25.7463 78.6638 28.0575L93.5199 25.9846L108.376 23.9117C107.885 20.3915 106.991 16.1348 104.967 12.3495C102.85 8.39209 97.7848 2.23755 88.8413 2.23755V17.2375ZM93.5199 25.9846L78.7848 28.7913C79.146 30.6874 79.3336 32.6625 79.3336 34.7316H94.3336H109.334C109.334 30.8337 108.979 26.9775 108.255 23.1779L93.5199 25.9846ZM94.3336 34.7316H79.3336C79.3336 36.8007 79.146 38.7758 78.7848 40.672L93.5199 43.4787L108.255 46.2853C108.979 42.4858 109.334 38.6295 109.334 34.7316H94.3336ZM93.5199 43.4787L78.6638 41.4057C78.3414 43.7169 78.0481 43.8337 78.5132 42.9641C78.7952 42.437 79.6303 41.037 81.3969 39.7043C83.377 38.2105 85.9875 37.2257 88.8413 37.2257V52.2257V67.2257C97.7848 67.2257 102.85 61.0712 104.967 57.1137C106.991 53.3285 107.885 49.0717 108.376 45.5516L93.5199 43.4787ZM88.8413 52.2257V37.2257H75.2122V52.2257V67.2257H88.8413V52.2257ZM75.2122 52.2257H60.2122V124.643H75.2122H90.2122V52.2257H75.2122ZM75.2122 124.643V139.643H89.4515V124.643V109.643H75.2122V124.643ZM89.4515 124.643V139.643C86.6055 139.643 84.0429 138.665 82.1201 137.239C80.401 135.965 79.5773 134.631 79.3031 134.14C78.8521 133.332 79.1528 133.492 79.5285 135.8L94.3336 133.39L109.139 130.98C108.565 127.456 107.577 123.243 105.499 119.519C103.354 115.676 98.2939 109.643 89.4515 109.643V124.643ZM94.3336 133.39L79.5985 136.197C79.9597 138.093 80.1473 140.068 80.1473 142.137H95.1473H110.147C110.147 138.239 109.792 134.383 109.069 130.583L94.3336 133.39ZM95.1473 142.137H80.1473C80.1473 144.206 79.9597 146.181 79.5985 148.077L94.3336 150.884L109.069 153.691C109.792 149.891 110.147 146.035 110.147 142.137H95.1473ZM94.3336 150.884L79.5285 148.474C79.1528 150.782 78.8521 150.942 79.3031 150.134C79.5773 149.643 80.401 148.309 82.1201 147.035C84.0429 145.609 86.6055 144.631 89.4515 144.631V159.631V174.631C98.2939 174.631 103.354 168.598 105.499 164.755C107.577 161.031 108.565 156.818 109.139 153.294L94.3336 150.884ZM89.4515 159.631V144.631H20.8992V159.631V174.631H89.4515V159.631ZM20.8992 159.631V144.631C23.753 144.631 26.3635 145.616 28.3436 147.11C30.1102 148.442 30.9453 149.842 31.2273 150.37C31.6924 151.239 31.3991 151.122 31.0766 148.811L16.2206 150.884L1.36449 152.957C1.85568 156.477 2.74905 160.734 4.77372 164.519C6.89049 168.477 11.9557 174.631 20.8992 174.631V159.631ZM16.2206 150.884L30.9556 148.077C30.5945 146.181 30.4069 144.206 30.4069 142.137H15.4069H0.406888C0.406888 146.035 0.761758 149.891 1.48549 153.691L16.2206 150.884ZM15.4069 142.137H30.4069C30.4069 140.068 30.5945 138.093 30.9556 136.197L16.2206 133.39L1.48549 130.583C0.761758 134.383 0.406888 138.239 0.406888 142.137H15.4069ZM16.2206 133.39L31.0766 135.463C31.3991 133.152 31.6924 133.035 31.2273 133.905C30.9453 134.432 30.1102 135.832 28.3436 137.164C26.3635 138.658 23.753 139.643 20.8992 139.643V124.643V109.643C11.9557 109.643 6.89049 115.798 4.77372 119.755C2.74905 123.54 1.85568 127.797 1.36449 131.317L16.2206 133.39ZM20.8992 124.643V139.643H34.9351V124.643V109.643H20.8992V124.643ZM137.4 160.852L136.8 175.84L137.1 175.852H137.4V160.852ZM117.058 86.1967H132.058V71.1967H117.058V86.1967ZM103.225 63.2103L88.3997 60.9295L88.3566 61.2095L88.3241 61.491L103.225 63.2103ZM117.058 57.9214V72.9214H132.058V57.9214H117.058ZM151.436 52.2257H136.436V52.4935L136.445 52.7611L151.436 52.2257ZM151.639 57.9214L136.649 58.4568L137.165 72.9214H151.639V57.9214ZM154.487 86.4001V71.4001H139.487V86.4001H154.487ZM154.487 158.411H139.487C139.487 153.736 141.686 150.303 143.613 148.376C145.31 146.679 146.958 145.928 147.51 145.691C148.633 145.21 149.124 145.245 148.094 145.392C146.336 145.643 142.931 145.852 137.4 145.852V160.852V175.852C143.26 175.852 148.398 175.653 152.336 175.091C154.154 174.831 156.781 174.357 159.328 173.266C160.446 172.787 169.487 168.893 169.487 158.411H154.487ZM137.4 160.852L137.999 145.864C131.321 145.596 126.78 145.26 124.077 144.909C122.605 144.718 122.361 144.605 122.771 144.732C122.871 144.763 124.16 145.139 125.725 146.187C126.851 146.942 132.058 150.719 132.058 158.207H117.058H102.058C102.058 166.001 107.477 170.072 109.026 171.111C111.015 172.443 112.94 173.093 113.888 173.386C115.993 174.039 118.291 174.409 120.21 174.659C124.287 175.189 129.917 175.564 136.8 175.84L137.4 160.852ZM117.058 158.207H132.058V86.1967H117.058H102.058V158.207H117.058ZM117.058 86.1967V71.1967H106.683V86.1967V101.197H117.058V86.1967ZM106.683 86.1967V71.1967C108.584 71.1967 110.542 71.6263 112.361 72.5228C114.131 73.3951 115.391 74.5204 116.223 75.4768C117.031 76.4069 117.485 77.2309 117.711 77.698C117.941 78.1754 118.03 78.48 118.039 78.5118C118.045 78.5336 117.916 78.0597 117.8 76.8589C117.689 75.7095 117.615 74.1636 117.615 72.1608H102.615H87.615C87.615 77.2065 87.9418 82.4362 89.2251 86.8637C89.8604 89.0556 91.0636 92.2632 93.5844 95.1622C96.489 98.5024 101.018 101.197 106.683 101.197V86.1967ZM102.615 72.1608H117.615C117.615 70.4877 117.759 68.1162 118.126 64.9297L103.225 63.2103L88.3241 61.491C87.8781 65.3564 87.615 68.9518 87.615 72.1608H102.615ZM103.225 63.2103L118.051 65.4912C118.22 64.3948 118.257 65.2321 117.388 66.7395C116.891 67.5998 115.828 69.1496 113.871 70.5249C111.734 72.0267 109.081 72.9214 106.277 72.9214V57.9214V42.9214C98.2797 42.9214 93.4875 48.1331 91.4021 51.7478C89.5154 55.0181 88.7734 58.5 88.3997 60.9295L103.225 63.2103ZM106.277 57.9214V72.9214H117.058V57.9214V42.9214H106.277V57.9214ZM117.058 57.9214H132.058V40.0205H117.058H102.058V57.9214H117.058ZM117.058 40.0205H132.058C132.058 42.4579 131.378 44.7999 130.187 46.7844C129.066 48.653 127.736 49.81 126.844 50.4466C125.265 51.5744 124.167 51.7129 124.804 51.5613C125.894 51.3018 128.739 50.9521 134.145 50.9521V35.9521V20.9521C128.159 20.9521 122.461 21.2806 117.855 22.3771C115.644 22.9037 112.41 23.8897 109.407 26.0346C106.02 28.4538 102.058 33.1266 102.058 40.0205H117.058ZM134.145 35.9521V50.9521C139.687 50.9521 142.873 51.2311 144.338 51.5069C145.209 51.6708 144.39 51.6407 142.979 50.8442C142.205 50.407 140.654 49.4057 139.217 47.5121C137.623 45.4125 136.436 42.5357 136.436 39.2068H151.436H166.436C166.436 30.7523 160.48 26.274 157.731 24.7216C154.879 23.1114 151.899 22.4033 149.888 22.0247C145.589 21.2156 140.13 20.9521 134.145 20.9521V35.9521ZM151.436 39.2068H136.436V52.2257H151.436H166.436V39.2068H151.436ZM151.436 52.2257L136.445 52.7611L136.649 58.4568L151.639 57.9214L166.629 57.3861L166.426 51.6903L151.436 52.2257ZM151.639 57.9214V72.9214H168.93V57.9214V42.9214H151.639V57.9214ZM168.93 57.9214V72.9214C166.501 72.9214 164.151 72.259 162.135 71.0729C160.227 69.9506 159.015 68.5991 158.319 67.6443C157.077 65.9392 156.855 64.6436 156.947 65.0212C157.089 65.6053 157.388 67.711 157.388 72.1608H172.388H187.388C187.388 67.1176 187.11 62.1037 186.1 57.9413C185.615 55.9457 184.673 52.8702 182.566 49.9785C180.167 46.685 175.589 42.9214 168.93 42.9214V57.9214ZM172.388 72.1608H157.388C157.388 76.6105 157.089 78.7162 156.947 79.3003C156.855 79.678 157.077 78.3824 158.319 76.6773C159.015 75.7225 160.227 74.371 162.135 73.2486C164.151 72.0626 166.501 71.4001 168.93 71.4001V86.4001V101.4C175.589 101.4 180.167 97.6366 182.566 94.343C184.673 91.4514 185.615 88.3759 186.1 86.3803C187.11 82.2179 187.388 77.2039 187.388 72.1608H172.388ZM168.93 86.4001V71.4001H154.487V86.4001V101.4H168.93V86.4001ZM154.487 86.4001H139.487V158.411H154.487H169.487V86.4001H154.487ZM204.765 69.3129L200.776 54.853L200.71 54.8712L200.644 54.8901L204.765 69.3129ZM193.373 69.3129L197.494 54.8901L197.494 54.89L193.373 69.3129ZM196.425 15.8136L199.168 30.5606L199.2 30.5547L199.231 30.5487L196.425 15.8136ZM214.122 15.8136L216.866 1.06667L216.836 1.06107L216.805 1.05557L214.122 15.8136ZM222.869 21.1025L237.297 25.2053L237.869 23.1938V21.1025H222.869ZM210.664 64.024L196.236 59.9213L195.664 61.9328V64.024H210.664ZM204.765 69.3129L200.644 54.8901C200.032 55.065 199.519 55.1266 199.069 55.1266V70.1266V85.1266C202.416 85.1266 205.701 84.6457 208.886 83.7358L204.765 69.3129ZM199.069 70.1266V55.1266C198.619 55.1266 198.107 55.065 197.494 54.8901L193.373 69.3129L189.253 83.7358C192.437 84.6457 195.722 85.1266 199.069 85.1266V70.1266ZM193.373 69.3129L197.494 54.89C196.782 54.6865 197.856 54.8369 199.308 56.1851C200.117 56.9363 201.024 58.0471 201.704 59.5538C202.394 61.0808 202.678 62.632 202.678 64.024H187.678H172.678C172.678 69.6946 175.1 74.6449 178.895 78.1689C182.245 81.2801 186.168 82.8544 189.253 83.7358L193.373 69.3129ZM187.678 64.024H202.678V21.1025H187.678H172.678V64.024H187.678ZM187.678 21.1025H202.678C202.678 23.6993 201.838 26.0898 200.55 27.9474C199.383 29.6303 198.134 30.4784 197.626 30.7855C196.801 31.2844 196.912 30.9803 199.168 30.5606L196.425 15.8136L193.681 1.06667C190.106 1.73187 185.844 2.85168 182.103 5.11354C178.125 7.51886 172.678 12.6768 172.678 21.1025H187.678ZM196.425 15.8136L199.231 30.5487C201.128 30.1875 203.103 29.9999 205.172 29.9999V14.9999V-6.10352e-05C201.274 -6.10352e-05 197.418 0.354813 193.618 1.07855L196.425 15.8136ZM205.172 14.9999V29.9999C207.241 29.9999 209.326 30.1875 211.439 30.5717L214.122 15.8136L216.805 1.05557C212.951 0.354797 209.07 -6.10352e-05 205.172 -6.10352e-05V14.9999ZM214.122 15.8136L211.379 30.5606C213.634 30.9803 213.746 31.2844 212.921 30.7855C212.413 30.4784 211.164 29.6303 209.997 27.9474C208.708 26.0898 207.869 23.6993 207.869 21.1025H222.869H237.869C237.869 12.6768 232.422 7.51886 228.444 5.11354C224.703 2.85168 220.441 1.73187 216.866 1.06667L214.122 15.8136ZM222.869 21.1025L208.441 16.9998L196.236 59.9213L210.664 64.024L225.092 68.1268L237.297 25.2053L222.869 21.1025ZM210.664 64.024H195.664C195.664 62.5546 195.975 60.9394 196.708 59.3724C197.428 57.8337 198.371 56.7301 199.176 56.0085C200.606 54.7264 201.609 54.6233 200.776 54.853L204.765 69.3129L208.754 83.7728C211.854 82.9176 215.806 81.3906 219.202 78.3456C223.067 74.8807 225.664 69.8839 225.664 64.024H210.664ZM250.83 123.016L258.594 110.181L250.146 105.071L242.111 110.81L250.83 123.016ZM272.392 120.778L278.678 107.159L278.371 107.017L278.059 106.889L272.392 120.778ZM257.949 63.8206L266.732 75.9808V75.9808L257.949 63.8206ZM310.228 59.1419L305.817 73.4786L305.855 73.4903L305.893 73.5019L310.228 59.1419ZM316.534 79.4839L303.735 71.6621L303.655 71.7932L303.578 71.9258L316.534 79.4839ZM310.635 87.4172L303.325 100.515L309.394 103.903L315.902 101.462L310.635 87.4172ZM288.259 90.6719L278.224 101.821L278.805 102.344L279.436 102.803L288.259 90.6719ZM296.192 94.9437L289.876 108.549L290.078 108.643L290.284 108.731L296.192 94.9437ZM305.55 99.419L298.265 112.531L298.413 112.614L298.563 112.693L305.55 99.419ZM314.093 105.115L323.404 93.354L323.371 93.328L323.338 93.3021L314.093 105.115ZM313.076 151.698L323.259 162.712L323.314 162.661L323.369 162.609L313.076 151.698ZM254.288 156.783L260.023 142.923V142.923L254.288 156.783ZM245.134 131.356L231.464 125.182L231.38 125.367L231.301 125.555L245.134 131.356ZM250.83 123.016L243.066 135.85C254.454 142.739 266.142 147.983 276.867 147.983V132.983V117.983C274.845 117.983 269.175 116.582 258.594 110.181L250.83 123.016ZM276.867 132.983V147.983C280.192 147.983 285.359 147.485 290.046 144.204C295.709 140.24 297.97 134.2 297.97 128.711H282.97H267.97C267.97 127.64 268.165 125.981 269.046 124.131C269.962 122.207 271.337 120.681 272.842 119.627C275.495 117.77 277.612 117.983 276.867 117.983V132.983ZM282.97 128.711H297.97C297.97 123.79 295.856 120.124 294.288 118.044C292.687 115.919 290.827 114.329 289.326 113.202C286.312 110.942 282.556 108.948 278.678 107.159L272.392 120.778L266.106 134.397C267.614 135.093 268.803 135.697 269.714 136.205C270.648 136.726 271.141 137.064 271.326 137.202C271.587 137.398 271.049 137.054 270.33 136.099C269.643 135.188 267.97 132.616 267.97 128.711H282.97ZM272.392 120.778L278.059 106.889C271.375 104.163 267.524 101.04 265.33 98.1096C263.252 95.3324 261.965 91.8143 261.965 86.807H246.965H231.965C231.965 97.5308 234.916 107.54 241.313 116.087C247.595 124.479 256.458 130.477 266.726 134.667L272.392 120.778ZM246.965 86.807H261.965C261.965 80.969 263.79 78.1057 266.732 75.9808L257.949 63.8206L249.167 51.6604C237.463 60.1133 231.965 72.5743 231.965 86.807H246.965ZM257.949 63.8206L266.732 75.9808C271.182 72.7667 276.758 70.8872 284.191 70.8872V55.8872V40.8872C271.281 40.8872 259.363 44.2966 249.167 51.6604L257.949 63.8206ZM284.191 55.8872V70.8872C293.547 70.8872 300.636 71.8844 305.817 73.4786L310.228 59.1419L314.64 44.8053C305.717 42.0599 295.447 40.8872 284.191 40.8872V55.8872ZM310.228 59.1419L305.893 73.5019C307.176 73.8892 308.056 74.2351 308.616 74.4957C309.195 74.7652 309.244 74.8566 308.998 74.6614C308.746 74.4616 307.982 73.7999 307.269 72.5354C306.501 71.1718 306.009 69.4845 306.009 67.6856H321.009H336.009C336.009 60.0329 331.849 54.4919 327.63 51.149C323.706 48.0391 318.961 46.1096 314.563 44.782L310.228 59.1419ZM321.009 67.6856H306.009C306.009 66.78 306.211 66.6434 305.866 67.5529C305.544 68.4022 304.902 69.7526 303.735 71.6621L316.534 79.4839L329.333 87.3056C332.651 81.8766 336.009 74.9732 336.009 67.6856H321.009ZM316.534 79.4839L303.578 71.9258C302.943 73.0132 302.395 73.9132 301.928 74.6433C301.454 75.3841 301.11 75.8782 300.887 76.1782C300.779 76.3236 300.726 76.3864 300.727 76.3852C300.729 76.3828 300.752 76.3557 300.795 76.3084C300.837 76.2616 300.908 76.1851 301.007 76.0859C301.182 75.9116 301.569 75.54 302.159 75.1036C302.463 74.8783 302.87 74.5991 303.377 74.3081C303.88 74.0193 304.547 73.6801 305.368 73.3723L310.635 87.4172L315.902 101.462C319.238 100.211 321.409 98.1108 322.221 97.2992C323.312 96.2075 324.235 95.0554 324.961 94.0793C326.428 92.1056 327.954 89.6766 329.491 87.0419L316.534 79.4839ZM310.635 87.4172L317.946 74.3193C309.844 69.7974 301.016 67.5352 291.717 67.5352V82.5352V97.5352C295.98 97.5352 299.764 98.5276 303.325 100.515L310.635 87.4172ZM291.717 82.5352V67.5352C288.585 67.5352 283.557 68.0033 278.965 71.2343C273.41 75.1434 271.225 81.0796 271.225 86.4001H286.225H301.225C301.225 87.5286 301.021 89.2373 300.124 91.1305C299.191 93.1 297.788 94.6725 296.23 95.7685C293.47 97.7112 291.187 97.5352 291.717 97.5352V82.5352ZM286.225 86.4001H271.225C271.225 92.8206 274.133 98.1392 278.224 101.821L288.259 90.6719L298.293 79.5225C298.855 80.028 299.644 80.912 300.276 82.2396C300.927 83.6072 301.225 85.0557 301.225 86.4001H286.225ZM288.259 90.6719L279.436 102.803C282.209 104.819 286.02 106.759 289.876 108.549L296.192 94.9437L302.509 81.3386C300.783 80.5375 299.455 79.8755 298.473 79.3465C297.425 78.7826 297.052 78.5191 297.082 78.5409L288.259 90.6719ZM296.192 94.9437L290.284 108.731C293.811 110.242 296.427 111.51 298.265 112.531L305.55 99.419L312.834 86.3066C309.79 84.6154 306.168 82.8997 302.101 81.1566L296.192 94.9437ZM305.55 99.419L298.563 112.693C300.12 113.512 302.203 114.857 304.849 116.927L314.093 105.115L323.338 93.3021C319.745 90.4904 316.133 88.0385 312.536 86.1452L305.55 99.419ZM314.093 105.115L304.783 116.875C307.714 119.196 308.857 121.584 308.857 125.253H323.857H338.857C338.857 112.378 333.492 101.34 323.404 93.354L314.093 105.115ZM323.857 125.253H308.857C308.857 132.421 306.655 137.134 302.783 140.787L313.076 151.698L323.369 162.609C333.873 152.7 338.857 139.783 338.857 125.253H323.857ZM313.076 151.698L302.893 140.684C299.558 143.768 293.052 146.665 280.529 146.665V161.665V176.665C297.027 176.665 312.22 172.918 323.259 162.712L313.076 151.698ZM280.529 161.665V146.665C272.612 146.665 265.847 145.333 260.023 142.923L254.288 156.783L248.553 170.643C258.46 174.743 269.189 176.665 280.529 176.665V161.665ZM254.288 156.783L260.023 142.923C258.753 142.397 257.895 141.925 257.347 141.566C256.801 141.209 256.652 141.022 256.707 141.084C256.78 141.168 257.016 141.47 257.218 141.991C257.423 142.521 257.49 143.015 257.49 143.358H242.49H227.49C227.49 157.97 238.288 166.396 248.553 170.643L254.288 156.783ZM242.49 143.358H257.49C257.49 141.909 257.823 139.884 258.967 137.157L245.134 131.356L231.301 125.555C228.919 131.235 227.49 137.211 227.49 143.358H242.49ZM245.134 131.356L258.805 137.53C259.516 135.955 260.056 135.035 260.369 134.577C260.516 134.362 260.551 134.34 260.456 134.444C260.364 134.544 260.07 134.849 259.548 135.222L250.83 123.016L242.111 110.81C236.817 114.591 233.578 120.501 231.464 125.182L245.134 131.356ZM389.292 85.7899L376.204 93.1189L381.689 102.914L392.634 100.413L389.292 85.7899ZM387.054 60.9727L381.029 47.2359L380.524 47.4576L380.036 47.7159L387.054 60.9727ZM447.47 65.4479L436.166 75.3085L436.219 75.3688L436.272 75.4285L447.47 65.4479ZM455.81 125.457H440.81V140.457H455.81V125.457ZM468.015 129.525L454.336 135.681L454.462 135.96L454.599 136.233L468.015 129.525ZM466.388 154.749L453.131 147.731L453.049 147.885L452.971 148.041L466.388 154.749ZM439.129 155.766L449.031 144.499L448.771 144.27L448.5 144.053L439.129 155.766ZM434.451 149.867L448.023 143.48L437.726 121.598L422.698 140.546L434.451 149.867ZM380.341 151.087L391.154 140.691V140.691L380.341 151.087ZM421.025 92.9096V107.91H436.025V92.9096H421.025ZM419.194 84.1625L408.588 94.7691L409.248 95.4295L409.985 96.0028L419.194 84.1625ZM408.006 130.135L397.4 140.742L397.63 140.972L397.87 141.193L408.006 130.135ZM421.025 129.322L431.632 139.928L436.025 135.535V129.322H421.025ZM421.025 113.658H436.025V98.6583H421.025V113.658ZM389.292 85.7899L402.379 78.4608C400.78 75.6047 399.777 73.3642 399.197 71.6845C398.6 69.9569 398.596 69.2444 398.596 69.3129H383.596H368.596C368.596 77.4469 372.052 85.7046 376.204 93.1189L389.292 85.7899ZM383.596 69.3129H398.596C398.596 68.314 398.751 68.6702 398.317 69.7184C397.773 71.0291 396.468 72.9611 394.072 74.2295L387.054 60.9727L380.036 47.7159C370.138 52.9557 368.596 63.3092 368.596 69.3129H383.596ZM387.054 60.9727L393.079 74.7095C398.118 72.4995 406.349 70.8872 418.787 70.8872V55.8872V40.8872C404.374 40.8872 391.45 42.6653 381.029 47.2359L387.054 60.9727ZM418.787 55.8872V70.8872C430.584 70.8872 434.793 73.7346 436.166 75.3085L447.47 65.4479L458.773 55.5874C449.026 44.4136 434.114 40.8872 418.787 40.8872V55.8872ZM447.47 65.4479L436.272 75.4285C438.442 77.8627 440.81 82.9404 440.81 93.3164H455.81H470.81C470.81 79.0108 467.618 65.5095 458.667 55.4674L447.47 65.4479ZM455.81 93.3164H440.81V125.457H455.81H470.81V93.3164H455.81ZM455.81 125.457V140.457H462.726V125.457V110.457H455.81V125.457ZM462.726 125.457V140.457C460.701 140.457 458.473 139.78 456.632 138.363C455.003 137.11 454.412 135.85 454.336 135.681L468.015 129.525L481.694 123.37C480.397 120.488 478.315 117.193 474.923 114.584C471.318 111.811 467.057 110.457 462.726 110.457V125.457ZM468.015 129.525L454.599 136.233C454.505 136.047 454.637 136.24 454.783 137.04C454.926 137.831 455.049 139.026 455.049 140.713H470.049H485.049C485.049 134.823 484.254 128.462 481.431 122.817L468.015 129.525ZM470.049 140.713H455.049C455.049 142.777 454.543 145.063 453.131 147.731L466.388 154.749L479.644 161.767C483.114 155.213 485.049 148.142 485.049 140.713H470.049ZM466.388 154.749L452.971 148.041C452.575 148.833 452.6 148.417 453.477 147.783C453.93 147.455 454.505 147.149 455.17 146.937C455.83 146.728 456.409 146.665 456.827 146.665V161.665V176.665C468.184 176.665 475.766 169.533 479.804 161.457L466.388 154.749ZM456.827 161.665V146.665C452.278 146.665 450.179 145.507 449.031 144.499L439.129 155.766L429.228 167.034C437.03 173.89 446.73 176.665 456.827 176.665V161.665ZM439.129 155.766L448.5 144.053C448.213 143.824 448.11 143.665 448.023 143.48L434.451 149.867L420.878 156.254C422.961 160.68 425.977 164.454 429.759 167.479L439.129 155.766ZM434.451 149.867L422.698 140.546C420.139 143.772 415.473 146.665 405.362 146.665V161.665V176.665C421.56 176.665 436.286 171.693 446.203 159.188L434.451 149.867ZM405.362 161.665V146.665C399.487 146.665 395.068 144.762 391.154 140.691L380.341 151.087L369.529 161.484C379.175 171.517 391.437 176.665 405.362 176.665V161.665ZM380.341 151.087L391.154 140.691C387.012 136.383 385.17 131.75 385.17 126.067H370.17H355.17C355.17 139.641 360.109 151.688 369.529 161.484L380.341 151.087ZM370.17 126.067H385.17C385.17 118.103 387.424 114.616 389.707 112.708C392.505 110.369 398.337 107.91 409.837 107.91V92.9096V77.9096C394.892 77.9096 380.891 80.9767 370.467 89.6901C359.528 98.834 355.17 111.926 355.17 126.067H370.17ZM409.837 92.9096V107.91H421.025V92.9096V77.9096H409.837V92.9096ZM421.025 92.9096H436.025V90.8754H421.025H406.025V92.9096H421.025ZM421.025 90.8754H436.025C436.025 88.3943 435.826 85.4934 435.039 82.6059C434.286 79.844 432.572 75.5644 428.403 72.3223L419.194 84.1625L409.985 96.0028C407.037 93.7099 406.239 91.0238 406.096 90.4995C405.919 89.8496 406.025 89.8305 406.025 90.8754H421.025ZM419.194 84.1625L429.801 73.5559C426.134 69.8889 421.695 68.7164 419.411 68.248C416.709 67.6937 413.882 67.5352 411.261 67.5352V82.5352V97.5352C412.844 97.5352 413.441 97.6479 413.383 97.636C413.33 97.6251 412.835 97.5241 412.089 97.1987C411.366 96.883 409.997 96.1786 408.588 94.7691L419.194 84.1625ZM411.261 82.5352V67.5352C404.392 67.5352 395.753 68.9262 385.949 71.167L389.292 85.7899L392.634 100.413C401.816 98.3139 407.824 97.5352 411.261 97.5352V82.5352ZM405.565 123.219H390.565C390.565 128.951 392.195 135.537 397.4 140.742L408.006 130.135L418.613 119.529C419.481 120.397 420.029 121.368 420.32 122.193C420.589 122.953 420.565 123.372 420.565 123.219H405.565ZM408.006 130.135L397.87 141.193C402.565 145.496 408.344 147.373 414.109 147.373V132.373V117.373C414.429 117.373 415.084 117.425 415.916 117.73C416.773 118.045 417.54 118.526 418.142 119.078L408.006 130.135ZM414.109 132.373V147.373C421.143 147.373 427.143 144.417 431.632 139.928L421.025 129.322L410.418 118.715C410.529 118.604 410.949 118.225 411.716 117.886C412.514 117.534 413.36 117.373 414.109 117.373V132.373ZM421.025 129.322H436.025V113.658H421.025H406.025V129.322H421.025ZM421.025 113.658V98.6583H415.329V113.658V128.658H421.025V113.658ZM415.329 113.658V98.6583C409.841 98.6583 402.954 100.002 397.512 105.331C392.011 110.717 390.565 117.639 390.565 123.219H405.565H420.565C420.565 122.425 420.747 124.567 418.501 126.766C416.313 128.908 414.308 128.658 415.329 128.658V113.658ZM549.602 160.852L549.002 175.84L549.302 175.852H549.602V160.852ZM529.26 86.1967H544.26V71.1967H529.26V86.1967ZM515.428 63.2103L500.602 60.9295L500.559 61.2095L500.526 61.491L515.428 63.2103ZM529.26 57.9214V72.9214H544.26V57.9214H529.26ZM563.638 52.2257H548.638V52.4935L548.647 52.7611L563.638 52.2257ZM563.841 57.9214L548.851 58.4568L549.367 72.9214H563.841V57.9214ZM566.689 86.4001V71.4001H551.689V86.4001H566.689ZM566.689 158.411H551.689C551.689 153.736 553.888 150.303 555.816 148.376C557.513 146.679 559.16 145.928 559.712 145.691C560.836 145.21 561.327 145.245 560.296 145.392C558.538 145.643 555.133 145.852 549.602 145.852V160.852V175.852C555.462 175.852 560.601 175.653 564.539 175.091C566.356 174.831 568.983 174.357 571.53 173.266C572.648 172.787 581.689 168.893 581.689 158.411H566.689ZM549.602 160.852L550.201 145.864C543.524 145.596 538.982 145.26 536.279 144.909C534.808 144.718 534.563 144.605 534.973 144.732C535.073 144.763 536.362 145.139 537.927 146.187C539.053 146.942 544.26 150.719 544.26 158.207H529.26H514.26C514.26 166.001 519.679 170.072 521.229 171.111C523.218 172.443 525.142 173.093 526.09 173.386C528.195 174.039 530.493 174.409 532.412 174.659C536.489 175.189 542.119 175.564 549.002 175.84L549.602 160.852ZM529.26 158.207H544.26V86.1967H529.26H514.26V158.207H529.26ZM529.26 86.1967V71.1967H518.886V86.1967V101.197H529.26V86.1967ZM518.886 86.1967V71.1967C520.787 71.1967 522.744 71.6263 524.563 72.5228C526.333 73.3951 527.593 74.5204 528.425 75.4768C529.234 76.4069 529.687 77.2309 529.913 77.698C530.144 78.1754 530.232 78.48 530.241 78.5118C530.248 78.5336 530.118 78.0597 530.002 76.8589C529.891 75.7095 529.817 74.1636 529.817 72.1608H514.817H499.817C499.817 77.2065 500.144 82.4362 501.427 86.8637C502.063 89.0556 503.266 92.2632 505.787 95.1622C508.691 98.5024 513.22 101.197 518.886 101.197V86.1967ZM514.817 72.1608H529.817C529.817 70.4877 529.961 68.1162 530.329 64.9297L515.428 63.2103L500.526 61.491C500.08 65.3564 499.817 68.9518 499.817 72.1608H514.817ZM515.428 63.2103L530.253 65.4912C530.422 64.3948 530.46 65.2321 529.59 66.7395C529.094 67.5998 528.03 69.1496 526.073 70.5249C523.936 72.0267 521.283 72.9214 518.479 72.9214V57.9214V42.9214C510.482 42.9214 505.69 48.1331 503.604 51.7478C501.718 55.0181 500.976 58.5 500.602 60.9295L515.428 63.2103ZM518.479 57.9214V72.9214H529.26V57.9214V42.9214H518.479V57.9214ZM529.26 57.9214H544.26V40.0205H529.26H514.26V57.9214H529.26ZM529.26 40.0205H544.26C544.26 42.4579 543.58 44.7999 542.389 46.7844C541.268 48.653 539.938 49.81 539.047 50.4466C537.468 51.5744 536.37 51.7129 537.006 51.5613C538.096 51.3018 540.941 50.9521 546.347 50.9521V35.9521V20.9521C540.362 20.9521 534.663 21.2806 530.057 22.3771C527.846 22.9037 524.612 23.8897 521.609 26.0346C518.222 28.4538 514.26 33.1266 514.26 40.0205H529.26ZM546.347 35.9521V50.9521C551.889 50.9521 555.075 51.2311 556.54 51.5069C557.411 51.6708 556.592 51.6407 555.181 50.8442C554.407 50.407 552.856 49.4057 551.419 47.5121C549.826 45.4125 548.638 42.5357 548.638 39.2068H563.638H578.638C578.638 30.7523 572.682 26.274 569.933 24.7216C567.082 23.1114 564.101 22.4033 562.09 22.0247C557.792 21.2156 552.333 20.9521 546.347 20.9521V35.9521ZM563.638 39.2068H548.638V52.2257H563.638H578.638V39.2068H563.638ZM563.638 52.2257L548.647 52.7611L548.851 58.4568L563.841 57.9214L578.832 57.3861L578.628 51.6903L563.638 52.2257ZM563.841 57.9214V72.9214H581.132V57.9214V42.9214H563.841V57.9214ZM581.132 57.9214V72.9214C578.703 72.9214 576.353 72.259 574.337 71.0729C572.429 69.9506 571.217 68.5991 570.521 67.6443C569.279 65.9392 569.058 64.6436 569.149 65.0212C569.291 65.6053 569.59 67.711 569.59 72.1608H584.59H599.59C599.59 67.1176 599.313 62.1037 598.302 57.9413C597.817 55.9457 596.875 52.8702 594.768 49.9785C592.369 46.685 587.792 42.9214 581.132 42.9214V57.9214ZM584.59 72.1608H569.59C569.59 76.6105 569.291 78.7162 569.149 79.3003C569.058 79.678 569.279 78.3824 570.521 76.6773C571.217 75.7225 572.429 74.371 574.337 73.2486C576.353 72.0626 578.703 71.4001 581.132 71.4001V86.4001V101.4C587.792 101.4 592.369 97.6366 594.768 94.343C596.875 91.4514 597.817 88.3759 598.302 86.3803C599.313 82.2179 599.59 77.2039 599.59 72.1608H584.59ZM581.132 86.4001V71.4001H566.689V86.4001V101.4H581.132V86.4001ZM566.689 86.4001H551.689V158.411H566.689H581.689V86.4001H566.689ZM632.02 158.411H617.02C617.02 150.474 622.778 146.679 623.929 145.979C625.586 144.97 626.945 144.639 627.064 144.608C627.541 144.484 627.389 144.57 626.042 144.688C623.595 144.9 619.446 145.038 613.306 145.038V160.038V175.038C619.642 175.038 624.85 174.904 628.641 174.575C630.413 174.421 632.601 174.168 634.637 173.637C635.536 173.402 637.48 172.851 639.527 171.605C641.067 170.667 647.02 166.618 647.02 158.411H632.02ZM613.306 160.038V145.038C607.222 145.038 603.063 144.918 600.573 144.726C599.215 144.622 598.967 144.539 599.324 144.621C599.374 144.633 600.623 144.894 602.195 145.741C602.994 146.171 604.628 147.146 606.202 148.962C607.928 150.954 609.794 154.256 609.794 158.614H594.794H579.794C579.794 167.722 587.034 171.65 587.972 172.155C589.93 173.209 591.758 173.663 592.578 173.853C594.479 174.291 596.545 174.505 598.272 174.638C601.952 174.921 607.049 175.038 613.306 175.038V160.038ZM594.794 158.614H609.794V58.7351H594.794H579.794V158.614H594.794ZM594.794 58.7351H609.794C609.794 63.0931 607.928 66.3953 606.202 68.3866C604.628 70.2035 602.994 71.1784 602.195 71.6084C600.623 72.4551 599.374 72.7166 599.324 72.728C598.967 72.8106 599.215 72.7274 600.573 72.623C603.063 72.4314 607.222 72.3112 613.306 72.3112V57.3112V42.3112C607.049 42.3112 601.952 42.4282 598.272 42.7113C596.545 42.8442 594.479 43.0577 592.578 43.4963C591.758 43.6857 589.93 44.14 587.972 45.1943C587.034 45.6996 579.794 49.6272 579.794 58.7351H594.794ZM613.306 57.3112V72.3112C619.471 72.3112 623.751 72.414 626.365 72.5845C627.772 72.6762 628.163 72.7564 627.97 72.7186C627.877 72.7003 627.631 72.6499 627.283 72.5515C626.971 72.4634 626.317 72.2647 625.498 71.8909C624.814 71.5787 623.15 70.7621 621.458 69.1064C619.638 67.3267 617.02 63.7457 617.02 58.5317H632.02H647.02C647.02 53.216 644.353 49.5364 642.437 47.6614C640.647 45.9103 638.836 45.0016 637.957 44.6003C636.142 43.7716 634.473 43.4221 633.731 43.2768C631.978 42.9339 630.031 42.7598 628.318 42.6481C624.693 42.4117 619.617 42.3112 613.306 42.3112V57.3112ZM632.02 58.5317H617.02V158.411H632.02H647.02V58.5317H632.02ZM632.02 46.5299H617.02C617.02 42.1198 618.93 38.798 620.665 36.8172C622.249 35.0097 623.886 34.0455 624.676 33.6244C626.238 32.7927 627.473 32.538 627.512 32.5291C627.851 32.4518 627.581 32.5363 626.203 32.6411C623.673 32.8337 619.458 32.9539 613.306 32.9539V47.9539V62.9539C619.629 62.9539 624.772 62.8368 628.48 62.5547C630.221 62.4221 632.291 62.21 634.189 61.7768C635.008 61.5898 636.828 61.1423 638.779 60.1029C639.658 59.6351 647.02 55.7207 647.02 46.5299H632.02ZM613.306 47.9539V32.9539C607.209 32.9539 602.984 32.851 600.409 32.6813C599.022 32.5898 598.651 32.5107 598.862 32.5524C598.961 32.572 599.212 32.6242 599.566 32.7253C599.884 32.8161 600.545 33.0193 601.37 33.4C602.062 33.7199 603.727 34.5475 605.415 36.2161C607.233 38.0144 609.794 41.5795 609.794 46.7334H594.794H579.794C579.794 51.989 582.404 55.6526 584.319 57.5462C586.102 59.3102 587.912 60.23 588.798 60.6388C590.621 61.4804 592.298 61.8352 593.041 61.9822C594.795 62.3292 596.738 62.5043 598.435 62.6163C602.031 62.8533 607.061 62.9539 613.306 62.9539V47.9539ZM594.794 46.7334H609.794V17.441H594.794H579.794V46.7334H594.794ZM594.794 17.441H609.794C609.794 23.7081 606.041 27.46 604.229 28.8536C602.483 30.1972 600.943 30.6996 600.648 30.7968C599.897 31.0443 599.8 30.9642 601.061 30.8256C603.301 30.5794 607.26 30.4068 613.306 30.4068V15.4068V0.406784C607.011 0.406784 601.714 0.573181 597.784 1.00508C595.96 1.20552 593.548 1.54921 591.255 2.30519C590.189 2.65674 588.07 3.4346 585.938 5.07484C583.741 6.76509 579.794 10.8348 579.794 17.441H594.794ZM613.306 15.4068V30.4068C619.471 30.4068 623.751 30.5096 626.365 30.6801C627.772 30.7718 628.163 30.852 627.97 30.8142C627.877 30.7959 627.631 30.7455 627.283 30.6472C626.971 30.559 626.317 30.3603 625.498 29.9865C624.814 29.6743 623.15 28.8577 621.458 27.202C619.638 25.4223 617.02 21.8413 617.02 16.6273H632.02H647.02C647.02 11.3116 644.353 7.6321 642.437 5.75703C640.647 4.00598 638.836 3.09723 637.957 2.69594C636.142 1.86719 634.473 1.51772 633.731 1.37244C631.978 1.02956 630.031 0.855423 628.318 0.743713C624.693 0.507339 619.617 0.406784 613.306 0.406784V15.4068ZM632.02 16.6273H617.02V46.5299H632.02H647.02V16.6273H632.02ZM727.309 154.139L720.888 140.583L720.287 140.868L719.713 141.204L727.309 154.139ZM660.384 148.036L649.778 158.643L649.817 158.682L649.857 158.721L660.384 148.036ZM659.774 70.7368L648.648 60.6771L648.609 60.7194L648.572 60.7619L659.774 70.7368ZM724.868 66.2616L714.569 77.1668L714.619 77.214L714.669 77.2606L724.868 66.2616ZM684.185 124.44V109.44H669.185V124.44H684.185ZM687.439 132.983L678.439 144.983L678.855 145.295L679.29 145.577L687.439 132.983ZM724.462 128.711L731.255 142.085L733.381 141.005L735.068 139.318L724.462 128.711ZM726.292 131.559L713.057 138.618L713.125 138.745L713.194 138.87L726.292 131.559ZM686.829 89.248L696.518 100.699L696.555 100.668L696.591 100.637L686.829 89.248ZM684.185 102.267H669.185V117.267H684.185V102.267ZM727.309 154.139L719.713 141.204C714.149 144.472 706.023 146.665 694.356 146.665V161.665V176.665C709.539 176.665 723.382 173.841 734.906 167.073L727.309 154.139ZM694.356 161.665V146.665C684.707 146.665 677.214 143.56 670.912 137.351L660.384 148.036L649.857 158.721C661.999 170.684 677.153 176.665 694.356 176.665V161.665ZM660.384 148.036L670.991 137.43C665.219 131.658 661.552 123.158 661.552 109.997H646.552H631.552C631.552 129.112 637.107 145.972 649.778 158.643L660.384 148.036ZM646.552 109.997H661.552C661.552 96.5268 665.133 87.2749 670.977 80.7118L659.774 70.7368L648.572 60.7619C636.786 73.9982 631.552 90.9197 631.552 109.997H646.552ZM659.774 70.7368L670.901 80.7966C676.956 74.0997 684.143 70.8872 693.542 70.8872V55.8872V40.8872C675.818 40.8872 660.494 47.5745 648.648 60.6771L659.774 70.7368ZM693.542 55.8872V70.8872C704.627 70.8872 710.879 73.6822 714.569 77.1668L724.868 66.2616L735.168 55.3564C724.211 45.0085 709.579 40.8872 693.542 40.8872V55.8872ZM724.868 66.2616L714.669 77.2606C719.162 81.4268 721.056 85.8888 721.056 91.4856H736.056H751.056C751.056 77.2829 745.492 64.929 735.068 55.2626L724.868 66.2616ZM736.056 91.4856H721.056C721.056 99.5774 718.83 103.075 716.746 104.89C714.266 107.05 708.99 109.44 698.22 109.44V124.44V139.44C712.675 139.44 726.317 136.337 736.449 127.512C746.977 118.343 751.056 105.363 751.056 91.4856H736.056ZM698.22 124.44V109.44H684.185V124.44V139.44H698.22V124.44ZM684.185 124.44H669.185C669.185 130.782 670.89 139.321 678.439 144.983L687.439 132.983L696.439 120.983C697.895 122.075 698.677 123.398 699.016 124.287C699.3 125.034 699.185 125.224 699.185 124.44H684.185ZM687.439 132.983L679.29 145.577C685.053 149.306 691.713 150.221 697.407 150.221V135.221V120.221C696.057 120.221 695.282 120.101 694.946 120.026C694.614 119.951 694.944 119.973 695.588 120.39L687.439 132.983ZM697.407 135.221V150.221C709.284 150.221 720.627 147.483 731.255 142.085L724.462 128.711L717.669 115.338C711.209 118.619 704.516 120.221 697.407 120.221V135.221ZM724.462 128.711L735.068 139.318C732.212 142.174 728.385 143.699 724.493 143.699C721.145 143.699 718.671 142.584 717.476 141.947C715.199 140.733 713.845 139.222 713.595 138.949C713.111 138.421 712.792 137.989 712.67 137.821C712.522 137.617 712.43 137.475 712.403 137.433C712.363 137.371 712.552 137.671 713.057 138.618L726.292 131.559L739.528 124.5C738.948 123.413 738.289 122.222 737.639 121.21C737.397 120.835 736.709 119.768 735.71 118.677C735.366 118.302 733.934 116.724 731.593 115.476C730.366 114.822 727.864 113.699 724.493 113.699C720.576 113.699 716.728 115.232 713.855 118.105L724.462 128.711ZM726.292 131.559L713.194 138.87C715.914 143.742 716.174 146.045 716.174 146.409H731.174H746.174C746.174 138.636 743.18 131.039 739.39 124.249L726.292 131.559ZM731.174 146.409H716.174C716.174 146.853 716.086 145.995 716.792 144.583C717.631 142.904 719.111 141.425 720.888 140.583L727.309 154.139L733.731 167.695C743.523 163.057 746.174 153.573 746.174 146.409H731.174ZM701.882 95.3506H716.882C716.882 90.2801 715.646 83.7051 710.531 78.4648C705.35 73.1576 698.727 71.807 693.542 71.807V86.807V101.807C693.917 101.807 691.464 101.88 689.063 99.4209C686.728 97.0286 686.882 94.7254 686.882 95.3506H701.882ZM693.542 86.807V71.807C687.504 71.807 681.773 73.8252 677.067 77.8592L686.829 89.248L696.591 100.637C696.24 100.938 695.718 101.274 695.057 101.514C694.403 101.752 693.858 101.807 693.542 101.807V86.807ZM686.829 89.248L677.14 77.7972C671.079 82.9253 669.185 89.9478 669.185 95.9608H684.185H699.185C699.185 95.9138 699.195 96.5455 698.802 97.5429C698.373 98.6316 697.609 99.7761 696.518 100.699L686.829 89.248ZM684.185 95.9608H669.185V102.267H684.185H699.185V95.9608H684.185ZM684.185 102.267V117.267H695.169V102.267V87.2668H684.185V102.267ZM695.169 102.267V117.267C699.835 117.267 706.062 116.039 710.968 110.985C715.792 106.014 716.882 99.8578 716.882 95.3506H701.882H686.882C686.882 95.336 686.878 94.7246 687.191 93.7591C687.525 92.7263 688.2 91.3681 689.44 90.0907C692.108 87.3417 694.979 87.2668 695.169 87.2668V102.267Z" fill="#75578D" mask="url(#path-1-outside-1_84_4)"/>
</g>
<defs>
<filter id="filter0_d_84_4" x="0" y="0" width="765.057" height="190.665" filterUnits="userSpaceOnUse" color-interpolation-filters="sRGB">
<feFlood flood-opacity="0" result="BackgroundImageFix"/>
<feColorMatrix in="SourceAlpha" type="matrix" values="0 0 0 0 0 0 0 0 0 0 0 0 0 0 0 0 0 0 127 0" result="hardAlpha"/>
<feOffset dx="10" dy="10"/>
<feGaussianBlur stdDeviation="2"/>
<feComposite in2="hardAlpha" operator="out"/>
<feColorMatrix type="matrix" values="0 0 0 0 0 0 0 0 0 0 0 0 0 0 0 0 0 0 0.6 0"/>
<feBlend mode="normal" in2="BackgroundImageFix" result="effect1_dropShadow_84_4"/>
<feBlend mode="normal" in="SourceGraphic" in2="effect1_dropShadow_84_4" result="shape"/>
</filter>
</defs>
</svg>
