<svg width="1112" height="352" viewBox="0 0 1112 352" fill="none" xmlns="http://www.w3.org/2000/svg">
<g filter="url(#filter0_d_84_3)">
<mask id="path-1-outside-1_84_3" maskUnits="userSpaceOnUse" x="-3.19124" y="-3.83974" width="1104.44" height="352.174" fill="black">
<rect fill="white" x="-3.19124" y="-3.83974" width="1104.44" height="352.174"/>
<path d="M15.0597 189.592C14.4167 188.186 21.0539 186.341 34.9715 184.057C50.3611 181.531 58.4653 181.507 59.284 183.983L82.9892 266.878L90.2331 177.873C90.5728 175.756 95.6272 173.896 105.396 172.293C115.165 170.69 120.538 170.77 121.515 172.533L156.524 255.222L154.165 168C154.191 166.484 157.105 164.975 162.905 163.473C168.705 161.972 173.412 160.924 177.025 160.331C191.077 158.025 198.055 157.842 197.961 159.781L195.514 296.854C195.308 298.949 191.736 301.047 184.797 303.148C177.858 305.249 172.181 306.662 167.764 307.386C151.17 310.11 142.164 309.664 140.747 306.048L118.037 253.087L112.209 310.526C112.069 313.022 107.671 315.531 99.0146 318.051C94.5305 319.199 90.0135 320.146 85.4635 320.893L72.5177 322.399C63.5317 322.912 58.5733 322.008 57.6427 319.687L15.0597 189.592ZM267.225 289.002C267.423 290.206 261.901 291.731 250.66 293.576C239.552 295.399 233.845 295.373 233.538 293.5L210.971 155.997C210.818 155.06 212.782 154.051 216.865 152.968C220.947 151.886 224.394 151.114 227.204 150.653C238.445 148.808 244.263 149.09 244.659 151.499L251.247 191.646C258.368 188.141 263.869 186.07 267.75 185.433C277.92 183.764 286.4 185.19 293.189 189.71C299.955 194.097 304.546 203.65 306.962 218.371L317.175 280.598C317.372 281.803 312.252 283.262 301.814 284.975C289.972 286.506 283.974 286.803 283.82 285.866L274.135 226.85C273.058 220.293 270.379 217.366 266.097 218.069C263.153 218.552 259.971 220.517 256.551 223.964L267.225 289.002ZM371.033 272.172C371.208 273.242 365.14 274.788 352.829 276.808C340.651 278.807 334.485 279.338 334.331 278.401L318.156 179.841C318.002 178.904 324.014 177.436 336.192 175.438C348.504 173.417 354.726 172.808 354.857 173.611L371.033 272.172ZM352.914 161.768C353.068 162.705 346.989 164.183 334.677 166.204C322.499 168.203 316.344 168.8 316.212 167.997L311.469 139.092C311.249 137.753 317.228 136.085 329.406 134.087C341.718 132.066 347.939 131.457 348.071 132.26L352.914 161.768ZM435.355 261.615C435.619 263.221 430.13 264.947 418.889 266.792C405.419 268.452 398.585 268.681 398.387 267.476L386.725 196.416L376.488 198.097C373.812 198.536 371.716 194.139 370.2 184.905C369.805 182.496 369.522 179.519 369.353 175.974C369.317 172.406 370.035 170.502 371.507 170.26L382.146 168.514L379.247 150.85C378.808 148.173 384.209 145.913 395.45 144.068C406.825 142.201 412.688 142.338 413.04 144.479L415.148 157.326L416.271 162.914L433.333 160.114C435.608 159.741 437.515 164.238 439.052 173.605C440.589 182.973 440.221 187.843 437.946 188.217L423.693 190.556L435.355 261.615ZM538.275 240.396C530.657 246.731 520.224 250.986 506.975 253.16C493.727 255.334 481.817 252.685 471.245 245.212C460.652 237.606 454.049 225.84 451.435 209.915C448.8 193.856 451.03 180.229 458.125 169.032C465.354 157.814 475.659 151.106 489.042 148.91C502.424 146.714 513.288 148.435 521.635 154.074C530.115 159.691 535.157 167.384 536.76 177.153C540.318 198.832 529.652 211.715 504.761 215.8L490.91 218.073C491.569 222.087 493.101 224.722 495.505 225.976C498.022 227.075 501.421 227.273 505.704 226.57C515.071 225.033 523.619 221.431 531.347 215.765C531.459 215.61 532.215 216.447 533.615 218.279C537.771 223.506 540.179 228.127 540.837 232.142C541.474 236.023 540.62 238.774 538.275 240.396ZM503.663 186.502C502.74 180.881 499.536 178.521 494.049 179.421C491.507 179.839 489.43 181.004 487.82 182.917C486.322 184.675 485.815 187.026 486.298 189.97L487.319 196.193L498.159 194.414C502.575 193.689 504.41 191.052 503.663 186.502ZM571.195 98.322C570.552 96.9159 577.189 95.0708 591.107 92.7867C606.496 90.261 614.601 90.2366 615.419 92.7133L639.124 175.608L646.368 86.6034C646.708 84.4863 651.762 82.6261 661.531 81.0228C671.301 79.4196 676.673 79.4998 677.65 81.2635L712.659 163.952L710.301 76.7296C710.327 75.2136 713.24 73.7048 719.04 72.2032C724.841 70.7016 729.547 69.6543 733.161 69.0613C747.212 66.7552 754.191 66.5719 754.097 68.5113L751.649 205.584C751.443 207.679 747.871 209.777 740.932 211.878C733.993 213.979 728.316 215.392 723.9 216.116C707.306 218.84 698.3 218.394 696.882 214.778L674.173 161.817L668.345 219.256C668.205 221.752 663.806 224.261 655.15 226.781C650.666 227.929 646.149 228.876 641.599 229.623L628.653 231.129C619.667 231.642 614.709 230.738 613.778 228.417L571.195 98.322ZM826.605 197.406C826.781 198.476 820.713 200.022 808.401 202.042C796.223 204.041 790.057 204.572 789.903 203.635L773.728 105.075C773.575 104.138 779.587 102.67 791.764 100.672C804.076 98.6511 810.298 98.0423 810.43 98.8452L826.605 197.406ZM808.486 87.0019C808.64 87.9387 802.561 89.4173 790.249 91.4379C778.071 93.4364 771.916 94.0343 771.785 93.2313L767.041 64.3256C766.821 62.9874 772.8 61.319 784.978 59.3204C797.29 57.2999 803.512 56.6911 803.643 57.494L808.486 87.0019ZM886.712 187.541C886.866 188.478 882.125 189.737 872.49 191.318C859.042 193.113 852.23 193.475 852.054 192.405L841.38 127.367L836.161 128.223C832.682 128.794 829.924 126.223 827.887 120.511C827.334 118.815 826.914 117.097 826.629 115.358C825.948 111.209 826.07 106.929 826.995 102.517C828.438 96.2334 831.702 92.6744 836.787 91.8398C841.872 91.0052 846.62 91.4629 851.03 93.2129C855.44 94.9628 858.512 96.9324 860.245 99.1216C867.49 90.5115 876.934 85.2511 888.576 83.3404C900.219 81.4297 909.166 83.1909 915.417 88.624C921.668 94.0572 925.969 103.933 928.319 118.252L938.202 178.473C938.466 180.078 932.843 181.826 921.334 183.714C909.959 185.581 904.14 185.712 903.876 184.106L894.356 126.094C893.258 119.403 890.367 116.441 885.683 117.21C884.345 117.43 882.57 118.339 880.359 119.939C878.126 121.405 876.719 122.46 876.137 123.106L886.712 187.541ZM953.803 140.662C965.718 145.441 974.821 147.314 981.111 146.281C985.125 145.623 986.902 143.888 986.441 141.078C986.112 139.07 982.204 137.032 974.718 134.962C956.87 130.882 946.672 121.081 944.125 105.557C942.499 95.6546 944.872 87.5006 951.242 81.0956C957.612 74.6905 965.815 70.6644 975.852 69.0172C986.022 67.3481 994.763 67.0131 1002.07 68.0122C1009.52 68.9894 1013.52 71.2177 1014.1 74.697C1014.58 77.6412 1013.74 81.7636 1011.59 87.0644C1009.57 92.3432 1008.06 95.2712 1007.05 95.8484C1000.77 93.581 994.286 92.9964 987.594 94.0945C983.981 94.6875 982.383 96.2553 982.8 98.7979C983.064 100.404 983.964 101.699 985.5 102.684C987.147 103.513 989.988 104.49 994.02 105.615C998.031 106.605 1001.35 107.572 1003.98 108.515C1006.74 109.436 1009.86 110.849 1013.33 112.752C1020.59 116.783 1024.89 122.88 1026.23 131.044C1027.99 141.749 1025.87 151.03 1019.87 158.885C1013.86 166.606 1003.69 171.642 989.369 173.992C979.868 175.551 970.972 175.362 962.684 173.424C954.395 171.486 949.789 167.707 948.867 162.086C948.252 158.339 948.474 154.249 949.533 149.815C950.725 145.359 952.149 142.308 953.803 140.662ZM1072.09 115.065C1072.22 115.868 1067.47 117.06 1057.83 118.642C1048.33 120.201 1043.53 120.646 1043.42 119.977L1023.16 21.674C1022.99 20.6034 1028.99 19.0688 1041.16 17.0702C1053.48 15.0497 1059.71 14.5078 1059.86 15.4446L1072.09 115.065ZM1040.94 132.545C1040.79 131.608 1046.87 130.13 1059.18 128.109C1071.63 126.067 1077.92 125.447 1078.05 126.25L1082.79 155.155C1083.01 156.494 1076.9 158.184 1064.45 160.227C1052.14 162.247 1045.92 162.856 1045.79 162.053L1040.94 132.545Z"/>
</mask>
<path d="M15.0597 189.592C14.4167 188.186 21.0539 186.341 34.9715 184.057C50.3611 181.531 58.4653 181.507 59.284 183.983L82.9892 266.878L90.2331 177.873C90.5728 175.756 95.6272 173.896 105.396 172.293C115.165 170.69 120.538 170.77 121.515 172.533L156.524 255.222L154.165 168C154.191 166.484 157.105 164.975 162.905 163.473C168.705 161.972 173.412 160.924 177.025 160.331C191.077 158.025 198.055 157.842 197.961 159.781L195.514 296.854C195.308 298.949 191.736 301.047 184.797 303.148C177.858 305.249 172.181 306.662 167.764 307.386C151.17 310.11 142.164 309.664 140.747 306.048L118.037 253.087L112.209 310.526C112.069 313.022 107.671 315.531 99.0146 318.051C94.5305 319.199 90.0135 320.146 85.4635 320.893L72.5177 322.399C63.5317 322.912 58.5733 322.008 57.6427 319.687L15.0597 189.592ZM267.225 289.002C267.423 290.206 261.901 291.731 250.66 293.576C239.552 295.399 233.845 295.373 233.538 293.5L210.971 155.997C210.818 155.06 212.782 154.051 216.865 152.968C220.947 151.886 224.394 151.114 227.204 150.653C238.445 148.808 244.263 149.09 244.659 151.499L251.247 191.646C258.368 188.141 263.869 186.07 267.75 185.433C277.92 183.764 286.4 185.19 293.189 189.71C299.955 194.097 304.546 203.65 306.962 218.371L317.175 280.598C317.372 281.803 312.252 283.262 301.814 284.975C289.972 286.506 283.974 286.803 283.82 285.866L274.135 226.85C273.058 220.293 270.379 217.366 266.097 218.069C263.153 218.552 259.971 220.517 256.551 223.964L267.225 289.002ZM371.033 272.172C371.208 273.242 365.14 274.788 352.829 276.808C340.651 278.807 334.485 279.338 334.331 278.401L318.156 179.841C318.002 178.904 324.014 177.436 336.192 175.438C348.504 173.417 354.726 172.808 354.857 173.611L371.033 272.172ZM352.914 161.768C353.068 162.705 346.989 164.183 334.677 166.204C322.499 168.203 316.344 168.8 316.212 167.997L311.469 139.092C311.249 137.753 317.228 136.085 329.406 134.087C341.718 132.066 347.939 131.457 348.071 132.26L352.914 161.768ZM435.355 261.615C435.619 263.221 430.13 264.947 418.889 266.792C405.419 268.452 398.585 268.681 398.387 267.476L386.725 196.416L376.488 198.097C373.812 198.536 371.716 194.139 370.2 184.905C369.805 182.496 369.522 179.519 369.353 175.974C369.317 172.406 370.035 170.502 371.507 170.26L382.146 168.514L379.247 150.85C378.808 148.173 384.209 145.913 395.45 144.068C406.825 142.201 412.688 142.338 413.04 144.479L415.148 157.326L416.271 162.914L433.333 160.114C435.608 159.741 437.515 164.238 439.052 173.605C440.589 182.973 440.221 187.843 437.946 188.217L423.693 190.556L435.355 261.615ZM538.275 240.396C530.657 246.731 520.224 250.986 506.975 253.16C493.727 255.334 481.817 252.685 471.245 245.212C460.652 237.606 454.049 225.84 451.435 209.915C448.8 193.856 451.03 180.229 458.125 169.032C465.354 157.814 475.659 151.106 489.042 148.91C502.424 146.714 513.288 148.435 521.635 154.074C530.115 159.691 535.157 167.384 536.76 177.153C540.318 198.832 529.652 211.715 504.761 215.8L490.91 218.073C491.569 222.087 493.101 224.722 495.505 225.976C498.022 227.075 501.421 227.273 505.704 226.57C515.071 225.033 523.619 221.431 531.347 215.765C531.459 215.61 532.215 216.447 533.615 218.279C537.771 223.506 540.179 228.127 540.837 232.142C541.474 236.023 540.62 238.774 538.275 240.396ZM503.663 186.502C502.74 180.881 499.536 178.521 494.049 179.421C491.507 179.839 489.43 181.004 487.82 182.917C486.322 184.675 485.815 187.026 486.298 189.97L487.319 196.193L498.159 194.414C502.575 193.689 504.41 191.052 503.663 186.502ZM571.195 98.322C570.552 96.9159 577.189 95.0708 591.107 92.7867C606.496 90.261 614.601 90.2366 615.419 92.7133L639.124 175.608L646.368 86.6034C646.708 84.4863 651.762 82.6261 661.531 81.0228C671.301 79.4196 676.673 79.4998 677.65 81.2635L712.659 163.952L710.301 76.7296C710.327 75.2136 713.24 73.7048 719.04 72.2032C724.841 70.7016 729.547 69.6543 733.161 69.0613C747.212 66.7552 754.191 66.5719 754.097 68.5113L751.649 205.584C751.443 207.679 747.871 209.777 740.932 211.878C733.993 213.979 728.316 215.392 723.9 216.116C707.306 218.84 698.3 218.394 696.882 214.778L674.173 161.817L668.345 219.256C668.205 221.752 663.806 224.261 655.15 226.781C650.666 227.929 646.149 228.876 641.599 229.623L628.653 231.129C619.667 231.642 614.709 230.738 613.778 228.417L571.195 98.322ZM826.605 197.406C826.781 198.476 820.713 200.022 808.401 202.042C796.223 204.041 790.057 204.572 789.903 203.635L773.728 105.075C773.575 104.138 779.587 102.67 791.764 100.672C804.076 98.6511 810.298 98.0423 810.43 98.8452L826.605 197.406ZM808.486 87.0019C808.64 87.9387 802.561 89.4173 790.249 91.4379C778.071 93.4364 771.916 94.0343 771.785 93.2313L767.041 64.3256C766.821 62.9874 772.8 61.319 784.978 59.3204C797.29 57.2999 803.512 56.6911 803.643 57.494L808.486 87.0019ZM886.712 187.541C886.866 188.478 882.125 189.737 872.49 191.318C859.042 193.113 852.23 193.475 852.054 192.405L841.38 127.367L836.161 128.223C832.682 128.794 829.924 126.223 827.887 120.511C827.334 118.815 826.914 117.097 826.629 115.358C825.948 111.209 826.07 106.929 826.995 102.517C828.438 96.2334 831.702 92.6744 836.787 91.8398C841.872 91.0052 846.62 91.4629 851.03 93.2129C855.44 94.9628 858.512 96.9324 860.245 99.1216C867.49 90.5115 876.934 85.2511 888.576 83.3404C900.219 81.4297 909.166 83.1909 915.417 88.624C921.668 94.0572 925.969 103.933 928.319 118.252L938.202 178.473C938.466 180.078 932.843 181.826 921.334 183.714C909.959 185.581 904.14 185.712 903.876 184.106L894.356 126.094C893.258 119.403 890.367 116.441 885.683 117.21C884.345 117.43 882.57 118.339 880.359 119.939C878.126 121.405 876.719 122.46 876.137 123.106L886.712 187.541ZM953.803 140.662C965.718 145.441 974.821 147.314 981.111 146.281C985.125 145.623 986.902 143.888 986.441 141.078C986.112 139.07 982.204 137.032 974.718 134.962C956.87 130.882 946.672 121.081 944.125 105.557C942.499 95.6546 944.872 87.5006 951.242 81.0956C957.612 74.6905 965.815 70.6644 975.852 69.0172C986.022 67.3481 994.763 67.0131 1002.07 68.0122C1009.52 68.9894 1013.52 71.2177 1014.1 74.697C1014.58 77.6412 1013.74 81.7636 1011.59 87.0644C1009.57 92.3432 1008.06 95.2712 1007.05 95.8484C1000.77 93.581 994.286 92.9964 987.594 94.0945C983.981 94.6875 982.383 96.2553 982.8 98.7979C983.064 100.404 983.964 101.699 985.5 102.684C987.147 103.513 989.988 104.49 994.02 105.615C998.031 106.605 1001.35 107.572 1003.98 108.515C1006.74 109.436 1009.86 110.849 1013.33 112.752C1020.59 116.783 1024.89 122.88 1026.23 131.044C1027.99 141.749 1025.87 151.03 1019.87 158.885C1013.86 166.606 1003.69 171.642 989.369 173.992C979.868 175.551 970.972 175.362 962.684 173.424C954.395 171.486 949.789 167.707 948.867 162.086C948.252 158.339 948.474 154.249 949.533 149.815C950.725 145.359 952.149 142.308 953.803 140.662ZM1072.09 115.065C1072.22 115.868 1067.47 117.06 1057.83 118.642C1048.33 120.201 1043.53 120.646 1043.42 119.977L1023.16 21.674C1022.99 20.6034 1028.99 19.0688 1041.16 17.0702C1053.48 15.0497 1059.71 14.5078 1059.86 15.4446L1072.09 115.065ZM1040.94 132.545C1040.79 131.608 1046.87 130.13 1059.18 128.109C1071.63 126.067 1077.92 125.447 1078.05 126.25L1082.79 155.155C1083.01 156.494 1076.9 158.184 1064.45 160.227C1052.14 162.247 1045.92 162.856 1045.79 162.053L1040.94 132.545Z" fill="white"/>
<path d="M15.0597 189.592L29.3155 184.926L29.0525 184.122L28.701 183.354L15.0597 189.592ZM59.284 183.983L73.7059 179.859L73.6219 179.565L73.526 179.275L59.284 183.983ZM82.9892 266.878L68.5673 271.002L97.9398 268.095L82.9892 266.878ZM90.2331 177.873L75.4225 175.497L75.3299 176.074L75.2825 176.657L90.2331 177.873ZM121.515 172.533L135.328 166.685L135.02 165.958L134.637 165.267L121.515 172.533ZM156.524 255.222L142.711 261.07L171.518 254.817L156.524 255.222ZM154.165 168L139.168 167.742L139.162 168.073L139.171 168.405L154.165 168ZM162.905 163.473L159.146 148.952L159.146 148.952L162.905 163.473ZM197.961 159.781L182.979 159.055L182.968 159.284L182.964 159.514L197.961 159.781ZM195.514 296.854L210.442 298.321L210.501 297.723L210.512 297.122L195.514 296.854ZM184.797 303.148L180.451 288.792V288.792L184.797 303.148ZM140.747 306.048L154.711 300.572L154.625 300.353L154.533 300.137L140.747 306.048ZM118.037 253.087L131.823 247.175L108.968 193.873L103.114 251.573L118.037 253.087ZM112.209 310.526L97.2861 309.012L97.2519 309.348L97.233 309.686L112.209 310.526ZM99.0146 318.051L102.735 332.582L102.972 332.521L103.207 332.453L99.0146 318.051ZM85.4635 320.893L87.197 335.793L87.546 335.752L87.8927 335.695L85.4635 320.893ZM72.5177 322.399L73.3722 337.375L73.8128 337.35L74.2512 337.299L72.5177 322.399ZM57.6427 319.687L43.387 324.353L43.5387 324.817L43.7202 325.269L57.6427 319.687ZM15.0597 189.592L28.701 183.354C29.8827 185.938 30.3393 188.96 29.7801 192.02C29.2559 194.889 27.9932 196.974 27.0077 198.243C25.2506 200.507 23.3447 201.505 23.0943 201.64C22.2869 202.078 22.1349 202.005 23.5729 201.606C26.0707 200.911 30.5452 199.984 37.4007 198.859L34.9715 184.057L32.5423 169.255C25.4802 170.414 19.6773 171.551 15.5378 172.702C13.6572 173.224 11.0967 174.019 8.79074 175.27C7.79105 175.812 5.36341 177.203 3.31196 179.845C0.722948 183.179 -1.5829 189.267 1.41849 195.83L15.0597 189.592ZM34.9715 184.057L37.4007 198.859C44.887 197.63 49.8107 197.153 52.6371 197.144C54.1594 197.139 54.1491 197.284 53.3289 197.058C52.887 196.937 51.5707 196.538 50.0231 195.453C48.3459 194.277 46.1717 192.109 45.0421 188.691L59.284 183.983L73.526 179.275C70.8402 171.15 63.5527 168.756 61.279 168.131C58.2281 167.293 55.0764 167.137 52.5466 167.144C47.2688 167.16 40.4456 167.958 32.5423 169.255L34.9715 184.057ZM59.284 183.983L44.8621 188.107L68.5673 271.002L82.9892 266.878L97.4111 262.754L73.7059 179.859L59.284 183.983ZM82.9892 266.878L97.9398 268.095L105.184 179.09L90.2331 177.873L75.2825 176.657L68.0386 265.661L82.9892 266.878ZM90.2331 177.873L105.044 180.25C104.233 185.301 101.038 187.843 100.274 188.407C99.3327 189.101 98.8235 189.201 99.4595 188.967C100.642 188.532 103.239 187.847 107.825 187.095L105.396 172.293L102.967 157.491C97.7843 158.341 92.9692 159.389 89.0978 160.813C87.2066 161.51 84.7596 162.572 82.4698 164.261C80.3573 165.819 76.4028 169.387 75.4225 175.497L90.2331 177.873ZM105.396 172.293L107.825 187.095C112.433 186.339 115.182 186.129 116.529 186.149C117.255 186.16 116.816 186.234 115.775 185.931C115.21 185.767 114.095 185.387 112.795 184.545C111.446 183.673 109.706 182.173 108.392 179.8L121.515 172.533L134.637 165.267C131.557 159.704 126.424 157.784 124.141 157.122C121.513 156.358 118.936 156.181 116.977 156.152C112.951 156.092 108.128 156.644 102.967 157.491L105.396 172.293ZM121.515 172.533L107.702 178.382L142.711 261.07L156.524 255.222L170.337 249.374L135.328 166.685L121.515 172.533ZM156.524 255.222L171.518 254.817L169.16 167.594L154.165 168L139.171 168.405L141.529 255.628L156.524 255.222ZM154.165 168L169.163 168.257C169.082 172.968 166.728 176.037 165.484 177.317C164.283 178.553 163.268 179.051 163.268 179.051C163.224 179.073 164.117 178.654 166.664 177.994L162.905 163.473L159.146 148.952C155.893 149.794 152.429 150.88 149.471 152.411C148.015 153.166 145.904 154.419 143.969 156.411C141.99 158.447 139.262 162.273 139.168 167.742L154.165 168ZM162.905 163.473L166.664 177.994C172.264 176.545 176.479 175.622 179.455 175.133L177.025 160.331L174.596 145.529C170.345 146.227 165.147 147.398 159.146 148.952L162.905 163.473ZM177.025 160.331L179.455 175.133C186.348 174.002 190.773 173.523 193.192 173.459C194.615 173.422 194.217 173.57 192.998 173.259C192.448 173.119 190.277 172.541 188.008 170.631C186.757 169.579 185.356 168.017 184.331 165.845C183.279 163.616 182.872 161.266 182.979 159.055L197.961 159.781L212.944 160.507C213.213 154.951 210.595 150.429 207.323 147.676C204.634 145.414 201.824 144.55 200.413 144.19C197.473 143.44 194.471 143.415 192.404 143.469C187.845 143.589 181.754 144.355 174.596 145.529L177.025 160.331ZM197.961 159.781L182.964 159.514L180.516 296.586L195.514 296.854L210.512 297.122L212.959 160.049L197.961 159.781ZM195.514 296.854L180.586 295.387C180.939 291.794 182.635 289.44 183.585 288.385C184.499 287.371 185.213 286.989 185.084 287.065C185.029 287.097 184.653 287.305 183.806 287.643C182.984 287.971 181.881 288.358 180.451 288.792L184.797 303.148L189.143 317.505C193.038 316.326 196.98 314.869 200.277 312.933C202.517 311.618 209.569 307.21 210.442 298.321L195.514 296.854ZM184.797 303.148L180.451 288.792C173.807 290.803 168.832 292.011 165.335 292.584L167.764 307.386L170.194 322.188C175.529 321.313 181.91 319.695 189.143 317.505L184.797 303.148ZM167.764 307.386L165.335 292.584C157.352 293.895 152.201 294.256 149.306 294.113C147.807 294.038 147.844 293.864 148.678 294.189C149.53 294.521 152.965 296.12 154.711 300.572L140.747 306.048L126.782 311.525C129.237 317.784 134.33 320.795 137.787 322.142C141.228 323.483 144.819 323.927 147.823 324.076C153.934 324.379 161.583 323.602 170.194 322.188L167.764 307.386ZM140.747 306.048L154.533 300.137L131.823 247.175L118.037 253.087L104.251 258.998L126.961 311.96L140.747 306.048ZM118.037 253.087L103.114 251.573L97.2861 309.012L112.209 310.526L127.133 312.04L132.961 254.601L118.037 253.087ZM112.209 310.526L97.233 309.686C97.4483 305.845 99.2615 303.353 100.194 302.325C101.079 301.348 101.714 301.056 101.375 301.25C101.123 301.393 100.49 301.714 99.317 302.165C98.1722 302.606 96.6898 303.105 94.8219 303.649L99.0146 318.051L103.207 332.453C107.935 331.077 112.518 329.43 116.237 327.309C118.097 326.249 120.398 324.704 122.418 322.476C124.485 320.197 126.901 316.454 127.186 311.365L112.209 310.526ZM99.0146 318.051L95.2938 303.52C91.2344 304.559 87.1483 305.416 83.0343 306.091L85.4635 320.893L87.8927 335.695C92.8787 334.877 97.8266 333.839 102.735 332.582L99.0146 318.051ZM85.4635 320.893L83.73 305.994L70.7842 307.5L72.5177 322.399L74.2512 337.299L87.197 335.793L85.4635 320.893ZM72.5177 322.399L71.6632 307.424C69.7266 307.534 68.1709 307.558 66.9542 307.524C65.7065 307.489 65.0173 307.398 64.7502 307.349C64.381 307.282 65.1097 307.353 66.3009 308.006C67.5672 308.699 70.1204 310.501 71.5653 314.105L57.6427 319.687L43.7202 325.269C45.6303 330.033 49.1523 332.819 51.8909 334.318C54.5543 335.777 57.2587 336.478 59.3687 336.863C63.5889 337.632 68.4642 337.655 73.3722 337.375L72.5177 322.399ZM57.6427 319.687L71.8985 315.021L29.3155 184.926L15.0597 189.592L0.803985 194.258L43.387 324.353L57.6427 319.687ZM216.865 152.968L220.708 167.468L220.708 167.468L216.865 152.968ZM251.247 191.646L236.445 194.075L239.722 214.038L257.872 205.104L251.247 191.646ZM293.189 189.71L284.875 202.196L284.952 202.247L285.029 202.297L293.189 189.71ZM301.814 284.975L303.737 299.851L303.991 299.818L304.243 299.777L301.814 284.975ZM256.551 223.964L245.902 213.4L240.509 218.837L241.749 226.393L256.551 223.964ZM267.225 289.002L252.423 291.431C251.378 285.065 254.662 280.694 256.206 279.085C257.728 277.499 259.174 276.763 259.459 276.617C260.188 276.243 260.356 276.282 259.24 276.59C257.278 277.131 253.731 277.871 248.231 278.774L250.66 293.576L253.089 308.378C258.829 307.436 263.664 306.491 267.224 305.508C268.869 305.054 271.083 304.37 273.143 303.314C274.093 302.827 276.026 301.76 277.856 299.853C279.708 297.922 283.121 293.24 282.027 286.573L267.225 289.002ZM250.66 293.576L248.231 278.774C242.871 279.653 239.673 279.931 238.115 279.924C237.186 279.92 237.887 279.809 239.296 280.254C240.045 280.491 241.789 281.127 243.631 282.696C245.707 284.463 247.72 287.293 248.34 291.071L233.538 293.5L218.736 295.929C220.232 305.044 227.917 308.121 230.265 308.863C233.178 309.782 236.057 309.915 237.982 309.924C242.132 309.942 247.341 309.321 253.089 308.378L250.66 293.576ZM233.538 293.5L248.34 291.071L225.773 153.568L210.971 155.997L196.169 158.426L218.736 295.929L233.538 293.5ZM210.971 155.997L225.773 153.568C226.756 159.555 223.831 163.784 222.235 165.498C220.751 167.094 219.357 167.791 219.186 167.879C218.697 168.13 218.948 167.934 220.708 167.468L216.865 152.968L213.021 138.469C210.699 139.085 207.926 139.935 205.473 141.196C204.319 141.789 202.208 142.981 200.271 145.064C198.223 147.265 195.11 151.97 196.169 158.426L210.971 155.997ZM216.865 152.968L220.708 167.468C224.524 166.456 227.467 165.811 229.633 165.455L227.204 150.653L224.775 135.851C221.321 136.418 217.371 137.316 213.021 138.469L216.865 152.968ZM227.204 150.653L229.633 165.455C235.001 164.574 237.995 164.402 239.272 164.463C240.031 164.5 239.045 164.575 237.385 163.856C236.453 163.453 234.849 162.602 233.288 160.927C231.597 159.115 230.312 156.705 229.857 153.928L244.659 151.499L259.461 149.07C258.236 141.609 252.774 137.828 249.306 136.327C246.093 134.935 242.876 134.603 240.725 134.499C236.184 134.279 230.649 134.887 224.775 135.851L227.204 150.653ZM244.659 151.499L229.857 153.928L236.445 194.075L251.247 191.646L266.049 189.217L259.461 149.07L244.659 151.499ZM251.247 191.646L257.872 205.104C264.728 201.729 268.585 200.497 270.179 200.235L267.75 185.433L265.321 170.631C259.153 171.643 252.008 174.553 244.623 178.188L251.247 191.646ZM267.75 185.433L270.179 200.235C277.633 199.012 282.017 200.293 284.875 202.196L293.189 189.71L301.502 177.225C290.783 170.087 278.208 168.516 265.321 170.631L267.75 185.433ZM293.189 189.71L285.029 202.297C286.206 203.06 289.897 207.008 292.16 220.8L306.962 218.371L321.764 215.942C319.196 200.292 313.705 185.134 301.348 177.124L293.189 189.71ZM306.962 218.371L292.16 220.8L302.373 283.028L317.175 280.598L331.977 278.169L321.764 215.942L306.962 218.371ZM317.175 280.598L302.373 283.028C301.406 277.136 304.181 272.898 305.809 271.073C307.33 269.37 308.825 268.553 309.188 268.356C310.044 267.894 310.364 267.888 309.373 268.17C307.671 268.655 304.474 269.337 299.385 270.173L301.814 284.975L304.243 299.777C309.592 298.899 314.175 297.996 317.593 297.022C319.162 296.575 321.378 295.871 323.463 294.742C324.442 294.213 326.387 293.071 328.19 291.051C330.102 288.909 332.993 284.361 331.977 278.169L317.175 280.598ZM301.814 284.975L299.891 270.098C294.059 270.852 290.077 271.246 287.691 271.364C286.386 271.429 286.178 271.376 286.582 271.418C286.662 271.426 287.932 271.535 289.59 272.18C290.44 272.511 292.121 273.257 293.858 274.794C295.74 276.46 297.947 279.323 298.622 283.437L283.82 285.866L269.018 288.295C270.421 296.841 277.607 299.709 278.713 300.139C280.775 300.941 282.631 301.169 283.48 301.257C285.422 301.459 287.482 301.411 289.176 301.328C292.788 301.149 297.727 300.628 303.737 299.851L301.814 284.975ZM283.82 285.866L298.622 283.437L288.937 224.421L274.135 226.85L259.333 229.28L269.018 288.295L283.82 285.866ZM274.135 226.85L288.937 224.421C288.212 220.003 286.611 214.229 282.383 209.61C277.26 204.012 270.253 202.186 263.668 203.267L266.097 218.069L268.526 232.871C267.694 233.007 266.217 233.078 264.442 232.51C262.609 231.924 261.193 230.892 260.253 229.864C259.394 228.926 259.1 228.186 259.08 228.135C259.057 228.076 259.188 228.4 259.333 229.28L274.135 226.85ZM266.097 218.069L263.668 203.267C256.196 204.493 250.268 208.999 245.902 213.4L256.551 223.964L267.2 234.528C268.31 233.409 269.046 232.876 269.385 232.667C269.716 232.462 269.41 232.726 268.526 232.871L266.097 218.069ZM256.551 223.964L241.749 226.393L252.423 291.431L267.225 289.002L282.027 286.573L271.353 221.535L256.551 223.964ZM371.033 272.172L356.231 274.601C354.945 266.769 360.013 262.092 361.035 261.215C362.506 259.951 363.794 259.404 363.907 259.354C364.357 259.154 364.221 259.264 362.911 259.598C360.53 260.204 356.459 261.012 350.399 262.006L352.829 276.808L355.258 291.61C361.51 290.584 366.629 289.609 370.316 288.67C372.04 288.231 374.157 287.627 376.081 286.773C376.93 286.396 378.759 285.537 380.577 283.976C381.945 282.802 387.164 277.842 385.835 269.743L371.033 272.172ZM352.829 276.808L350.399 262.006C344.396 262.992 340.273 263.547 337.784 263.761C336.427 263.878 336.169 263.836 336.535 263.859C336.586 263.863 337.861 263.918 339.55 264.499C340.407 264.794 342.177 265.492 344.025 267.03C346.051 268.715 348.428 271.671 349.133 275.972L334.331 278.401L319.529 280.83C321.004 289.818 328.784 292.521 329.792 292.868C331.895 293.591 333.772 293.744 334.613 293.798C336.559 293.923 338.632 293.799 340.358 293.65C344.035 293.334 349.084 292.624 355.258 291.61L352.829 276.808ZM334.331 278.401L349.133 275.972L332.958 177.412L318.156 179.841L303.354 182.27L319.529 280.83L334.331 278.401ZM318.156 179.841L332.958 177.412C333.664 181.712 332.357 185.273 330.976 187.517C329.717 189.565 328.262 190.792 327.544 191.346C326.129 192.436 324.939 192.896 324.892 192.915C324.553 193.055 324.784 192.933 326.107 192.609C328.533 192.017 332.618 191.225 338.622 190.24L336.192 175.438L333.763 160.636C327.589 161.649 322.578 162.59 318.993 163.465C317.31 163.876 315.306 164.421 313.501 165.162C312.722 165.482 310.992 166.226 309.231 167.584C308.387 168.234 301.879 173.282 303.354 182.27L318.156 179.841ZM336.192 175.438L338.622 190.24C344.705 189.241 348.946 188.65 351.553 188.394C352.956 188.257 353.355 188.273 353.159 188.267C353.063 188.264 352.812 188.254 352.453 188.213C352.131 188.177 351.454 188.087 350.585 187.85C349.86 187.653 348.085 187.117 346.147 185.757C344.063 184.295 340.9 181.186 340.055 176.041L354.857 173.611L369.659 171.182C368.799 165.937 365.571 162.738 363.376 161.198C361.326 159.76 359.392 159.156 358.46 158.902C356.534 158.379 354.831 158.304 354.075 158.281C352.29 158.226 350.34 158.37 348.632 158.537C345.017 158.891 339.991 159.614 333.763 160.636L336.192 175.438ZM354.857 173.611L340.055 176.041L356.231 274.601L371.033 272.172L385.835 269.743L369.659 171.182L354.857 173.611ZM352.914 161.768L338.112 164.197C337.398 159.845 338.744 156.258 340.136 154.022C341.406 151.982 342.865 150.766 343.577 150.222C344.983 149.149 346.161 148.697 346.198 148.682C346.52 148.551 346.267 148.678 344.925 149.005C342.459 149.604 338.319 150.406 332.248 151.402L334.677 166.204L337.106 181.006C343.346 179.982 348.402 179.033 352.015 178.155C353.712 177.742 355.72 177.197 357.523 176.462C358.301 176.145 360.024 175.409 361.782 174.067C362.573 173.463 369.204 168.408 367.716 159.339L352.914 161.768ZM334.677 166.204L332.248 151.402C326.232 152.389 322.045 152.972 319.477 153.222C318.093 153.356 317.714 153.338 317.93 153.345C318.03 153.348 318.287 153.359 318.652 153.402C318.981 153.44 319.666 153.533 320.541 153.775C321.277 153.979 323.054 154.526 324.989 155.899C327.075 157.379 330.18 160.482 331.014 165.568L316.212 167.997L301.41 170.427C302.262 175.613 305.43 178.805 307.626 180.364C309.672 181.816 311.607 182.43 312.547 182.69C314.483 183.226 316.194 183.304 316.951 183.329C318.738 183.387 320.684 183.245 322.377 183.081C325.964 182.733 330.944 182.017 337.106 181.006L334.677 166.204ZM316.212 167.997L331.014 165.568L326.271 136.662L311.469 139.092L296.667 141.521L301.41 170.427L316.212 167.997ZM311.469 139.092L326.271 136.662C327.286 142.847 324.189 147.157 322.627 148.826C321.121 150.434 319.683 151.18 319.408 151.323C318.707 151.689 318.598 151.626 319.82 151.285C321.99 150.679 325.869 149.868 331.835 148.889L329.406 134.087L326.977 119.285C320.765 120.304 315.565 121.326 311.757 122.389C309.989 122.882 307.665 123.612 305.525 124.729C304.529 125.249 302.565 126.359 300.726 128.323C298.832 130.347 295.597 135.002 296.667 141.521L311.469 139.092ZM329.406 134.087L331.835 148.889C337.919 147.89 342.16 147.298 344.767 147.043C346.169 146.906 346.569 146.922 346.372 146.916C346.277 146.913 346.026 146.903 345.667 146.862C345.345 146.826 344.667 146.735 343.799 146.499C343.073 146.302 341.299 145.766 339.361 144.406C337.277 142.944 334.114 139.834 333.269 134.689L348.071 132.26L362.873 129.831C362.012 124.585 358.785 121.386 356.59 119.846C354.54 118.408 352.606 117.805 351.674 117.551C349.748 117.027 348.045 116.953 347.289 116.93C345.504 116.875 343.554 117.019 341.845 117.186C338.23 117.54 333.205 118.262 326.977 119.285L329.406 134.087ZM348.071 132.26L333.269 134.689L338.112 164.197L352.914 161.768L367.716 159.339L362.873 129.831L348.071 132.26ZM418.889 266.792L420.725 281.679L421.022 281.642L421.318 281.594L418.889 266.792ZM386.725 196.416L401.527 193.987L399.098 179.185L384.296 181.614L386.725 196.416ZM369.353 175.974L354.354 176.124L354.356 176.407L354.37 176.69L369.353 175.974ZM382.146 168.514L384.576 183.316L399.378 180.887L396.948 166.085L382.146 168.514ZM415.148 157.326L400.346 159.756L400.389 160.02L400.442 160.282L415.148 157.326ZM416.271 162.914L401.565 165.87L404.418 180.06L418.7 177.716L416.271 162.914ZM423.693 190.556L421.264 175.754L406.462 178.183L408.891 192.985L423.693 190.556ZM435.355 261.615L420.553 264.045C419.796 259.431 421.411 255.688 423 253.474C424.4 251.525 425.904 250.517 426.411 250.194C427.441 249.537 427.932 249.492 426.938 249.804C425.245 250.337 421.918 251.094 416.46 251.99L418.889 266.792L421.318 281.594C427.101 280.644 432.14 279.616 435.935 278.424C437.686 277.873 440.201 276.98 442.538 275.491C443.564 274.837 451.855 269.53 450.157 259.186L435.355 261.615ZM418.889 266.792L417.053 251.904C410.42 252.722 405.885 253.126 403.16 253.217C401.677 253.266 401.418 253.195 401.842 253.253C401.946 253.268 403.279 253.43 404.993 254.212C406.227 254.774 411.977 257.658 413.189 265.047L398.387 267.476L383.585 269.906C384.848 277.596 390.854 280.736 392.552 281.51C394.73 282.503 396.735 282.832 397.717 282.969C399.9 283.272 402.228 283.265 404.162 283.2C408.271 283.063 413.888 282.522 420.725 281.679L418.889 266.792ZM398.387 267.476L413.189 265.047L401.527 193.987L386.725 196.416L371.923 198.846L383.585 269.906L398.387 267.476ZM386.725 196.416L384.296 181.614L374.059 183.295L376.488 198.097L378.917 212.899L389.155 211.218L386.725 196.416ZM376.488 198.097L374.059 183.295C375.935 182.987 377.936 183.094 379.876 183.684C381.764 184.258 383.19 185.164 384.165 185.973C385.114 186.76 385.695 187.5 385.993 187.924C386.298 188.358 386.435 188.644 386.449 188.674C386.459 188.695 386.254 188.248 385.945 187.082C385.65 185.965 385.327 184.452 385.002 182.476L370.2 184.905L355.398 187.334C356.215 192.313 357.385 197.421 359.368 201.582C360.35 203.642 362.057 206.613 365.014 209.065C368.421 211.891 373.327 213.816 378.917 212.899L376.488 198.097ZM370.2 184.905L385.002 182.476C384.731 180.825 384.489 178.461 384.336 175.257L369.353 175.974L354.37 176.69C354.556 180.577 354.879 184.167 355.398 187.334L370.2 184.905ZM369.353 175.974L384.352 175.823C384.341 174.714 384.514 175.534 383.9 177.163C383.549 178.092 382.751 179.793 381.043 181.468C379.177 183.296 376.704 184.608 373.937 185.062L371.507 170.26L369.078 155.458C361.187 156.754 357.302 162.672 355.83 166.577C354.497 170.11 354.329 173.666 354.354 176.124L369.353 175.974ZM371.507 170.26L373.937 185.062L384.576 183.316L382.146 168.514L379.717 153.712L369.078 155.458L371.507 170.26ZM382.146 168.514L396.948 166.085L394.049 148.421L379.247 150.85L364.445 153.279L367.344 170.944L382.146 168.514ZM379.247 150.85L394.049 148.421C394.444 150.826 394.152 153.247 393.299 155.398C392.495 157.424 391.369 158.781 390.593 159.553C389.218 160.922 388.157 161.236 388.76 160.984C389.794 160.551 392.545 159.745 397.879 158.87L395.45 144.068L393.021 129.266C387.114 130.235 381.544 131.482 377.177 133.31C375.08 134.188 372.048 135.685 369.433 138.288C366.482 141.223 363.329 146.476 364.445 153.279L379.247 150.85ZM395.45 144.068L397.879 158.87C403.348 157.972 406.537 157.732 408.028 157.767C408.913 157.787 408.1 157.89 406.579 157.333C405.744 157.027 404.052 156.29 402.327 154.654C400.415 152.84 398.777 150.194 398.238 146.909L413.04 144.479L427.842 142.05C426.472 133.707 419.87 130.253 416.906 129.166C413.831 128.039 410.776 127.823 408.73 127.775C404.357 127.672 398.927 128.297 393.021 129.266L395.45 144.068ZM413.04 144.479L398.238 146.909L400.346 159.756L415.148 157.326L429.95 154.897L427.842 142.05L413.04 144.479ZM415.148 157.326L400.442 160.282L401.565 165.87L416.271 162.914L430.977 159.958L429.854 154.37L415.148 157.326ZM416.271 162.914L418.7 177.716L435.763 174.916L433.333 160.114L430.904 145.312L413.842 148.112L416.271 162.914ZM433.333 160.114L435.763 174.916C433.366 175.309 430.94 175.036 428.758 174.192C426.694 173.394 425.279 172.256 424.437 171.427C422.936 169.945 422.507 168.703 422.659 169.061C422.893 169.614 423.529 171.643 424.25 176.034L439.052 173.605L453.854 171.176C453.037 166.199 451.952 161.297 450.28 157.353C449.479 155.462 448.051 152.58 445.504 150.067C442.602 147.206 437.476 144.233 430.904 145.312L433.333 160.114ZM439.052 173.605L424.25 176.034C424.971 180.425 425.017 182.552 424.971 183.151C424.942 183.539 424.951 182.224 425.9 180.341C426.432 179.286 427.41 177.756 429.111 176.339C430.908 174.842 433.12 173.808 435.516 173.415L437.946 188.217L440.375 203.019C446.947 201.94 450.854 197.485 452.688 193.846C454.299 190.652 454.731 187.464 454.886 185.416C455.209 181.145 454.671 176.153 453.854 171.176L439.052 173.605ZM437.946 188.217L435.516 173.415L421.264 175.754L423.693 190.556L426.123 205.358L440.375 203.019L437.946 188.217ZM423.693 190.556L408.891 192.985L420.553 264.045L435.355 261.615L450.157 259.186L438.495 188.126L423.693 190.556ZM538.275 240.396L529.743 228.059L529.196 228.437L528.685 228.863L538.275 240.396ZM471.245 245.212L462.497 257.397L462.542 257.429L462.587 257.461L471.245 245.212ZM458.125 169.032L445.516 160.907L445.485 160.955L445.455 161.003L458.125 169.032ZM521.635 154.074L513.238 166.503L513.295 166.542L513.352 166.58L521.635 154.074ZM490.91 218.073L488.481 203.271L473.679 205.7L476.108 220.502L490.91 218.073ZM495.505 225.976L488.568 239.276L489.028 239.516L489.504 239.723L495.505 225.976ZM531.347 215.765L540.216 227.862L542.14 226.452L543.531 224.514L531.347 215.765ZM533.615 218.279L521.697 227.388L521.785 227.502L521.874 227.614L533.615 218.279ZM487.82 182.917L499.236 192.648L499.267 192.612L499.298 192.575L487.82 182.917ZM487.319 196.193L472.517 198.622L474.946 213.424L489.748 210.995L487.319 196.193ZM538.275 240.396L528.685 228.863C523.723 232.988 516.06 236.468 504.546 238.358L506.975 253.16L509.404 267.962C524.388 265.503 537.591 260.474 547.866 251.929L538.275 240.396ZM506.975 253.16L504.546 238.358C495.025 239.92 487.128 238.07 479.904 232.963L471.245 245.212L462.587 257.461C476.506 267.3 492.429 270.748 509.404 267.962L506.975 253.16ZM471.245 245.212L479.994 233.028C473.364 228.267 468.369 220.473 466.237 207.486L451.435 209.915L436.633 212.344C439.729 231.207 447.941 246.945 462.497 257.397L471.245 245.212ZM451.435 209.915L466.237 207.486C464.056 194.194 466.091 184.484 470.795 177.061L458.125 169.032L445.455 161.003C435.968 175.973 433.544 193.519 436.633 212.344L451.435 209.915ZM458.125 169.032L470.734 177.157C475.624 169.568 482.196 165.234 491.471 163.712L489.042 148.91L486.613 134.108C469.123 136.978 455.084 146.059 445.516 160.907L458.125 169.032ZM489.042 148.91L491.471 163.712C502.41 161.917 509.032 163.662 513.238 166.503L521.635 154.074L530.032 141.645C517.544 133.208 502.438 131.511 486.613 134.108L489.042 148.91ZM521.635 154.074L513.352 166.58C518.46 169.963 521.052 174.059 521.958 179.582L536.76 177.153L551.562 174.724C549.262 160.709 541.77 149.419 529.918 141.569L521.635 154.074ZM536.76 177.153L521.958 179.582C523.269 187.567 521.638 191.379 519.875 193.508C517.778 196.041 512.959 199.254 502.331 200.998L504.761 215.8L507.19 230.602C521.454 228.261 534.413 222.99 542.982 212.641C551.886 201.887 553.81 188.418 551.562 174.724L536.76 177.153ZM504.761 215.8L502.331 200.998L488.481 203.271L490.91 218.073L493.339 232.875L507.19 230.602L504.761 215.8ZM490.91 218.073L476.108 220.502C477.135 226.761 480.201 234.911 488.568 239.276L495.505 225.976L502.443 212.677C504.056 213.519 505.043 214.698 505.52 215.52C505.922 216.211 505.839 216.418 505.712 215.643L490.91 218.073ZM495.505 225.976L489.504 239.723C495.794 242.47 502.514 242.294 508.133 241.372L505.704 226.57L503.274 211.768C501.942 211.987 501.158 211.994 500.814 211.974C500.475 211.954 500.804 211.923 501.507 212.229L495.505 225.976ZM505.704 226.57L508.133 241.372C519.853 239.449 530.603 234.91 540.216 227.862L531.347 215.765L522.478 203.668C516.635 207.952 510.29 210.617 503.274 211.768L505.704 226.57ZM531.347 215.765L543.531 224.514C541.175 227.795 537.646 229.919 533.805 230.55C530.502 231.092 527.88 230.393 526.597 229.957C524.154 229.128 522.573 227.857 522.282 227.628C521.719 227.185 521.335 226.811 521.187 226.664C521.008 226.487 520.894 226.362 520.86 226.325C520.811 226.27 521.046 226.536 521.697 227.388L533.615 218.279L545.532 209.17C544.784 208.191 543.941 207.122 543.135 206.229C542.837 205.898 541.985 204.956 540.822 204.042C540.422 203.728 538.753 202.402 536.241 201.55C534.924 201.103 532.274 200.4 528.946 200.946C525.081 201.58 521.533 203.716 519.163 207.016L531.347 215.765ZM533.615 218.279L521.874 227.614C525.347 231.982 525.976 234.212 526.035 234.571L540.837 232.142L555.639 229.713C554.381 222.043 550.195 215.031 545.356 208.944L533.615 218.279ZM540.837 232.142L526.035 234.571C526.107 235.009 525.881 234.177 526.349 232.669C526.905 230.877 528.126 229.177 529.743 228.059L538.275 240.396L546.807 252.733C555.719 246.57 556.8 236.783 555.639 229.713L540.837 232.142ZM503.663 186.502L518.465 184.072C517.644 179.069 515.359 172.781 509.463 168.438C503.491 164.04 496.737 163.78 491.62 164.619L494.049 179.421L496.478 194.223C496.848 194.163 494.44 194.632 491.673 192.594C488.981 190.612 488.76 188.314 488.861 188.931L503.663 186.502ZM494.049 179.421L491.62 164.619C485.661 165.597 480.334 168.517 476.343 173.26L487.82 182.917L499.298 192.575C499 192.929 498.54 193.345 497.926 193.689C497.319 194.03 496.79 194.172 496.478 194.223L494.049 179.421ZM487.82 182.917L476.405 173.187C471.255 179.229 470.522 186.465 471.496 192.399L486.298 189.97L501.1 187.541C501.092 187.494 501.205 188.116 500.978 189.164C500.731 190.308 500.163 191.561 499.236 192.648L487.82 182.917ZM486.298 189.97L471.496 192.399L472.517 198.622L487.319 196.193L502.121 193.763L501.1 187.541L486.298 189.97ZM487.319 196.193L489.748 210.995L500.588 209.216L498.159 194.414L495.73 179.612L484.89 181.391L487.319 196.193ZM498.159 194.414L500.588 209.216C505.192 208.46 511.138 206.24 515.16 200.458C519.117 194.771 519.195 188.52 518.465 184.072L503.663 186.502L488.861 188.931C488.859 188.917 488.756 188.314 488.908 187.31C489.07 186.237 489.517 184.787 490.533 183.326C492.721 180.181 495.542 179.643 495.73 179.612L498.159 194.414ZM571.195 98.322L585.451 93.6558L585.188 92.8525L584.836 92.0837L571.195 98.322ZM615.419 92.7133L629.841 88.5891L629.757 88.2954L629.661 88.0053L615.419 92.7133ZM639.124 175.608L624.703 179.732L654.075 176.825L639.124 175.608ZM646.368 86.6034L631.558 84.2272L631.465 84.8042L631.418 85.3866L646.368 86.6034ZM677.65 81.2635L691.463 75.4153L691.155 74.6882L690.773 73.9974L677.65 81.2635ZM712.659 163.952L698.846 169.8L727.654 163.547L712.659 163.952ZM710.301 76.7296L695.303 76.4718L695.297 76.8035L695.306 77.135L710.301 76.7296ZM719.04 72.2032L715.281 57.6819V57.6819L719.04 72.2032ZM754.097 68.5113L739.114 67.7852L739.103 68.0142L739.099 68.2436L754.097 68.5113ZM751.649 205.584L766.577 207.051L766.636 206.453L766.647 205.852L751.649 205.584ZM740.932 211.878L736.586 197.522V197.522L740.932 211.878ZM696.882 214.778L710.846 209.302L710.761 209.083L710.668 208.867L696.882 214.778ZM674.173 161.817L687.959 155.905L665.103 102.603L659.249 160.303L674.173 161.817ZM668.345 219.256L653.421 217.742L653.387 218.078L653.368 218.416L668.345 219.256ZM655.15 226.781L658.871 241.312L659.108 241.251L659.343 241.183L655.15 226.781ZM641.599 229.623L643.332 244.523L643.681 244.482L644.028 244.425L641.599 229.623ZM628.653 231.129L629.507 246.105L629.948 246.08L630.386 246.029L628.653 231.129ZM613.778 228.417L599.522 233.083L599.674 233.547L599.855 233.999L613.778 228.417ZM571.195 98.322L584.836 92.0837C586.018 94.6678 586.475 97.6896 585.915 100.75C585.391 103.619 584.129 105.704 583.143 106.973C581.386 109.237 579.48 110.235 579.23 110.37C578.422 110.808 578.27 110.735 579.708 110.336C582.206 109.641 586.68 108.714 593.536 107.589L591.107 92.7867L588.678 77.9847C581.616 79.1437 575.813 80.2809 571.673 81.4316C569.792 81.9544 567.232 82.7491 564.926 83.9998C563.926 84.542 561.499 85.9328 559.447 88.5748C556.858 91.9093 554.552 97.9972 557.554 104.56L571.195 98.322ZM591.107 92.7867L593.536 107.589C601.022 106.36 605.946 105.883 608.772 105.874C610.295 105.869 610.284 106.014 609.464 105.788C609.022 105.667 607.706 105.268 606.158 104.183C604.481 103.007 602.307 100.839 601.177 97.4214L615.419 92.7133L629.661 88.0053C626.975 79.8804 619.688 77.4859 617.414 76.861C614.363 76.0225 611.212 75.8665 608.682 75.8742C603.404 75.8901 596.581 76.6876 588.678 77.9847L591.107 92.7867ZM615.419 92.7133L600.997 96.8375L624.703 179.732L639.124 175.608L653.546 171.484L629.841 88.5891L615.419 92.7133ZM639.124 175.608L654.075 176.825L661.319 87.8202L646.368 86.6034L631.418 85.3866L624.174 174.391L639.124 175.608ZM646.368 86.6034L661.179 88.9797C660.369 94.031 657.173 96.5733 656.409 97.1366C655.468 97.8306 654.959 97.9314 655.595 97.6973C656.778 97.2619 659.374 96.5775 663.961 95.8248L661.531 81.0228L659.102 66.2208C653.92 67.0714 649.104 68.1187 645.233 69.5435C643.342 70.2395 640.895 71.3025 638.605 72.9909C636.493 74.5485 632.538 78.1173 631.558 84.2272L646.368 86.6034ZM661.531 81.0228L663.961 95.8248C668.568 95.0686 671.317 94.8588 672.664 94.8789C673.391 94.8897 672.951 94.9636 671.91 94.6612C671.345 94.4972 670.23 94.1165 668.93 93.2752C667.581 92.4026 665.841 90.9029 664.527 88.5296L677.65 81.2635L690.773 73.9974C687.692 68.4342 682.559 66.5145 680.277 65.8515C677.648 65.0882 675.071 64.9115 673.112 64.8822C669.086 64.8221 664.264 65.3738 659.102 66.2208L661.531 81.0228ZM677.65 81.2635L663.837 87.1117L698.846 169.8L712.659 163.952L726.472 158.104L691.463 75.4153L677.65 81.2635ZM712.659 163.952L727.654 163.547L725.295 76.3242L710.301 76.7296L695.306 77.135L697.665 164.358L712.659 163.952ZM710.301 76.7296L725.298 76.9874C725.217 81.698 722.863 84.7674 721.619 86.0474C720.419 87.2828 719.404 87.7805 719.404 87.7806C719.359 87.8035 720.252 87.3841 722.8 86.7245L719.04 72.2032L715.281 57.6819C712.028 58.524 708.564 59.6097 705.607 61.1414C704.15 61.8959 702.039 63.1489 700.104 65.1405C698.125 67.1768 695.397 71.0032 695.303 76.4718L710.301 76.7296ZM719.04 72.2032L722.8 86.7245C728.399 85.2749 732.614 84.3516 735.59 83.8633L733.161 69.0613L730.731 54.2593C726.481 54.9569 721.282 56.1282 715.281 57.6819L719.04 72.2032ZM733.161 69.0613L735.59 83.8633C742.483 82.7319 746.908 82.2526 749.327 82.1891C750.75 82.1517 750.352 82.3003 749.134 81.9894C748.583 81.849 746.413 81.2709 744.143 79.361C742.892 78.3085 741.491 76.7468 740.466 74.5747C739.414 72.3456 739.007 69.9961 739.114 67.7852L754.097 68.5113L769.079 69.2375C769.348 63.6805 766.73 59.1593 763.458 56.4062C760.77 54.144 757.959 53.2801 756.548 52.9202C753.609 52.1703 750.606 52.1452 748.539 52.1994C743.98 52.3192 737.889 53.0846 730.731 54.2593L733.161 69.0613ZM754.097 68.5113L739.099 68.2436L736.652 205.316L751.649 205.584L766.647 205.852L769.094 68.7791L754.097 68.5113ZM751.649 205.584L736.721 204.117C737.074 200.524 738.77 198.17 739.72 197.115C740.634 196.101 741.348 195.719 741.22 195.795C741.164 195.827 740.788 196.035 739.941 196.373C739.119 196.702 738.017 197.088 736.586 197.522L740.932 211.878L745.279 226.235C749.173 225.056 753.116 223.599 756.412 221.663C758.652 220.348 765.704 215.94 766.577 207.051L751.649 205.584ZM740.932 211.878L736.586 197.522C729.942 199.533 724.967 200.741 721.47 201.314L723.9 216.116L726.329 230.918C731.665 230.043 738.045 228.425 745.279 226.235L740.932 211.878ZM723.9 216.116L721.47 201.314C713.487 202.625 708.336 202.986 705.442 202.843C703.942 202.768 703.979 202.594 704.813 202.919C705.665 203.251 709.101 204.85 710.846 209.302L696.882 214.778L682.917 220.255C685.372 226.514 690.465 229.525 693.923 230.872C697.363 232.213 700.954 232.657 703.958 232.806C710.069 233.109 717.718 232.332 726.329 230.918L723.9 216.116ZM696.882 214.778L710.668 208.867L687.959 155.905L674.173 161.817L660.386 167.728L683.096 220.69L696.882 214.778ZM674.173 161.817L659.249 160.303L653.421 217.742L668.345 219.256L683.268 220.77L689.096 163.331L674.173 161.817ZM668.345 219.256L653.368 218.416C653.584 214.575 655.397 212.083 656.329 211.055C657.215 210.078 657.849 209.786 657.51 209.98C657.259 210.123 656.625 210.444 655.452 210.895C654.307 211.336 652.825 211.835 650.957 212.379L655.15 226.781L659.343 241.183C664.07 239.807 668.653 238.16 672.372 236.039C674.232 234.979 676.533 233.434 678.553 231.206C680.62 228.927 683.036 225.184 683.321 220.095L668.345 219.256ZM655.15 226.781L651.429 212.25C647.37 213.289 643.284 214.146 639.17 214.821L641.599 229.623L644.028 244.425C649.014 243.607 653.962 242.569 658.871 241.312L655.15 226.781ZM641.599 229.623L639.865 214.724L626.919 216.23L628.653 231.129L630.386 246.029L643.332 244.523L641.599 229.623ZM628.653 231.129L627.798 216.154C625.862 216.264 624.306 216.288 623.089 216.254C621.842 216.219 621.153 216.128 620.885 216.079C620.516 216.012 621.245 216.083 622.436 216.736C623.702 217.429 626.256 219.231 627.701 222.835L613.778 228.417L599.855 233.999C601.766 238.763 605.288 241.549 608.026 243.048C610.69 244.507 613.394 245.208 615.504 245.593C619.724 246.362 624.6 246.385 629.507 246.105L628.653 231.129ZM613.778 228.417L628.034 223.751L585.451 93.6558L571.195 98.322L556.939 102.988L599.522 233.083L613.778 228.417ZM826.605 197.406L811.803 199.835C810.518 192.003 815.585 187.326 816.607 186.449C818.079 185.185 819.367 184.638 819.479 184.588C819.929 184.388 819.794 184.498 818.483 184.832C816.103 185.438 812.031 186.246 805.972 187.24L808.401 202.042L810.83 216.844C817.083 215.818 822.201 214.843 825.888 213.904C827.612 213.465 829.73 212.861 831.653 212.007C832.502 211.63 834.331 210.771 836.149 209.21C837.517 208.036 842.736 203.076 841.407 194.976L826.605 197.406ZM808.401 202.042L805.972 187.24C799.968 188.226 795.845 188.78 793.356 188.995C791.999 189.112 791.741 189.07 792.107 189.093C792.158 189.097 793.433 189.152 795.122 189.733C795.98 190.028 797.749 190.726 799.597 192.263C801.623 193.949 804 196.905 804.705 201.206L789.903 203.635L775.101 206.064C776.577 215.052 784.356 217.755 785.364 218.102C787.467 218.825 789.344 218.978 790.185 219.032C792.131 219.157 794.204 219.033 795.93 218.884C799.607 218.567 804.656 217.858 810.83 216.844L808.401 202.042ZM789.903 203.635L804.705 201.206L788.53 102.645L773.728 105.075L758.926 107.504L775.101 206.064L789.903 203.635ZM773.728 105.075L788.53 102.645C789.236 106.946 787.929 110.507 786.548 112.751C785.289 114.799 783.835 116.026 783.116 116.579C781.702 117.67 780.511 118.13 780.464 118.149C780.125 118.289 780.356 118.166 781.679 117.843C784.106 117.251 788.19 116.459 794.194 115.474L791.764 100.672L789.335 85.8696C783.161 86.8829 778.15 87.8239 774.565 88.6992C772.882 89.11 770.878 89.6553 769.074 90.3958C768.294 90.7157 766.565 91.4599 764.803 92.8174C763.959 93.468 757.451 98.5162 758.926 107.504L773.728 105.075ZM791.764 100.672L794.194 115.474C800.277 114.475 804.518 113.883 807.125 113.628C808.528 113.491 808.927 113.507 808.731 113.501C808.635 113.498 808.385 113.488 808.025 113.447C807.703 113.411 807.026 113.321 806.157 113.084C805.432 112.887 803.657 112.351 801.719 110.991C799.636 109.529 796.472 106.42 795.628 101.274L810.43 98.8452L825.232 96.416C824.371 91.1705 821.143 87.9714 818.948 86.4315C816.898 84.9935 814.965 84.3899 814.032 84.1363C812.106 83.6125 810.403 83.5378 809.647 83.5147C807.862 83.4602 805.912 83.6038 804.204 83.7709C800.589 84.1246 795.563 84.8476 789.335 85.8696L791.764 100.672ZM810.43 98.8452L795.628 101.274L811.803 199.835L826.605 197.406L841.407 194.976L825.232 96.416L810.43 98.8452ZM808.486 87.0019L793.684 89.4311C792.97 85.0792 794.316 81.4921 795.708 79.2564C796.978 77.2162 798.437 75.9997 799.149 75.4561C800.555 74.3825 801.733 73.9311 801.77 73.9159C802.092 73.7849 801.839 73.912 800.497 74.2385C798.031 74.8383 793.891 75.6394 787.82 76.6359L790.249 91.4379L792.678 106.24C798.918 105.216 803.974 104.267 807.587 103.389C809.285 102.976 811.292 102.431 813.095 101.696C813.873 101.379 815.596 100.643 817.354 99.3012C818.145 98.6972 824.776 93.6421 823.288 84.5727L808.486 87.0019ZM790.249 91.4379L787.82 76.6359C781.804 77.6232 777.617 78.206 775.049 78.4554C773.666 78.5898 773.287 78.5718 773.502 78.5789C773.603 78.5821 773.859 78.5929 774.225 78.6354C774.553 78.6736 775.238 78.767 776.114 79.0092C776.849 79.2126 778.626 79.7596 780.561 81.133C782.647 82.6131 785.752 85.7162 786.587 90.8021L771.785 93.2313L756.983 95.6605C757.834 100.847 761.002 104.039 763.198 105.598C765.244 107.05 767.179 107.664 768.119 107.924C770.055 108.46 771.766 108.538 772.524 108.563C774.31 108.621 776.256 108.479 777.95 108.315C781.537 107.967 786.517 107.251 792.678 106.24L790.249 91.4379ZM771.785 93.2313L786.587 90.8021L781.843 61.8964L767.041 64.3256L752.239 66.7548L756.983 95.6605L771.785 93.2313ZM767.041 64.3256L781.843 61.8964C782.858 68.0808 779.761 72.391 778.199 74.0596C776.693 75.6683 775.255 76.4134 774.98 76.5572C774.279 76.9229 774.17 76.8597 775.392 76.5187C777.563 75.913 781.441 75.1015 787.407 74.1224L784.978 59.3204L782.549 44.5184C776.337 45.5379 771.137 46.5599 767.329 47.6226C765.561 48.1158 763.237 48.8455 761.097 49.9628C760.101 50.4824 758.137 51.5931 756.299 53.557C754.404 55.5808 751.169 60.2358 752.239 66.7548L767.041 64.3256ZM784.978 59.3204L787.407 74.1224C793.491 73.124 797.732 72.5322 800.339 72.2771C801.742 72.1399 802.141 72.1555 801.944 72.1495C801.849 72.1466 801.598 72.1367 801.239 72.096C800.917 72.0595 800.239 71.9693 799.371 71.7331C798.645 71.5357 796.871 70.9995 794.933 69.6397C792.849 68.1781 789.686 65.0684 788.841 59.9233L803.643 57.494L818.445 55.0648C817.584 49.8193 814.357 46.6203 812.162 45.0803C810.112 43.6423 808.178 43.0387 807.246 42.7851C805.32 42.2613 803.617 42.1866 802.861 42.1635C801.076 42.109 799.126 42.2526 797.417 42.4197C793.803 42.7734 788.777 43.4963 782.549 44.5184L784.978 59.3204ZM803.643 57.494L788.841 59.9233L793.684 89.4311L808.486 87.0019L823.288 84.5727L818.445 55.0648L803.643 57.494ZM872.49 191.318L874.474 206.186L874.697 206.157L874.919 206.12L872.49 191.318ZM841.38 127.367L856.182 124.937L853.753 110.135L838.951 112.565L841.38 127.367ZM827.887 120.511L813.626 125.163L813.69 125.357L813.758 125.549L827.887 120.511ZM826.995 102.517L812.376 99.1608L812.344 99.2996L812.314 99.4389L826.995 102.517ZM851.03 93.2129L845.497 107.155L845.497 107.155L851.03 93.2129ZM860.245 99.1216L848.486 108.434L859.892 122.838L871.723 108.779L860.245 99.1216ZM880.359 119.939L888.59 132.479L888.875 132.292L889.151 132.092L880.359 119.939ZM876.137 123.106L864.994 113.065L860.168 118.421L861.335 125.535L876.137 123.106ZM886.712 187.541L871.91 189.97C870.752 182.915 874.816 178.358 876.204 177.037C877.743 175.574 879.169 174.901 879.433 174.774C880.156 174.428 880.372 174.438 879.422 174.691C877.779 175.127 874.77 175.743 870.061 176.516L872.49 191.318L874.919 206.12C879.845 205.312 884.024 204.508 887.122 203.685C888.543 203.308 890.517 202.729 892.386 201.834C893.224 201.433 895.07 200.496 896.877 198.778C898.533 197.203 902.711 192.402 901.514 185.112L886.712 187.541ZM872.49 191.318L870.506 176.45C863.872 177.335 859.288 177.809 856.499 177.957C854.991 178.037 854.635 177.984 854.943 178.015C854.975 178.019 856.216 178.117 857.861 178.756C858.704 179.084 860.383 179.827 862.118 181.366C864.001 183.036 866.186 185.891 866.856 189.975L852.054 192.405L837.252 194.834C838.654 203.378 845.827 206.265 847.002 206.722C849.105 207.538 851.012 207.771 851.917 207.862C853.972 208.071 856.193 208.016 858.091 207.915C862.114 207.701 867.66 207.096 874.474 206.186L872.49 191.318ZM852.054 192.405L866.856 189.975L856.182 124.937L841.38 127.367L826.578 129.796L837.252 194.834L852.054 192.405ZM841.38 127.367L838.951 112.565L833.732 113.421L836.161 128.223L838.591 143.025L843.81 142.169L841.38 127.367ZM836.161 128.223L833.732 113.421C835.023 113.209 836.613 113.248 838.266 113.778C839.886 114.298 841.028 115.115 841.711 115.751C842.843 116.806 842.666 117.296 842.016 115.473L827.887 120.511L813.758 125.549C815.145 129.439 817.365 134.07 821.256 137.696C825.761 141.895 831.911 144.121 838.591 143.025L836.161 128.223ZM827.887 120.511L842.147 115.859C841.828 114.881 841.591 113.906 841.431 112.929L826.629 115.358L811.827 117.787C812.238 120.289 812.839 122.75 813.626 125.163L827.887 120.511ZM826.629 115.358L841.431 112.929C841.071 110.736 841.103 108.327 841.676 105.595L826.995 102.517L812.314 99.4389C811.037 105.531 810.825 111.682 811.827 117.787L826.629 115.358ZM826.995 102.517L841.615 105.873C841.943 104.444 842.195 104.603 841.58 105.273C841.258 105.624 840.819 105.977 840.3 106.251C839.791 106.519 839.389 106.613 839.216 106.642L836.787 91.8398L834.358 77.0378C828.737 77.9603 823.531 80.5678 819.47 84.9968C815.591 89.2263 813.49 94.3062 812.376 99.1608L826.995 102.517ZM836.787 91.8398L839.216 106.642C841.858 106.208 843.83 106.494 845.497 107.155L851.03 93.2129L856.562 79.2704C849.409 76.432 841.887 75.8022 834.358 77.0378L836.787 91.8398ZM851.03 93.2129L845.497 107.155C847.058 107.775 848.018 108.292 848.545 108.63C849.089 108.979 848.909 108.968 848.486 108.434L860.245 99.1216L872.005 89.8096C867.863 84.5796 861.914 81.3942 856.562 79.2704L851.03 93.2129ZM860.245 99.1216L871.723 108.779C876.543 103.05 882.71 99.5038 891.005 98.1424L888.576 83.3404L886.147 68.5384C871.158 70.9984 858.437 77.9729 848.768 89.464L860.245 99.1216ZM888.576 83.3404L891.005 98.1424C900.187 96.6355 903.942 98.524 905.577 99.9456L915.417 88.624L925.257 77.3025C914.39 67.8577 900.25 66.2239 886.147 68.5384L888.576 83.3404ZM915.417 88.624L905.577 99.9456C907.828 101.902 911.35 107.475 913.517 120.682L928.319 118.252L943.121 115.823C940.588 100.392 935.509 86.2126 925.257 77.3025L915.417 88.624ZM928.319 118.252L913.517 120.682L923.4 180.902L938.202 178.473L953.004 176.043L943.121 115.823L928.319 118.252ZM938.202 178.473L923.4 180.902C922.622 176.164 924.341 172.368 925.944 170.19C927.358 168.269 928.859 167.288 929.34 166.987C930.331 166.367 930.769 166.341 929.731 166.663C927.948 167.217 924.501 167.994 918.905 168.912L921.334 183.714L923.763 198.516C929.676 197.546 934.795 196.505 938.634 195.312C940.408 194.761 942.922 193.878 945.252 192.419C946.403 191.699 948.39 190.304 950.105 187.973C952.011 185.384 953.847 181.183 953.004 176.043L938.202 178.473ZM921.334 183.714L918.905 168.912C913.378 169.82 909.924 170.175 908.102 170.216C907.038 170.24 907.49 170.126 908.652 170.407C909.219 170.545 910.961 171.007 912.912 172.391C915.128 173.962 917.911 177.001 918.679 181.677L903.877 184.106L889.075 186.535C889.908 191.612 892.931 194.999 895.559 196.863C897.924 198.539 900.252 199.24 901.58 199.562C904.263 200.213 906.929 200.25 908.775 200.209C912.773 200.119 917.916 199.476 923.763 198.516L921.334 183.714ZM903.877 184.106L918.679 181.677L909.158 123.664L894.356 126.094L879.554 128.523L889.075 186.535L903.877 184.106ZM894.356 126.094L909.158 123.664C908.4 119.046 906.672 113.062 902.097 108.376C896.691 102.838 889.606 101.365 883.254 102.408L885.683 117.21L888.112 132.012C887.524 132.109 886.278 132.201 884.689 131.741C883.02 131.258 881.626 130.352 880.631 129.333C879.717 128.397 879.382 127.62 879.333 127.504C879.286 127.39 879.413 127.666 879.554 128.523L894.356 126.094ZM885.683 117.21L883.254 102.408C878.283 103.224 874.127 105.934 871.567 107.786L880.359 119.939L889.151 132.092C889.483 131.852 889.74 131.68 889.927 131.562C890.117 131.443 890.202 131.4 890.191 131.406C890.184 131.409 890.019 131.494 889.713 131.605C889.413 131.714 888.867 131.888 888.112 132.012L885.683 117.21ZM880.359 119.939L872.127 107.399C870.207 108.66 867.094 110.733 864.994 113.065L876.137 123.106L887.281 133.146C887.037 133.417 886.839 133.612 886.721 133.724C886.598 133.84 886.512 133.915 886.478 133.944C886.417 133.996 886.453 133.962 886.629 133.83C886.99 133.559 887.617 133.118 888.59 132.479L880.359 119.939ZM876.137 123.106L861.335 125.535L871.91 189.97L886.712 187.541L901.514 185.112L890.939 120.676L876.137 123.106ZM953.803 140.662L959.386 126.74L950.221 123.065L943.222 130.029L953.803 140.662ZM974.718 134.962L978.715 120.505L978.39 120.415L978.061 120.339L974.718 134.962ZM951.242 81.0956L961.877 91.6729L961.877 91.6729L951.242 81.0956ZM1002.07 68.0122L1000.04 82.8741L1000.08 82.8794L1000.12 82.8846L1002.07 68.0122ZM1011.59 87.0644L997.693 81.4187L997.635 81.561L997.58 81.7044L1011.59 87.0644ZM1007.05 95.8484L1001.96 109.957L1008.5 112.317L1014.53 108.855L1007.05 95.8484ZM985.5 102.684L977.403 115.311L978.061 115.733L978.758 116.084L985.5 102.684ZM994.02 105.615L989.99 120.063L990.205 120.123L990.422 120.177L994.02 105.615ZM1003.98 108.515L998.914 122.634L999.073 122.692L999.234 122.745L1003.98 108.515ZM1013.33 112.752L1020.61 99.6389L1020.58 99.6186L1020.54 99.5984L1013.33 112.752ZM1019.87 158.885L1031.7 168.105L1031.75 168.045L1031.8 167.985L1019.87 158.885ZM962.684 173.424L966.099 158.818V158.818L962.684 173.424ZM949.533 149.815L935.043 145.936L934.99 146.133L934.943 146.331L949.533 149.815ZM953.803 140.662L948.22 154.584C960.573 159.538 972.956 162.82 983.54 161.083L981.111 146.281L978.682 131.479C976.686 131.807 970.864 131.343 959.386 126.74L953.803 140.662ZM981.111 146.281L983.54 161.083C986.82 160.545 991.839 159.216 995.933 155.22C1000.88 150.391 1002.13 144.064 1001.24 138.648L986.441 141.078L971.639 143.507C971.466 142.45 971.389 140.781 971.959 138.813C972.551 136.766 973.66 135.037 974.976 133.753C977.293 131.491 979.416 131.359 978.682 131.479L981.111 146.281ZM986.441 141.078L1001.24 138.648C1000.45 133.792 997.766 130.517 995.882 128.718C993.958 126.881 991.865 125.612 990.201 124.744C986.861 123.002 982.832 121.643 978.715 120.505L974.718 134.962L970.721 149.42C972.321 149.862 973.592 150.265 974.574 150.619C975.58 150.982 976.12 151.235 976.325 151.342C976.615 151.493 976.029 151.241 975.164 150.415C974.339 149.627 972.271 147.36 971.639 143.507L986.441 141.078ZM974.718 134.962L978.061 120.339C971.024 118.731 966.718 116.273 964.078 113.737C961.577 111.333 959.738 108.069 958.927 103.128L944.125 105.557L929.323 107.987C931.059 118.569 935.593 127.968 943.289 135.366C950.848 142.631 960.564 147.114 971.376 149.585L974.718 134.962ZM944.125 105.557L958.927 103.128C957.981 97.3673 959.318 94.2462 961.877 91.6729L951.242 81.0956L940.606 70.5182C930.425 80.755 927.018 93.9418 929.323 107.987L944.125 105.557ZM951.242 81.0956L961.877 91.6729C965.748 87.7806 970.947 85.0229 978.281 83.8192L975.852 69.0172L973.422 54.2152C960.683 56.3059 949.475 61.6004 940.606 70.5182L951.242 81.0956ZM975.852 69.0172L978.281 83.8192C987.514 82.304 994.67 82.1399 1000.04 82.8741L1002.07 68.0122L1004.1 53.1504C994.855 51.8862 984.531 52.3922 973.422 54.2152L975.852 69.0172ZM1002.07 68.0122L1000.12 82.8846C1001.45 83.0591 1002.37 83.258 1002.97 83.4245C1003.58 83.5966 1003.65 83.6788 1003.37 83.526C1003.09 83.3697 1002.23 82.8404 1001.32 81.708C1000.34 80.4869 999.585 78.9015 999.293 77.1263L1014.1 74.697L1028.9 72.2678C1027.66 64.7162 1022.65 59.9222 1017.95 57.3066C1013.57 54.8733 1008.58 53.7377 1004.02 53.1398L1002.07 68.0122ZM1014.1 74.697L999.293 77.1263C999.147 76.2326 999.323 76.0653 999.13 77.0187C998.95 77.9089 998.535 79.3454 997.693 81.4187L1011.59 87.0644L1025.49 92.7101C1027.88 86.8154 1030.08 79.4592 1028.9 72.2678L1014.1 74.697ZM1011.59 87.0644L997.58 81.7044C997.13 82.8802 996.735 83.8571 996.392 84.6532C996.044 85.461 995.785 86.0042 995.613 86.3365C995.53 86.4974 995.489 86.5678 995.49 86.5665C995.491 86.5638 995.509 86.5334 995.544 86.4798C995.578 86.4268 995.636 86.3398 995.718 86.2258C995.862 86.0255 996.184 85.5961 996.695 85.0701C996.958 84.7984 997.315 84.457 997.768 84.0878C998.217 83.7213 998.821 83.2785 999.581 82.8418L1007.05 95.8484L1014.53 108.855C1017.61 107.08 1019.42 104.656 1020.09 103.724C1020.99 102.47 1021.71 101.183 1022.27 100.103C1023.4 97.9171 1024.51 95.2731 1025.6 92.4244L1011.59 87.0644ZM1007.05 95.8484L1012.15 81.7394C1003.42 78.5893 994.341 77.7866 985.165 79.2925L987.594 94.0945L990.024 108.896C994.23 108.206 998.125 108.573 1001.96 109.957L1007.05 95.8484ZM987.594 94.0945L985.165 79.2925C982.075 79.7997 977.189 81.076 973.181 85.0079C968.332 89.765 967.137 95.9768 967.998 101.227L982.8 98.7979L997.602 96.3687C997.785 97.4822 997.861 99.2014 997.282 101.215C996.681 103.309 995.551 105.088 994.191 106.422C991.781 108.786 989.501 108.982 990.024 108.896L987.594 94.0945ZM982.8 98.7979L967.998 101.227C969.038 107.563 972.77 112.34 977.403 115.311L985.5 102.684L993.596 90.0566C994.232 90.4644 995.154 91.209 995.993 92.4167C996.857 93.6608 997.385 95.042 997.602 96.3687L982.8 98.7979ZM985.5 102.684L978.758 116.084C981.82 117.624 985.895 118.921 989.99 120.063L994.02 105.615L998.05 91.166C996.217 90.6549 994.799 90.2168 993.744 89.8539C992.62 89.467 992.208 89.2675 992.241 89.2842L985.5 102.684ZM994.02 105.615L990.422 120.177C994.147 121.097 996.935 121.924 998.914 122.634L1003.98 108.515L1009.04 94.3963C1005.77 93.2204 1001.91 92.1138 997.618 91.0524L994.02 105.615ZM1003.98 108.515L999.234 122.745C1000.9 123.301 1003.18 124.291 1006.12 125.906L1013.33 112.752L1020.54 99.5984C1016.54 97.4056 1012.58 95.571 1008.72 94.2853L1003.98 108.515ZM1013.33 112.752L1006.05 125.865C1009.32 127.68 1010.83 129.852 1011.43 133.473L1026.23 131.044L1041.03 128.614C1038.95 115.909 1031.86 105.886 1020.61 99.6389L1013.33 112.752ZM1026.23 131.044L1011.43 133.473C1012.59 140.546 1011.18 145.554 1007.95 149.785L1019.87 158.885L1031.8 167.985C1040.56 156.506 1043.38 142.953 1041.03 128.614L1026.23 131.044ZM1019.87 158.885L1008.04 149.665C1005.25 153.249 999.297 157.162 986.94 159.19L989.369 173.992L991.798 188.794C1008.08 186.122 1022.46 179.964 1031.7 168.105L1019.87 158.885ZM989.369 173.992L986.94 159.19C979.127 160.472 972.236 160.253 966.099 158.818L962.684 173.424L959.269 188.03C969.709 190.471 980.608 190.63 991.798 188.794L989.369 173.992ZM962.684 173.424L966.099 158.818C964.76 158.505 963.836 158.178 963.238 157.913C962.641 157.648 962.464 157.488 962.528 157.54C962.614 157.611 962.896 157.871 963.179 158.352C963.467 158.843 963.613 159.319 963.669 159.657L948.867 162.086L934.065 164.516C936.431 178.936 948.451 185.501 959.269 188.03L962.684 173.424ZM948.867 162.086L963.669 159.657C963.434 158.228 963.435 156.176 964.122 153.299L949.533 149.815L934.943 146.331C933.512 152.322 933.07 158.451 934.065 164.516L948.867 162.086ZM949.533 149.815L964.023 153.693C964.469 152.024 964.854 151.029 965.088 150.526C965.198 150.291 965.229 150.263 965.152 150.381C965.078 150.494 964.838 150.843 964.383 151.295L953.803 140.662L943.222 130.029C938.611 134.618 936.371 140.974 935.043 145.936L949.533 149.815ZM1072.09 115.065L1057.2 116.893L1057.24 117.194L1057.29 117.495L1072.09 115.065ZM1043.42 119.977L1058.22 117.548L1058.17 117.248L1058.11 116.95L1043.42 119.977ZM1023.16 21.674L1008.36 24.1032L1008.41 24.4033L1008.47 24.7012L1023.16 21.674ZM1059.86 15.4446L1074.75 13.6174L1074.71 13.3155L1074.67 13.0154L1059.86 15.4446ZM1072.09 115.065L1057.29 117.495C1056.64 113.546 1057.69 110.169 1058.98 107.871C1060.16 105.768 1061.58 104.462 1062.35 103.823C1063.85 102.59 1065.16 102.042 1065.33 101.97C1065.89 101.724 1065.97 101.764 1064.97 102.013C1063.23 102.451 1060.13 103.064 1055.41 103.84L1057.83 118.642L1060.26 133.444C1065.17 132.638 1069.27 131.864 1072.27 131.111C1073.66 130.763 1075.5 130.256 1077.22 129.511C1077.96 129.19 1079.7 128.405 1081.47 126.946C1082.64 125.98 1088.27 121.013 1086.89 112.636L1072.09 115.065ZM1057.83 118.642L1055.41 103.84C1050.73 104.607 1047.58 105.037 1045.72 105.209C1044.69 105.305 1044.61 105.265 1045.06 105.285C1045.15 105.29 1046.4 105.325 1048.04 105.825C1048.86 106.072 1050.65 106.691 1052.57 108.149C1054.66 109.738 1057.44 112.799 1058.22 117.548L1043.42 119.977L1028.62 122.406C1029.41 127.238 1032.24 130.374 1034.41 132.03C1036.42 133.554 1038.34 134.231 1039.31 134.526C1041.28 135.124 1042.99 135.222 1043.7 135.254C1045.38 135.331 1047.12 135.208 1048.49 135.081C1051.43 134.808 1055.43 134.236 1060.26 133.444L1057.83 118.642ZM1043.42 119.977L1058.11 116.95L1037.85 18.6467L1023.16 21.674L1008.47 24.7012L1028.73 123.004L1043.42 119.977ZM1023.16 21.674L1037.96 19.2447C1039.24 26.9973 1034.27 31.6629 1033.21 32.5838C1031.73 33.8651 1030.43 34.4221 1030.31 34.4771C1029.84 34.6869 1029.96 34.5826 1031.25 34.2525C1033.59 33.654 1037.6 32.8555 1043.59 31.8722L1041.16 17.0703L1038.74 2.26827C1032.55 3.28359 1027.48 4.25161 1023.81 5.18771C1022.11 5.62488 1019.99 6.22989 1018.06 7.09094C1017.21 7.47166 1015.38 8.33974 1013.56 9.91767C1012.15 11.1353 1007.04 16.0829 1008.36 24.1032L1023.16 21.674ZM1041.16 17.0703L1043.59 31.8722C1049.67 30.8758 1053.84 30.3119 1056.37 30.0921C1057.75 29.9724 1058.03 30.0121 1057.68 29.9907C1057.64 29.9882 1056.38 29.9369 1054.71 29.3691C1053.86 29.0816 1052.09 28.3953 1050.23 26.868C1048.2 25.1944 1045.78 22.2257 1045.06 17.8738L1059.86 15.4446L1074.67 13.0154C1073.18 3.94593 1065.28 1.2756 1064.33 0.956156C1062.24 0.246572 1060.37 0.099697 1059.53 0.0478449C1057.59 -0.072279 1055.51 0.0535039 1053.77 0.204816C1050.07 0.526881 1044.98 1.24417 1038.74 2.26827L1041.16 17.0703ZM1059.86 15.4446L1044.97 17.2718L1057.2 116.893L1072.09 115.065L1086.98 113.238L1074.75 13.6174L1059.86 15.4446ZM1040.94 132.545L1055.75 130.116C1056.46 134.468 1055.12 138.055 1053.72 140.291C1052.45 142.331 1050.99 143.547 1050.28 144.091C1048.88 145.165 1047.7 145.616 1047.66 145.631C1047.34 145.762 1047.59 145.635 1048.93 145.309C1051.4 144.709 1055.54 143.908 1061.61 142.911L1059.18 128.109L1056.75 113.307C1050.51 114.331 1045.46 115.28 1041.84 116.158C1040.15 116.571 1038.14 117.116 1036.34 117.851C1035.56 118.168 1033.83 118.904 1032.08 120.246C1031.29 120.85 1024.65 125.905 1026.14 134.974L1040.94 132.545ZM1059.18 128.109L1061.61 142.911C1067.76 141.902 1072.06 141.301 1074.7 141.04C1076.12 140.9 1076.54 140.913 1076.37 140.908C1076.28 140.906 1076.03 140.897 1075.68 140.858C1075.36 140.823 1074.69 140.736 1073.83 140.505C1073.12 140.314 1071.34 139.788 1069.4 138.442C1067.32 136.999 1064.1 133.883 1063.25 128.679L1078.05 126.25L1092.85 123.821C1091.98 118.516 1088.69 115.311 1086.5 113.79C1084.45 112.366 1082.51 111.773 1081.59 111.525C1079.67 111.013 1077.98 110.942 1077.22 110.92C1075.44 110.87 1073.48 111.015 1071.76 111.185C1068.12 111.544 1063.05 112.274 1056.75 113.307L1059.18 128.109ZM1078.05 126.25L1063.25 128.679L1067.99 157.585L1082.79 155.155L1097.59 152.726L1092.85 123.821L1078.05 126.25ZM1082.79 155.155L1067.99 157.585C1066.95 151.259 1070.2 146.911 1071.73 145.308C1073.24 143.735 1074.66 143.013 1074.91 142.884C1075.57 142.544 1075.64 142.62 1074.37 142.969C1072.12 143.593 1068.13 144.423 1062.02 145.425L1064.45 160.227L1066.88 175.029C1073.23 173.988 1078.51 172.951 1082.37 171.884C1084.16 171.388 1086.49 170.664 1088.63 169.567C1089.61 169.059 1091.57 167.97 1093.42 166.039C1095.29 164.08 1098.69 159.387 1097.59 152.726L1082.79 155.155ZM1064.45 160.227L1062.02 145.425C1055.94 146.423 1051.7 147.015 1049.09 147.27C1047.69 147.407 1047.29 147.391 1047.49 147.397C1047.58 147.4 1047.83 147.41 1048.19 147.451C1048.51 147.487 1049.19 147.578 1050.06 147.814C1050.79 148.011 1052.56 148.548 1054.5 149.907C1056.58 151.369 1059.75 154.479 1060.59 159.624L1045.79 162.053L1030.99 164.482C1031.85 169.728 1035.07 172.927 1037.27 174.467C1039.32 175.905 1041.25 176.508 1042.19 176.762C1044.11 177.286 1045.81 177.36 1046.57 177.383C1048.36 177.438 1050.31 177.294 1052.01 177.127C1055.63 176.774 1060.65 176.051 1066.88 175.029L1064.45 160.227ZM1045.79 162.053L1060.59 159.624L1055.75 130.116L1040.94 132.545L1026.14 134.974L1030.99 164.482L1045.79 162.053Z" fill="black" mask="url(#path-1-outside-1_84_3)"/>
</g>
<defs>
<filter id="filter0_d_84_3" x="0" y="0" width="1111.81" height="351.539" filterUnits="userSpaceOnUse" color-interpolation-filters="sRGB">
<feFlood flood-opacity="0" result="BackgroundImageFix"/>
<feColorMatrix in="SourceAlpha" type="matrix" values="0 0 0 0 0 0 0 0 0 0 0 0 0 0 0 0 0 0 127 0" result="hardAlpha"/>
<feOffset dx="10" dy="10"/>
<feGaussianBlur stdDeviation="2"/>
<feComposite in2="hardAlpha" operator="out"/>
<feColorMatrix type="matrix" values="0 0 0 0 0 0 0 0 0 0 0 0 0 0 0 0 0 0 0.6 0"/>
<feBlend mode="normal" in2="BackgroundImageFix" result="effect1_dropShadow_84_3"/>
<feBlend mode="normal" in="SourceGraphic" in2="effect1_dropShadow_84_3" result="shape"/>
</filter>
</defs>
</svg>
