<svg width="1055" height="347" viewBox="0 0 1055 347" fill="none" xmlns="http://www.w3.org/2000/svg">
<g filter="url(#filter0_d_84_2)">
<mask id="path-1-outside-1_84_2" maskUnits="userSpaceOnUse" x="-3.49748" y="-3.78468" width="1047.2" height="342.754" fill="black">
<rect fill="white" x="-3.49748" y="-3.78468" width="1047.2" height="342.754"/>
<path d="M116.873 198.72C119.157 212.637 114.87 224.198 104.011 233.4C110.964 234.733 117.131 237.981 122.514 243.145C127.896 248.309 131.476 256.31 133.255 267.15C135.012 277.856 132.391 287.012 125.394 294.62C118.531 302.205 107.672 307.216 92.8172 309.654L45.4438 317.427C43.1688 317.8 41.1745 317.372 39.4609 316.141C37.7253 314.777 36.6489 312.823 36.2317 310.281L15.1515 181.81C14.91 180.338 14.957 179.368 15.2926 178.901C15.74 178.278 16.6998 177.846 18.1718 177.604L63.9394 170.094C95.2541 164.956 112.899 174.498 116.873 198.72ZM58.4357 204.392L62.7505 230.688L63.7542 230.524C76.6012 228.416 82.3221 223.079 80.9167 214.514C80.1482 209.831 78.3169 206.627 75.4229 204.903C72.6628 203.157 68.4055 202.756 62.6511 203.7L58.4357 204.392ZM66.6372 254.375L70.9191 280.47L74.5323 279.878C80.2867 278.933 84.3265 277.171 86.6516 274.591C88.9768 272.01 89.7551 268.378 88.9865 263.695C88.218 259.011 86.4087 255.941 83.5586 254.484C80.8423 253.006 76.607 252.739 70.8526 253.683L66.6372 254.375ZM189.86 292.081C190.058 293.285 183.331 295.008 169.681 297.247C158.954 298.87 153.513 299.213 153.359 298.276L130.928 161.576C130.599 159.569 136.925 157.5 149.906 155.37C161.347 153.905 167.144 153.641 167.298 154.578L189.86 292.081ZM208.972 215.765C204.127 209.689 201.364 204.577 200.683 200.428C199.981 196.146 200.668 193.216 202.746 191.638C209.824 187.041 219.988 183.655 233.237 181.481C246.619 179.286 256.57 180.882 263.088 186.272C269.585 191.527 273.833 200.244 275.831 212.422L281.035 244.138L287.86 243.018C290.135 242.645 292.095 243.698 293.738 246.176C295.516 248.633 296.788 252.204 297.557 256.888C298.326 261.571 297.879 266.386 296.217 271.331C294.688 276.254 291.917 279.045 287.902 279.704C280.675 280.89 274.536 279.905 269.483 276.748C267.212 275.472 265.355 273.784 263.911 271.685C259.028 280.457 250.097 285.907 237.116 288.037C227.347 289.64 218.546 287.511 210.713 281.651C202.88 275.79 198.184 268.109 196.625 258.607C193.045 236.794 204.304 223.746 230.399 219.464L241.44 217.653L241.11 215.645C240.539 212.166 239.575 210.057 238.217 209.318C236.97 208.423 234.273 208.316 230.124 208.996C225.039 209.831 217.988 212.087 208.972 215.765ZM231.091 250.066C231.574 253.01 232.751 255.153 234.62 256.495C236.468 257.704 238.596 258.111 241.004 257.715C243.547 257.298 245.657 255.921 247.335 253.584L244.799 238.128L239.179 239.05C232.755 240.104 230.059 243.776 231.091 250.066ZM336.734 218.507C338.886 231.622 344.913 237.367 354.816 235.742C361.24 234.688 366.384 232.538 370.249 229.293C372.257 228.964 374.434 232.18 376.78 238.941C379.238 245.546 380.676 250.12 381.093 252.663C381.488 255.072 381.417 256.732 380.88 257.645C374.512 263.225 365.172 267.025 352.86 269.045C340.548 271.066 329.297 268.239 319.105 260.567C309.025 252.738 302.69 240.928 300.098 225.137C297.485 209.212 299.593 195.674 306.421 184.521C313.382 173.347 323.889 166.607 337.94 164.301C352.126 161.973 362.522 163.772 369.128 169.697C370.574 170.971 371.539 173.08 372.022 176.024C372.483 178.835 372.519 182.402 372.129 186.726C371.125 195.686 368.793 201.154 365.132 203.129C364.618 203.35 363.826 203.549 362.756 203.725C361.819 203.878 360.483 203.273 358.747 201.909C352.672 197.546 348.028 195.628 344.816 196.155C341.738 196.66 339.325 198.705 337.577 202.29C335.829 205.875 335.548 211.281 336.734 218.507ZM374.266 120.823C373.915 118.682 379.828 116.612 392.006 114.614C403.447 113.149 409.277 113.085 409.497 114.424L422.145 191.506L435.99 151.511C436.597 149.35 442.12 147.413 452.559 145.7C462.997 143.987 469.798 143.558 472.961 144.413L453.849 191.251L493.214 242.717C493.57 243.208 491.093 244.027 485.784 245.173C480.631 246.431 476.315 247.345 472.835 247.916C459.988 250.024 452.997 250.553 451.863 249.502L424.678 208.2L431.957 252.562C432.243 254.302 426.497 256.138 414.721 258.07C403.078 259.981 397.125 260.133 396.862 258.527L374.266 120.823ZM513.989 98.3087C513.346 96.9025 519.983 95.0576 533.901 92.7739C549.29 90.2486 557.395 90.2244 558.213 92.7012L581.916 175.597L589.162 86.5921C589.502 84.475 594.557 82.6149 604.326 81.0119C614.095 79.409 619.468 79.4893 620.444 81.2531L655.451 163.943L653.095 76.7201C653.121 75.2041 656.034 73.6954 661.835 72.1939C667.635 70.6924 672.342 69.6453 675.955 69.0524C690.007 66.7467 696.985 66.5636 696.891 68.503L694.44 205.576C694.234 207.671 690.662 209.769 683.723 211.869C676.784 213.97 671.106 215.383 666.69 216.107C650.096 218.83 641.09 218.384 639.672 214.769L616.965 161.806L611.135 219.245C610.995 221.742 606.597 224.25 597.94 226.77C593.456 227.918 588.939 228.865 584.389 229.612L571.443 231.118C562.457 231.63 557.499 230.726 556.568 228.405L513.989 98.3087ZM769.396 197.399C769.572 198.47 763.504 200.015 751.192 202.036C739.014 204.034 732.848 204.564 732.694 203.628L716.522 105.067C716.368 104.13 722.38 102.663 734.558 100.664C746.87 98.6442 753.092 98.0355 753.223 98.8385L769.396 197.399ZM751.28 86.9951C751.434 87.9319 745.355 89.4104 733.043 91.4305C720.865 93.4288 714.71 94.0264 714.579 93.2235L709.836 64.3176C709.616 62.9794 715.595 61.3112 727.773 59.3129C740.085 57.2928 746.307 56.6841 746.438 57.4871L751.28 86.9951ZM829.504 187.537C829.657 188.473 824.916 189.732 815.281 191.313C801.833 193.108 795.021 193.469 794.845 192.399L784.173 127.361L778.954 128.217C775.475 128.788 772.717 126.217 770.68 120.505C770.127 118.809 769.708 117.091 769.422 115.351C768.742 111.203 768.864 106.923 769.789 102.511C771.232 96.2272 774.496 92.6682 779.581 91.8338C784.666 90.9993 789.414 91.4572 793.824 93.2072C798.234 94.9573 801.305 96.9269 803.039 99.1162C810.284 90.5063 819.728 85.2462 831.37 83.3358C843.013 81.4254 851.96 83.1869 858.211 88.6202C864.462 94.0535 868.763 103.93 871.112 118.249L880.994 178.469C881.257 180.075 875.634 181.822 864.126 183.711C852.751 185.577 846.931 185.708 846.668 184.102L837.149 126.089C836.051 119.398 833.16 116.437 828.476 117.205C827.138 117.425 825.363 118.335 823.152 119.934C820.919 121.4 819.512 122.456 818.93 123.101L829.504 187.537ZM896.595 140.659C908.511 145.438 917.614 147.311 923.903 146.279C927.918 145.621 929.695 143.886 929.234 141.076C928.904 139.068 924.997 137.03 917.511 134.96C899.663 130.88 889.466 121.078 886.918 105.554C885.293 95.6515 887.666 87.4976 894.036 81.0927C900.406 74.6878 908.61 70.6619 918.646 69.015C928.817 67.3462 937.557 67.0114 944.867 68.0108C952.311 68.9881 956.319 71.2165 956.89 74.6959C957.373 77.64 956.538 81.7624 954.384 87.0632C952.364 92.3419 950.852 95.2699 949.847 95.847C943.566 93.5795 937.08 92.9947 930.388 94.0926C926.775 94.6855 925.177 96.2533 925.594 98.7959C925.858 100.402 926.758 101.697 928.293 102.682C929.941 103.511 932.781 104.488 936.814 105.613C940.824 106.604 944.144 107.571 946.772 108.514C949.534 109.435 952.652 110.847 956.125 112.751C963.383 116.782 967.682 122.88 969.021 131.043C970.778 141.749 968.659 151.029 962.664 158.884C956.648 166.605 946.48 171.641 932.161 173.99C922.659 175.549 913.764 175.36 905.475 173.421C897.187 171.483 892.581 167.704 891.659 162.083C891.044 158.336 891.266 154.246 892.325 149.812C893.518 145.356 894.941 142.305 896.595 140.659ZM1014.88 115.066C1015.01 115.869 1010.26 117.061 1000.63 118.642C991.126 120.201 986.321 120.646 986.211 119.977L965.958 21.6731C965.782 20.6025 971.783 19.0681 983.961 17.0699C996.273 15.0497 1002.51 14.508 1002.66 15.4447L1014.88 115.066ZM983.738 132.545C983.584 131.608 989.663 130.129 1001.97 128.109C1014.42 126.067 1020.71 125.447 1020.84 126.25L1025.58 155.156C1025.8 156.494 1019.69 158.185 1007.24 160.227C994.933 162.247 988.712 162.856 988.58 162.053L983.738 132.545Z"/>
</mask>
<path d="M116.873 198.72C119.157 212.637 114.87 224.198 104.011 233.4C110.964 234.733 117.131 237.981 122.514 243.145C127.896 248.309 131.476 256.31 133.255 267.15C135.012 277.856 132.391 287.012 125.394 294.62C118.531 302.205 107.672 307.216 92.8172 309.654L45.4438 317.427C43.1688 317.8 41.1745 317.372 39.4609 316.141C37.7253 314.777 36.6489 312.823 36.2317 310.281L15.1515 181.81C14.91 180.338 14.957 179.368 15.2926 178.901C15.74 178.278 16.6998 177.846 18.1718 177.604L63.9394 170.094C95.2541 164.956 112.899 174.498 116.873 198.72ZM58.4357 204.392L62.7505 230.688L63.7542 230.524C76.6012 228.416 82.3221 223.079 80.9167 214.514C80.1482 209.831 78.3169 206.627 75.4229 204.903C72.6628 203.157 68.4055 202.756 62.6511 203.7L58.4357 204.392ZM66.6372 254.375L70.9191 280.47L74.5323 279.878C80.2867 278.933 84.3265 277.171 86.6516 274.591C88.9768 272.01 89.7551 268.378 88.9865 263.695C88.218 259.011 86.4087 255.941 83.5586 254.484C80.8423 253.006 76.607 252.739 70.8526 253.683L66.6372 254.375ZM189.86 292.081C190.058 293.285 183.331 295.008 169.681 297.247C158.954 298.87 153.513 299.213 153.359 298.276L130.928 161.576C130.599 159.569 136.925 157.5 149.906 155.37C161.347 153.905 167.144 153.641 167.298 154.578L189.86 292.081ZM208.972 215.765C204.127 209.689 201.364 204.577 200.683 200.428C199.981 196.146 200.668 193.216 202.746 191.638C209.824 187.041 219.988 183.655 233.237 181.481C246.619 179.286 256.57 180.882 263.088 186.272C269.585 191.527 273.833 200.244 275.831 212.422L281.035 244.138L287.86 243.018C290.135 242.645 292.095 243.698 293.738 246.176C295.516 248.633 296.788 252.204 297.557 256.888C298.326 261.571 297.879 266.386 296.217 271.331C294.688 276.254 291.917 279.045 287.902 279.704C280.675 280.89 274.536 279.905 269.483 276.748C267.212 275.472 265.355 273.784 263.911 271.685C259.028 280.457 250.097 285.907 237.116 288.037C227.347 289.64 218.546 287.511 210.713 281.651C202.88 275.79 198.184 268.109 196.625 258.607C193.045 236.794 204.304 223.746 230.399 219.464L241.44 217.653L241.11 215.645C240.539 212.166 239.575 210.057 238.217 209.318C236.97 208.423 234.273 208.316 230.124 208.996C225.039 209.831 217.988 212.087 208.972 215.765ZM231.091 250.066C231.574 253.01 232.751 255.153 234.62 256.495C236.468 257.704 238.596 258.111 241.004 257.715C243.547 257.298 245.657 255.921 247.335 253.584L244.799 238.128L239.179 239.05C232.755 240.104 230.059 243.776 231.091 250.066ZM336.734 218.507C338.886 231.622 344.913 237.367 354.816 235.742C361.24 234.688 366.384 232.538 370.249 229.293C372.257 228.964 374.434 232.18 376.78 238.941C379.238 245.546 380.676 250.12 381.093 252.663C381.488 255.072 381.417 256.732 380.88 257.645C374.512 263.225 365.172 267.025 352.86 269.045C340.548 271.066 329.297 268.239 319.105 260.567C309.025 252.738 302.69 240.928 300.098 225.137C297.485 209.212 299.593 195.674 306.421 184.521C313.382 173.347 323.889 166.607 337.94 164.301C352.126 161.973 362.522 163.772 369.128 169.697C370.574 170.971 371.539 173.08 372.022 176.024C372.483 178.835 372.519 182.402 372.129 186.726C371.125 195.686 368.793 201.154 365.132 203.129C364.618 203.35 363.826 203.549 362.756 203.725C361.819 203.878 360.483 203.273 358.747 201.909C352.672 197.546 348.028 195.628 344.816 196.155C341.738 196.66 339.325 198.705 337.577 202.29C335.829 205.875 335.548 211.281 336.734 218.507ZM374.266 120.823C373.915 118.682 379.828 116.612 392.006 114.614C403.447 113.149 409.277 113.085 409.497 114.424L422.145 191.506L435.99 151.511C436.597 149.35 442.12 147.413 452.559 145.7C462.997 143.987 469.798 143.558 472.961 144.413L453.849 191.251L493.214 242.717C493.57 243.208 491.093 244.027 485.784 245.173C480.631 246.431 476.315 247.345 472.835 247.916C459.988 250.024 452.997 250.553 451.863 249.502L424.678 208.2L431.957 252.562C432.243 254.302 426.497 256.138 414.721 258.07C403.078 259.981 397.125 260.133 396.862 258.527L374.266 120.823ZM513.989 98.3087C513.346 96.9025 519.983 95.0576 533.901 92.7739C549.29 90.2486 557.395 90.2244 558.213 92.7012L581.916 175.597L589.162 86.5921C589.502 84.475 594.557 82.6149 604.326 81.0119C614.095 79.409 619.468 79.4893 620.444 81.2531L655.451 163.943L653.095 76.7201C653.121 75.2041 656.034 73.6954 661.835 72.1939C667.635 70.6924 672.342 69.6453 675.955 69.0524C690.007 66.7467 696.985 66.5636 696.891 68.503L694.44 205.576C694.234 207.671 690.662 209.769 683.723 211.869C676.784 213.97 671.106 215.383 666.69 216.107C650.096 218.83 641.09 218.384 639.672 214.769L616.965 161.806L611.135 219.245C610.995 221.742 606.597 224.25 597.94 226.77C593.456 227.918 588.939 228.865 584.389 229.612L571.443 231.118C562.457 231.63 557.499 230.726 556.568 228.405L513.989 98.3087ZM769.396 197.399C769.572 198.47 763.504 200.015 751.192 202.036C739.014 204.034 732.848 204.564 732.694 203.628L716.522 105.067C716.368 104.13 722.38 102.663 734.558 100.664C746.87 98.6442 753.092 98.0355 753.223 98.8385L769.396 197.399ZM751.28 86.9951C751.434 87.9319 745.355 89.4104 733.043 91.4305C720.865 93.4288 714.71 94.0264 714.579 93.2235L709.836 64.3176C709.616 62.9794 715.595 61.3112 727.773 59.3129C740.085 57.2928 746.307 56.6841 746.438 57.4871L751.28 86.9951ZM829.504 187.537C829.657 188.473 824.916 189.732 815.281 191.313C801.833 193.108 795.021 193.469 794.845 192.399L784.173 127.361L778.954 128.217C775.475 128.788 772.717 126.217 770.68 120.505C770.127 118.809 769.708 117.091 769.422 115.351C768.742 111.203 768.864 106.923 769.789 102.511C771.232 96.2272 774.496 92.6682 779.581 91.8338C784.666 90.9993 789.414 91.4572 793.824 93.2072C798.234 94.9573 801.305 96.9269 803.039 99.1162C810.284 90.5063 819.728 85.2462 831.37 83.3358C843.013 81.4254 851.96 83.1869 858.211 88.6202C864.462 94.0535 868.763 103.93 871.112 118.249L880.994 178.469C881.257 180.075 875.634 181.822 864.126 183.711C852.751 185.577 846.931 185.708 846.668 184.102L837.149 126.089C836.051 119.398 833.16 116.437 828.476 117.205C827.138 117.425 825.363 118.335 823.152 119.934C820.919 121.4 819.512 122.456 818.93 123.101L829.504 187.537ZM896.595 140.659C908.511 145.438 917.614 147.311 923.903 146.279C927.918 145.621 929.695 143.886 929.234 141.076C928.904 139.068 924.997 137.03 917.511 134.96C899.663 130.88 889.466 121.078 886.918 105.554C885.293 95.6515 887.666 87.4976 894.036 81.0927C900.406 74.6878 908.61 70.6619 918.646 69.015C928.817 67.3462 937.557 67.0114 944.867 68.0108C952.311 68.9881 956.319 71.2165 956.89 74.6959C957.373 77.64 956.538 81.7624 954.384 87.0632C952.364 92.3419 950.852 95.2699 949.847 95.847C943.566 93.5795 937.08 92.9947 930.388 94.0926C926.775 94.6855 925.177 96.2533 925.594 98.7959C925.858 100.402 926.758 101.697 928.293 102.682C929.941 103.511 932.781 104.488 936.814 105.613C940.824 106.604 944.144 107.571 946.772 108.514C949.534 109.435 952.652 110.847 956.125 112.751C963.383 116.782 967.682 122.88 969.021 131.043C970.778 141.749 968.659 151.029 962.664 158.884C956.648 166.605 946.48 171.641 932.161 173.99C922.659 175.549 913.764 175.36 905.475 173.421C897.187 171.483 892.581 167.704 891.659 162.083C891.044 158.336 891.266 154.246 892.325 149.812C893.518 145.356 894.941 142.305 896.595 140.659ZM1014.88 115.066C1015.01 115.869 1010.26 117.061 1000.63 118.642C991.126 120.201 986.321 120.646 986.211 119.977L965.958 21.6731C965.782 20.6025 971.783 19.0681 983.961 17.0699C996.273 15.0497 1002.51 14.508 1002.66 15.4447L1014.88 115.066ZM983.738 132.545C983.584 131.608 989.663 130.129 1001.97 128.109C1014.42 126.067 1020.71 125.447 1020.84 126.25L1025.58 155.156C1025.8 156.494 1019.69 158.185 1007.24 160.227C994.933 162.247 988.712 162.856 988.58 162.053L983.738 132.545Z" fill="black"/>
<path d="M104.011 233.4L94.3129 221.957L70.3943 242.229L101.187 248.132L104.011 233.4ZM122.514 243.145L132.898 232.321L132.898 232.321L122.514 243.145ZM125.394 294.62L114.354 284.465L114.313 284.51L114.272 284.555L125.394 294.62ZM39.4609 316.141L30.1907 327.934L30.4469 328.135L30.7117 328.325L39.4609 316.141ZM15.2926 178.901L3.1085 170.152L3.10847 170.152L15.2926 178.901ZM58.4357 204.392L56.0069 189.59L41.2048 192.019L43.6336 206.821L58.4357 204.392ZM62.7505 230.688L47.9485 233.117L50.3773 247.919L65.1793 245.49L62.7505 230.688ZM75.4229 204.903L67.4043 217.58L67.5739 217.687L67.7462 217.79L75.4229 204.903ZM66.6372 254.375L64.2084 239.573L49.4063 242.002L51.8351 256.804L66.6372 254.375ZM70.9191 280.47L56.1171 282.899L58.5459 297.701L73.3479 295.273L70.9191 280.47ZM86.6516 274.591L97.795 284.632L97.795 284.632L86.6516 274.591ZM83.5586 254.484L76.3882 267.66L76.5596 267.753L76.7334 267.842L83.5586 254.484ZM116.873 198.72L102.071 201.149C103.492 209.808 101.197 216.123 94.3129 221.957L104.011 233.4L113.709 244.843C128.542 232.273 134.822 215.467 131.675 196.291L116.873 198.72ZM104.011 233.4L101.187 248.132C105.139 248.89 108.719 250.698 112.129 253.969L122.514 243.145L132.898 232.321C125.543 225.265 116.789 220.577 106.835 218.669L104.011 233.4ZM122.514 243.145L112.129 253.969C114.294 256.046 116.962 260.492 118.453 269.579L133.255 267.15L148.057 264.721C145.991 252.128 141.497 240.571 132.898 232.321L122.514 243.145ZM133.255 267.15L118.453 269.579C119.506 275.997 118.055 280.442 114.354 284.465L125.394 294.62L136.434 304.774C146.728 293.583 150.517 279.715 148.057 264.721L133.255 267.15ZM125.394 294.62L114.272 284.555C110.542 288.677 103.416 292.714 90.3884 294.851L92.8172 309.654L95.2461 324.456C111.927 321.718 126.519 315.733 136.517 304.684L125.394 294.62ZM92.8172 309.654L90.3884 294.851L43.015 302.625L45.4438 317.427L47.8726 332.229L95.2461 324.456L92.8172 309.654ZM45.4438 317.427L43.015 302.625C43.4903 302.547 44.3322 302.492 45.3936 302.72C46.4825 302.954 47.4502 303.411 48.2101 303.957L39.4609 316.141L30.7117 328.325C35.9725 332.103 42.0729 333.181 47.8726 332.229L45.4438 317.427ZM39.4609 316.141L48.7311 304.349C49.4614 304.923 50.0673 305.647 50.4896 306.414C50.8932 307.146 51.0079 307.694 51.0338 307.852L36.2317 310.281L21.4297 312.709C22.3463 318.296 25.0183 323.867 30.1907 327.934L39.4609 316.141ZM36.2317 310.281L51.0338 307.852L29.9536 179.381L15.1515 181.81L0.349441 184.239L21.4297 312.709L36.2317 310.281ZM15.1515 181.81L29.9536 179.381C29.9232 179.196 30.0352 179.733 29.988 180.705C29.9631 181.22 29.8829 182.105 29.59 183.205C29.3002 184.294 28.7124 185.929 27.4767 187.65L15.2926 178.901L3.10847 170.152C0.455033 173.847 0.10098 177.649 0.0232141 179.252C-0.0709865 181.195 0.138281 182.952 0.349441 184.239L15.1515 181.81ZM15.2926 178.901L27.4766 187.65C25.6924 190.135 23.5779 191.304 22.5087 191.786C21.4189 192.277 20.6634 192.396 20.6007 192.406L18.1718 177.604L15.743 162.802C13.6082 163.152 7.27392 164.351 3.1085 170.152L15.2926 178.901ZM18.1718 177.604L20.6007 192.406L66.3682 184.896L63.9394 170.094L61.5106 155.292L15.743 162.802L18.1718 177.604ZM63.9394 170.094L66.3682 184.896C80.5288 182.573 88.89 184.085 93.5236 186.591C97.3444 188.657 100.649 192.481 102.071 201.149L116.873 198.72L131.675 196.291C129.123 180.737 121.618 167.678 107.794 160.203C94.7831 153.167 78.6647 152.477 61.5106 155.292L63.9394 170.094ZM58.4357 204.392L43.6336 206.821L47.9485 233.117L62.7505 230.688L77.5526 228.259L73.2377 201.963L58.4357 204.392ZM62.7505 230.688L65.1793 245.49L66.183 245.326L63.7542 230.524L61.3254 215.721L60.3217 215.886L62.7505 230.688ZM63.7542 230.524L66.183 245.326C73.7837 244.078 81.8789 241.536 87.9117 235.909C94.8879 229.402 97.129 220.68 95.7188 212.086L80.9167 214.514L66.1147 216.943C66.161 217.225 66.0373 216.761 66.309 215.885C66.6013 214.944 67.1177 214.28 67.4485 213.971C67.6914 213.745 67.5308 213.99 66.4713 214.415C65.4172 214.837 63.7614 215.322 61.3254 215.721L63.7542 230.524ZM80.9167 214.514L95.7188 212.086C94.5389 204.895 91.1608 196.818 83.0996 192.016L75.4229 204.903L67.7462 217.79C67.2964 217.522 66.8968 217.199 66.5673 216.855C66.2429 216.517 66.0464 216.221 65.944 216.042C65.7593 215.719 65.941 215.885 66.1147 216.943L80.9167 214.514ZM75.4229 204.903L83.4416 192.226C75.92 187.468 67.0346 187.78 60.2223 188.898L62.6511 203.7L65.0799 218.502C67.1149 218.168 68.2715 218.181 68.7537 218.227C69.2316 218.272 68.5399 218.298 67.4043 217.58L75.4229 204.903ZM62.6511 203.7L60.2223 188.898L56.0069 189.59L58.4357 204.392L60.8645 219.194L65.0799 218.502L62.6511 203.7ZM66.6372 254.375L51.8351 256.804L56.1171 282.899L70.9191 280.47L85.7212 278.042L81.4392 251.946L66.6372 254.375ZM70.9191 280.47L73.3479 295.273L76.9612 294.68L74.5323 279.878L72.1035 265.076L68.4903 265.668L70.9191 280.47ZM74.5323 279.878L76.9612 294.68C83.9906 293.526 92.0924 290.961 97.795 284.632L86.6516 274.591L75.5083 264.55C76.1073 263.885 76.4494 263.851 75.8803 264.099C75.3005 264.352 74.1218 264.744 72.1035 265.076L74.5323 279.878ZM86.6516 274.591L97.795 284.632C104.188 277.537 105.008 268.695 103.789 261.266L88.9865 263.695L74.1845 266.123C74.3459 267.107 74.2163 267.236 74.3122 266.789C74.3638 266.548 74.4724 266.184 74.6866 265.755C74.9034 265.321 75.1843 264.909 75.5083 264.55L86.6516 274.591ZM88.9865 263.695L103.789 261.266C102.638 254.252 99.2406 245.653 90.3838 241.127L83.5586 254.484L76.7334 267.842C76.0944 267.515 75.5232 267.099 75.049 266.638C74.5832 266.186 74.2924 265.77 74.1303 265.495C73.8378 264.999 74.0066 265.039 74.1845 266.123L88.9865 263.695ZM83.5586 254.484L90.729 241.309C83.4355 237.34 74.9502 237.81 68.4238 238.881L70.8526 253.683L73.2814 268.485C75.4268 268.133 76.7407 268.104 77.4011 268.146C78.1022 268.19 77.5253 268.278 76.3882 267.66L83.5586 254.484ZM70.8526 253.683L68.4238 238.881L64.2084 239.573L66.6372 254.375L69.066 269.177L73.2814 268.485L70.8526 253.683ZM169.681 297.247L171.925 312.079L172.018 312.065L172.11 312.049L169.681 297.247ZM149.906 155.37L148.001 140.491L147.738 140.525L147.477 140.568L149.906 155.37ZM189.86 292.081L175.058 294.51C173.793 286.8 178.711 282.157 179.765 281.24C181.223 279.971 182.493 279.43 182.574 279.394C182.959 279.221 182.715 279.368 181.243 279.745C178.543 280.436 173.98 281.341 167.253 282.445L169.681 297.247L172.11 312.049C179.033 310.913 184.658 309.838 188.684 308.807C190.576 308.323 192.829 307.673 194.846 306.769C195.743 306.367 197.613 305.476 199.454 303.874C200.892 302.624 205.976 297.663 204.662 289.652L189.86 292.081ZM169.681 297.247L167.438 282.416C162.172 283.213 158.656 283.623 156.611 283.751C155.466 283.824 155.456 283.76 156.049 283.823C156.226 283.842 157.647 283.975 159.45 284.728C160.71 285.255 166.891 288.104 168.161 295.848L153.359 298.276L138.557 300.705C139.866 308.683 146.25 311.726 147.879 312.407C150.051 313.315 152.006 313.562 152.883 313.655C154.874 313.867 156.923 313.791 158.499 313.692C161.895 313.478 166.463 312.905 171.925 312.079L169.681 297.247ZM153.359 298.276L168.161 295.848L145.731 159.147L130.928 161.576L116.126 164.005L138.557 300.705L153.359 298.276ZM130.928 161.576L145.731 159.147C146.414 163.311 145.127 166.822 143.638 169.08C142.328 171.065 140.879 172.113 140.362 172.464C139.355 173.149 138.927 173.156 140.088 172.776C142.12 172.112 146.021 171.208 152.335 170.172L149.906 155.37L147.477 140.568C140.81 141.662 135.058 142.858 130.763 144.262C128.762 144.916 126.003 145.95 123.497 147.654C121.868 148.761 114.514 154.18 116.126 164.005L130.928 161.576ZM149.906 155.37L151.811 170.248C157.439 169.528 161.253 169.161 163.517 169.058C164.764 169.001 164.905 169.058 164.439 169.005C164.326 168.992 163.015 168.865 161.323 168.177C160.449 167.821 158.78 167.042 157.073 165.479C155.224 163.786 153.146 160.968 152.496 157.006L167.298 154.578L182.1 152.149C180.739 143.854 173.905 140.908 172.628 140.388C170.545 139.541 168.666 139.292 167.809 139.195C165.856 138.974 163.803 139.013 162.152 139.089C158.618 139.25 153.814 139.747 148.001 140.491L149.906 155.37ZM167.298 154.578L152.496 157.006L175.058 294.51L189.86 292.081L204.662 289.652L182.1 152.149L167.298 154.578ZM208.972 215.765L197.244 225.117L204.243 233.895L214.638 229.654L208.972 215.765ZM202.746 191.638L194.576 179.058L194.113 179.359L193.673 179.693L202.746 191.638ZM263.088 186.272L253.531 197.832L253.592 197.883L253.655 197.934L263.088 186.272ZM281.035 244.138L266.233 246.567L268.662 261.369L283.464 258.94L281.035 244.138ZM293.738 246.176L281.236 254.466L281.406 254.721L281.585 254.969L293.738 246.176ZM296.217 271.331L281.998 266.552L281.943 266.717L281.891 266.884L296.217 271.331ZM269.483 276.748L277.429 264.026L277.135 263.843L276.833 263.673L269.483 276.748ZM263.911 271.685L276.27 263.184L262.565 243.259L250.804 264.39L263.911 271.685ZM210.713 281.651L219.699 269.64V269.64L210.713 281.651ZM241.44 217.653L243.868 232.455L258.67 230.026L256.242 215.224L241.44 217.653ZM238.217 209.318L229.467 221.502L230.226 222.046L231.046 222.493L238.217 209.318ZM234.62 256.495L225.871 268.679L226.136 268.87L226.408 269.048L234.62 256.495ZM247.335 253.584L259.519 262.334L263.144 257.287L262.137 251.156L247.335 253.584ZM244.799 238.128L259.601 235.699L257.172 220.897L242.37 223.326L244.799 238.128ZM208.972 215.765L220.7 206.414C218.659 203.854 217.307 201.806 216.462 200.242C215.593 198.634 215.474 197.932 215.486 197.999L200.683 200.428L185.881 202.857C187.198 210.884 191.946 218.473 197.244 225.117L208.972 215.765ZM200.683 200.428L215.486 197.999C215.324 197.014 215.535 197.34 215.276 198.445C214.951 199.826 213.977 201.944 211.818 203.584L202.746 191.638L193.673 179.693C184.755 186.466 184.909 196.932 185.881 202.857L200.683 200.428ZM202.746 191.638L210.915 204.218C215.53 201.221 223.391 198.297 235.666 196.283L233.237 181.481L230.808 166.679C216.585 169.013 204.119 172.86 194.576 179.058L202.746 191.638ZM233.237 181.481L235.666 196.283C247.306 194.373 251.921 196.502 253.531 197.832L263.088 186.272L272.646 174.711C261.218 165.263 245.932 164.198 230.808 166.679L233.237 181.481ZM263.088 186.272L253.655 197.934C256.19 199.984 259.349 204.612 261.029 214.851L275.831 212.422L290.633 209.993C288.317 195.876 282.981 183.07 272.522 174.61L263.088 186.272ZM275.831 212.422L261.029 214.851L266.233 246.567L281.035 244.138L295.837 241.709L290.633 209.993L275.831 212.422ZM281.035 244.138L283.464 258.94L290.289 257.82L287.86 243.018L285.431 228.216L278.606 229.336L281.035 244.138ZM287.86 243.018L290.289 257.82C288.29 258.148 285.983 257.841 283.936 256.741C282.126 255.769 281.339 254.62 281.236 254.466L293.738 246.176L306.24 237.887C304.493 235.254 301.905 232.34 298.136 230.314C294.13 228.162 289.705 227.515 285.431 228.216L287.86 243.018ZM293.738 246.176L281.585 254.969C281.463 254.8 281.624 254.969 281.897 255.734C282.167 256.492 282.482 257.651 282.755 259.316L297.557 256.888L312.359 254.459C311.405 248.646 309.59 242.498 305.891 237.384L293.738 246.176ZM297.557 256.888L282.755 259.316C283.089 261.353 282.96 263.691 281.998 266.552L296.217 271.331L310.435 276.11C312.798 269.081 313.562 261.79 312.359 254.459L297.557 256.888ZM296.217 271.331L281.891 266.884C281.628 267.729 281.585 267.315 282.348 266.547C282.742 266.151 283.26 265.755 283.882 265.439C284.5 265.125 285.06 264.97 285.473 264.902L287.902 279.704L290.331 294.506C301.538 292.667 307.865 284.401 310.542 275.778L296.217 271.331ZM287.902 279.704L285.473 264.902C280.984 265.639 278.725 264.836 277.429 264.026L269.483 276.748L261.536 289.471C270.346 294.973 280.367 296.141 290.331 294.506L287.902 279.704ZM269.483 276.748L276.833 263.673C276.513 263.493 276.385 263.353 276.27 263.184L263.911 271.685L251.552 280.185C254.324 284.215 257.911 287.451 262.133 289.824L269.483 276.748ZM263.911 271.685L250.804 264.39C248.801 267.988 244.664 271.598 234.687 273.235L237.116 288.037L239.545 302.84C255.529 300.217 269.255 292.925 277.017 278.98L263.911 271.685ZM237.116 288.037L234.687 273.235C228.89 274.187 224.221 273.024 219.699 269.64L210.713 281.651L201.726 293.661C212.87 301.999 225.804 305.094 239.545 302.84L237.116 288.037ZM210.713 281.651L219.699 269.64C214.914 266.06 212.347 261.787 211.427 256.178L196.625 258.607L181.823 261.036C184.02 274.431 190.845 285.519 201.726 293.661L210.713 281.651ZM196.625 258.607L211.427 256.178C210.137 248.32 211.796 244.514 213.741 242.261C216.123 239.499 221.48 236.129 232.828 234.266L230.399 219.464L227.97 204.662C213.223 207.082 199.903 212.376 191.027 222.662C181.713 233.457 179.533 247.081 181.823 261.036L196.625 258.607ZM230.399 219.464L232.828 234.266L243.868 232.455L241.44 217.653L239.011 202.851L227.97 204.662L230.399 219.464ZM241.44 217.653L256.242 215.224L255.912 213.217L241.11 215.645L226.308 218.074L226.637 220.082L241.44 217.653ZM241.11 215.645L255.912 213.217C255.51 210.768 254.845 207.938 253.6 205.216C252.409 202.613 250.025 198.667 245.387 196.142L238.217 209.318L231.046 222.493C227.766 220.708 226.543 218.186 226.317 217.692C226.037 217.079 226.139 217.043 226.308 218.074L241.11 215.645ZM238.217 209.318L246.966 197.134C242.753 194.109 238.183 193.67 235.854 193.578C233.098 193.469 230.282 193.77 227.696 194.194L230.124 208.996L232.553 223.798C234.115 223.542 234.723 223.557 234.664 223.554C234.609 223.552 234.104 223.533 233.316 223.332C232.551 223.138 231.087 222.664 229.467 221.502L238.217 209.318ZM230.124 208.996L227.696 194.194C220.917 195.307 212.617 198.078 203.306 201.877L208.972 215.765L214.638 229.654C223.359 226.096 229.161 224.355 232.553 223.798L230.124 208.996ZM231.091 250.066L216.289 252.494C217.217 258.15 219.892 264.386 225.871 268.679L234.62 256.495L243.369 244.311C244.366 245.027 245.065 245.897 245.486 246.664C245.873 247.371 245.918 247.788 245.893 247.637L231.091 250.066ZM234.62 256.495L226.408 269.048C231.738 272.535 237.745 273.451 243.433 272.517L241.004 257.715L238.576 242.913C238.892 242.861 239.546 242.807 240.417 242.973C241.314 243.145 242.148 243.495 242.832 243.943L234.62 256.495ZM241.004 257.715L243.433 272.517C250.375 271.378 255.817 267.49 259.519 262.334L247.335 253.584L235.151 244.835C235.243 244.708 235.595 244.266 236.297 243.807C237.028 243.33 237.837 243.034 238.576 242.913L241.004 257.715ZM247.335 253.584L262.137 251.156L259.601 235.699L244.799 238.128L229.997 240.557L232.533 256.013L247.335 253.584ZM244.799 238.128L242.37 223.326L236.75 224.248L239.179 239.05L241.607 253.852L247.228 252.93L244.799 238.128ZM239.179 239.05L236.75 224.248C231.334 225.137 224.756 227.578 220.248 233.717C215.692 239.923 215.386 246.988 216.289 252.494L231.091 250.066L245.893 247.637C245.765 246.854 246.291 248.937 244.43 251.471C242.618 253.94 240.6 254.017 241.607 253.852L239.179 239.05ZM370.249 229.293L367.821 214.491L363.757 215.158L360.604 217.805L370.249 229.293ZM376.78 238.941L362.609 243.858L362.664 244.016L362.722 244.172L376.78 238.941ZM380.88 257.645L390.765 268.927L392.581 267.336L393.806 265.255L380.88 257.645ZM319.105 260.567L309.904 272.413L309.993 272.483L310.083 272.55L319.105 260.567ZM306.421 184.521L293.689 176.589L293.658 176.639L293.628 176.689L306.421 184.521ZM369.128 169.697L359.114 180.864L359.162 180.907L359.21 180.95L369.128 169.697ZM372.129 186.726L387.036 188.396L387.054 188.234L387.068 188.073L372.129 186.726ZM365.132 203.129L371.078 216.9L371.678 216.641L372.253 216.33L365.132 203.129ZM358.747 201.909L368.017 190.116L367.761 189.915L367.496 189.725L358.747 201.909ZM337.577 202.29L351.06 208.864L351.06 208.864L337.577 202.29ZM336.734 218.507L321.932 220.936C323.244 228.933 326.107 237.398 332.52 243.51C339.652 250.309 348.72 251.943 357.245 250.544L354.816 235.742L352.388 220.94C351.528 221.081 351.451 220.948 351.872 221.057C352.385 221.19 352.898 221.49 353.218 221.794C353.462 222.027 353.242 221.928 352.836 220.993C352.424 220.042 351.929 218.474 351.536 216.079L336.734 218.507ZM354.816 235.742L357.245 250.544C365.573 249.178 373.449 246.193 379.895 240.781L370.249 229.293L360.604 217.805C359.319 218.884 356.907 220.198 352.388 220.94L354.816 235.742ZM370.249 229.293L372.678 244.095C368.453 244.788 365.103 243.323 363.269 242.058C361.668 240.953 360.972 239.876 360.966 239.866C360.947 239.838 361.569 240.862 362.609 243.858L376.78 238.941L390.951 234.023C389.644 230.259 388.005 226.293 385.809 223.05C384.454 221.048 378.481 212.742 367.821 214.491L370.249 229.293ZM376.78 238.941L362.722 244.172C363.898 247.334 364.777 249.868 365.392 251.823C365.698 252.797 365.92 253.568 366.073 254.158C366.15 254.45 366.203 254.676 366.24 254.843C366.258 254.925 366.271 254.987 366.279 255.03C366.288 255.074 366.291 255.094 366.291 255.092L381.093 252.663L395.895 250.234C395.208 246.049 393.245 240.177 390.838 233.709L376.78 238.941ZM381.093 252.663L366.291 255.092C366.392 255.707 366.326 255.626 366.35 255.074C366.363 254.772 366.408 254.169 366.598 253.369C366.785 252.575 367.164 251.376 367.953 250.035L380.88 257.645L393.806 265.255C395.836 261.807 396.236 258.38 396.322 256.356C396.417 254.143 396.189 252.028 395.895 250.234L381.093 252.663ZM380.88 257.645L370.994 246.364C367.507 249.419 361.206 252.475 350.431 254.243L352.86 269.045L355.289 283.848C369.137 281.575 381.516 277.031 390.765 268.927L380.88 257.645ZM352.86 269.045L350.431 254.243C342.262 255.584 335.129 253.855 328.127 248.583L319.105 260.567L310.083 272.55C323.464 282.624 338.834 286.548 355.289 283.848L352.86 269.045ZM319.105 260.567L328.306 248.72C321.921 243.761 317.041 235.755 314.9 222.708L300.098 225.137L285.296 227.566C288.338 246.102 296.129 261.715 309.904 272.413L319.105 260.567ZM300.098 225.137L314.9 222.708C312.728 209.471 314.675 199.766 319.214 192.353L306.421 184.521L293.628 176.689C284.51 191.581 282.242 208.953 285.296 227.566L300.098 225.137ZM306.421 184.521L319.152 192.453C323.627 185.27 330.189 180.773 340.369 179.103L337.94 164.301L335.512 149.499C317.589 152.44 303.138 161.424 293.689 176.589L306.421 184.521ZM337.94 164.301L340.369 179.103C352.826 177.059 357.531 179.444 359.114 180.864L369.128 169.697L379.143 158.529C367.513 148.099 351.425 146.888 335.512 149.499L337.94 164.301ZM369.128 169.697L359.21 180.95C358.066 179.942 357.513 178.95 357.295 178.472C357.091 178.026 357.136 177.942 357.22 178.453L372.022 176.024L386.824 173.596C386.072 169.011 384.178 162.967 379.046 158.444L369.128 169.697ZM372.022 176.024L357.22 178.453C357.399 179.546 357.518 181.73 357.189 185.379L372.129 186.726L387.068 188.073C387.519 183.074 387.567 178.124 386.824 173.596L372.022 176.024ZM372.129 186.726L357.222 185.057C356.808 188.752 356.208 190.774 355.83 191.661C355.439 192.578 355.803 191.117 358.01 189.927L365.132 203.129L372.253 216.33C378.121 213.165 381.483 207.983 383.424 203.432C385.378 198.852 386.446 193.66 387.036 188.396L372.129 186.726ZM365.132 203.129L359.185 189.358C359.583 189.186 359.9 189.076 360.097 189.012C360.299 188.947 360.44 188.91 360.503 188.895C360.616 188.866 360.576 188.882 360.327 188.922L362.756 203.725L365.185 218.527C366.558 218.301 368.827 217.871 371.078 216.9L365.132 203.129ZM362.756 203.725L360.327 188.922C363.973 188.324 366.575 189.421 367.241 189.723C368.073 190.1 368.362 190.387 368.017 190.116L358.747 201.909L349.477 213.701C350.868 214.794 352.692 216.067 354.861 217.049C356.863 217.956 360.602 219.279 365.185 218.527L362.756 203.725ZM358.747 201.909L367.496 189.725C363.928 187.162 360.207 184.893 356.434 183.334C352.825 181.843 347.858 180.455 342.388 181.353L344.816 196.155L347.245 210.957C346.049 211.153 345.201 211.046 344.878 210.988C344.561 210.932 344.577 210.895 344.982 211.062C345.852 211.422 347.491 212.292 349.998 214.093L358.747 201.909ZM344.816 196.155L342.388 181.353C333.192 182.862 327.314 189.114 324.095 195.716L337.577 202.29L351.06 208.864C351.253 208.468 351.131 208.888 350.396 209.511C349.56 210.22 348.428 210.763 347.245 210.957L344.816 196.155ZM337.577 202.29L324.095 195.716C320.253 203.596 320.608 212.864 321.932 220.936L336.734 218.507L351.536 216.079C351.061 213.181 350.966 211.142 351.035 209.812C351.106 208.446 351.324 208.322 351.06 208.864L337.577 202.29ZM392.006 114.614L390.101 99.7353L389.838 99.7689L389.577 99.8118L392.006 114.614ZM422.145 191.506L407.343 193.935L436.32 196.413L422.145 191.506ZM435.99 151.511L450.165 156.417L450.31 155.997L450.431 155.569L435.99 151.511ZM472.961 144.413L486.85 150.081L493.263 134.363L476.875 129.933L472.961 144.413ZM453.849 191.251L439.96 185.584L436.714 193.539L441.934 200.364L453.849 191.251ZM493.214 242.717L505.368 233.925L505.25 233.763L505.129 233.604L493.214 242.717ZM485.784 245.173L482.619 230.511L482.423 230.553L482.227 230.601L485.784 245.173ZM451.863 249.502L439.334 257.749L440.334 259.27L441.67 260.507L451.863 249.502ZM424.678 208.2L437.208 199.953L409.876 210.629L424.678 208.2ZM374.266 120.823L389.068 118.394C389.653 121.958 388.776 125.151 387.448 127.472C386.264 129.542 384.862 130.713 384.232 131.19C383.065 132.073 382.413 132.166 383.393 131.823C385.076 131.233 388.549 130.382 394.435 129.416L392.006 114.614L389.577 99.8118C383.285 100.844 377.712 102.026 373.482 103.507C371.506 104.199 368.68 105.335 366.123 107.271C363.883 108.967 358.01 114.39 359.464 123.252L374.266 120.823ZM392.006 114.614L393.911 129.492C399.497 128.777 403.111 128.489 405.123 128.467C406.268 128.454 406.062 128.545 405.187 128.36C404.81 128.281 403.224 127.94 401.35 126.799C399.374 125.596 395.625 122.523 394.695 116.852L409.497 114.424L424.299 111.995C423.314 105.99 419.335 102.626 416.953 101.176C414.674 99.7881 412.507 99.244 411.373 99.0052C408.985 98.502 406.566 98.4492 404.796 98.4684C400.978 98.51 395.956 98.9856 390.101 99.7353L392.006 114.614ZM409.497 114.424L394.695 116.852L407.343 193.935L422.145 191.506L436.947 189.077L424.299 111.995L409.497 114.424ZM422.145 191.506L436.32 196.413L450.165 156.417L435.99 151.511L421.815 146.604L407.97 186.599L422.145 191.506ZM435.99 151.511L450.431 155.569C449.776 157.9 448.637 159.557 447.752 160.571C446.886 161.564 446.092 162.142 445.704 162.402C444.994 162.876 444.753 162.872 445.552 162.592C447.08 162.056 450.06 161.31 454.987 160.502L452.559 145.7L450.13 130.898C444.619 131.802 439.618 132.881 435.624 134.282C433.661 134.971 431.273 135.963 429.031 137.462C427.07 138.773 423.122 141.857 421.55 147.452L435.99 151.511ZM452.559 145.7L454.987 160.502C459.951 159.687 463.721 159.235 466.432 159.064C467.781 158.979 468.699 158.975 469.265 158.999C469.914 159.027 469.725 159.077 469.047 158.894L472.961 144.413L476.875 129.933C472.78 128.826 468.208 128.892 464.544 129.123C460.454 129.381 455.604 129.999 450.13 130.898L452.559 145.7ZM472.961 144.413L459.073 138.746L439.96 185.584L453.849 191.251L467.737 196.918L486.85 150.081L472.961 144.413ZM453.849 191.251L441.934 200.364L481.3 251.83L493.214 242.717L505.129 233.604L465.763 182.138L453.849 191.251ZM493.214 242.717L481.061 251.509C479.508 249.362 478.258 246.39 478.248 242.854C478.239 239.449 479.382 236.775 480.439 235.058C482.269 232.081 484.631 230.654 485.068 230.384C486.385 229.571 487.356 229.312 486.916 229.457C486.478 229.602 485.184 229.957 482.619 230.511L485.784 245.173L488.949 259.835C491.694 259.243 494.293 258.615 496.331 257.942C497.129 257.678 498.985 257.05 500.832 255.909C501.534 255.476 504.072 253.895 505.991 250.775C507.092 248.986 508.257 246.244 508.248 242.772C508.238 239.169 506.965 236.133 505.368 233.925L493.214 242.717ZM485.784 245.173L482.227 230.601C477.281 231.808 473.37 232.628 470.406 233.114L472.835 247.916L475.264 262.718C479.26 262.063 483.98 261.054 489.341 259.745L485.784 245.173ZM472.835 247.916L470.406 233.114C464.116 234.146 459.665 234.722 456.826 234.936C455.355 235.048 454.77 235.025 454.774 235.025C454.81 235.027 454.947 235.037 455.164 235.067C455.373 235.095 455.746 235.155 456.234 235.278C456.702 235.396 457.466 235.62 458.381 236.039C459.27 236.445 460.645 237.19 462.056 238.497L451.863 249.502L441.67 260.507C444.551 263.175 447.682 264.061 448.892 264.366C450.435 264.756 451.846 264.899 452.85 264.963C454.885 265.094 457.064 265.004 459.088 264.851C463.24 264.537 468.708 263.794 475.264 262.718L472.835 247.916ZM451.863 249.502L464.393 241.255L437.208 199.953L424.678 208.2L412.149 216.447L439.334 257.749L451.863 249.502ZM424.678 208.2L409.876 210.629L417.155 254.991L431.957 252.562L446.759 250.133L439.48 205.771L424.678 208.2ZM431.957 252.562L417.155 254.991C416.429 250.567 417.899 246.917 419.453 244.675C420.818 242.705 422.305 241.675 422.823 241.337C423.855 240.66 424.337 240.623 423.296 240.956C421.508 241.527 418.012 242.33 412.292 243.268L414.721 258.07L417.15 272.872C423.206 271.879 428.471 270.797 432.428 269.532C434.26 268.947 436.861 268.004 439.259 266.434C440.537 265.597 448.419 260.249 446.759 250.133L431.957 252.562ZM414.721 258.07L412.292 243.268C406.627 244.198 403.054 244.573 401.141 244.622C400.031 244.651 400.428 244.536 401.541 244.796C402.077 244.921 403.806 245.359 405.761 246.711C407.976 248.244 410.876 251.298 411.664 256.098L396.862 258.527L382.06 260.956C382.913 266.157 386.056 269.559 388.693 271.383C391.069 273.027 393.398 273.701 394.711 274.008C397.378 274.632 400.04 274.66 401.908 274.612C405.948 274.509 411.172 273.853 417.15 272.872L414.721 258.07ZM396.862 258.527L411.664 256.098L389.068 118.394L374.266 120.823L359.464 123.252L382.06 260.956L396.862 258.527ZM513.989 98.3087L528.245 93.6428L527.982 92.8395L527.63 92.0707L513.989 98.3087ZM558.213 92.7012L572.635 88.5774L572.551 88.2836L572.455 87.9935L558.213 92.7012ZM581.916 175.597L567.494 179.72L596.867 176.814L581.916 175.597ZM589.162 86.5921L574.352 84.2155L574.259 84.7925L574.212 85.3749L589.162 86.5921ZM620.444 81.2531L634.257 75.4053L633.95 74.6781L633.567 73.9873L620.444 81.2531ZM655.451 163.943L641.638 169.791L670.446 163.538L655.451 163.943ZM653.095 76.7201L638.097 76.4619L638.092 76.7935L638.101 77.1251L653.095 76.7201ZM661.835 72.1939L658.076 57.6725V57.6725L661.835 72.1939ZM696.891 68.503L681.909 67.7764L681.898 68.0055L681.894 68.2348L696.891 68.503ZM694.44 205.576L709.368 207.043L709.427 206.445L709.438 205.844L694.44 205.576ZM683.723 211.869L679.377 197.513V197.513L683.723 211.869ZM639.672 214.769L653.637 209.292L653.551 209.074L653.459 208.858L639.672 214.769ZM616.965 161.806L630.751 155.895L607.897 102.593L602.041 160.292L616.965 161.806ZM611.135 219.245L596.212 217.73L596.178 218.067L596.159 218.405L611.135 219.245ZM597.94 226.77L601.661 241.301L601.898 241.24L602.132 241.172L597.94 226.77ZM584.389 229.612L586.122 244.511L586.471 244.471L586.818 244.414L584.389 229.612ZM571.443 231.118L572.297 246.093L572.738 246.068L573.176 246.017L571.443 231.118ZM556.568 228.405L542.312 233.071L542.464 233.534L542.645 233.987L556.568 228.405ZM513.989 98.3087L527.63 92.0707C528.812 94.6548 529.268 97.6767 528.709 100.737C528.185 103.606 526.922 105.691 525.937 106.96C524.179 109.223 522.273 110.221 522.023 110.357C521.216 110.795 521.064 110.722 522.502 110.322C524.999 109.628 529.474 108.701 536.329 107.576L533.901 92.7739L531.472 77.9718C524.41 79.1306 518.607 80.2676 514.467 81.4183C512.587 81.941 510.026 82.7356 507.72 83.9863C506.721 84.5285 504.293 85.9191 502.241 88.5611C499.652 91.8955 497.346 97.9834 500.347 104.547L513.989 98.3087ZM533.901 92.7739L536.329 107.576C543.816 106.348 548.74 105.87 551.566 105.862C553.088 105.857 553.078 106.002 552.258 105.776C551.816 105.655 550.5 105.256 548.952 104.17C547.275 102.994 545.101 100.826 543.971 97.4088L558.213 92.7012L572.455 87.9935C569.77 79.8686 562.482 77.4739 560.209 76.8489C557.158 76.0103 554.006 75.8543 551.476 75.8618C546.199 75.8776 539.375 76.675 531.472 77.9718L533.901 92.7739ZM558.213 92.7012L543.791 96.8249L567.494 179.72L581.916 175.597L596.338 171.473L572.635 88.5774L558.213 92.7012ZM581.916 175.597L596.867 176.814L604.113 87.8093L589.162 86.5921L574.212 85.3749L566.966 174.379L581.916 175.597ZM589.162 86.5921L603.973 88.9688C603.162 94.0201 599.967 96.5623 599.203 97.1256C598.262 97.8196 597.753 97.9203 598.389 97.6863C599.572 97.2509 602.168 96.5666 606.755 95.814L604.326 81.0119L601.897 66.2099C596.714 67.0603 591.899 68.1075 588.028 69.5322C586.136 70.2282 583.689 71.2911 581.4 72.9794C579.287 74.537 575.332 78.1056 574.352 84.2155L589.162 86.5921ZM604.326 81.0119L606.755 95.814C611.362 95.0579 614.111 94.8482 615.458 94.8683C616.185 94.8792 615.745 94.953 614.704 94.6506C614.139 94.4866 613.024 94.1059 611.724 93.2645C610.375 92.3919 608.635 90.8922 607.321 88.5189L620.444 81.2531L633.567 73.9873C630.487 68.424 625.354 66.5042 623.071 65.8412C620.443 65.0778 617.866 64.901 615.907 64.8717C611.881 64.8114 607.058 65.363 601.897 66.2099L604.326 81.0119ZM620.444 81.2531L606.631 87.1009L641.638 169.791L655.451 163.943L669.264 158.095L634.257 75.4053L620.444 81.2531ZM655.451 163.943L670.446 163.538L668.09 76.3151L653.095 76.7201L638.101 77.1251L640.456 164.348L655.451 163.943ZM653.095 76.7201L668.093 76.9783C668.012 81.6889 665.657 84.7582 664.413 86.0382C663.213 87.2736 662.198 87.7713 662.198 87.7713C662.153 87.7942 663.046 87.3748 665.594 86.7153L661.835 72.1939L658.076 57.6725C654.823 58.5145 651.359 59.6002 648.401 61.1318C646.945 61.8862 644.834 63.1392 642.899 65.1307C640.92 67.1669 638.191 70.9933 638.097 76.4619L653.095 76.7201ZM661.835 72.1939L665.594 86.7153C671.193 85.2659 675.408 84.3427 678.384 83.8544L675.955 69.0524L673.526 54.2503C669.276 54.9478 664.077 56.119 658.076 57.6725L661.835 72.1939ZM675.955 69.0524L678.384 83.8544C685.278 82.7233 689.702 82.2441 692.121 82.1806C693.544 82.1433 693.146 82.2918 691.928 81.981C691.378 81.8406 689.207 81.2624 686.937 79.3524C685.686 78.2999 684.286 76.7381 683.261 74.566C682.209 72.3368 681.802 69.9874 681.909 67.7764L696.891 68.503L711.874 69.2296C712.143 63.6726 709.525 59.1514 706.253 56.3981C703.565 54.1359 700.754 53.2719 699.343 52.9119C696.404 52.162 693.401 52.1367 691.334 52.191C686.775 52.3106 680.684 53.0758 673.526 54.2503L675.955 69.0524ZM696.891 68.503L681.894 68.2348L679.443 205.308L694.44 205.576L709.438 205.844L711.889 68.7712L696.891 68.503ZM694.44 205.576L679.512 204.109C679.865 200.515 681.561 198.161 682.511 197.106C683.425 196.092 684.139 195.71 684.011 195.786C683.955 195.818 683.579 196.026 682.732 196.365C681.91 196.693 680.808 197.08 679.377 197.513L683.723 211.869L688.069 226.226C691.963 225.047 695.906 223.591 699.202 221.655C701.443 220.339 708.495 215.932 709.368 207.043L694.44 205.576ZM683.723 211.869L679.377 197.513C672.733 199.524 667.758 200.731 664.261 201.305L666.69 216.107L669.119 230.909C674.455 230.034 680.835 228.416 688.069 226.226L683.723 211.869ZM666.69 216.107L664.261 201.305C656.278 202.615 651.127 202.976 648.233 202.833C646.733 202.759 646.77 202.584 647.604 202.909C648.456 203.241 651.891 204.841 653.637 209.292L639.672 214.769L625.708 220.245C628.162 226.504 633.255 229.515 636.713 230.862C640.153 232.203 643.745 232.648 646.748 232.796C652.859 233.099 660.508 232.322 669.119 230.909L666.69 216.107ZM639.672 214.769L653.459 208.858L630.751 155.895L616.965 161.806L603.178 167.717L625.886 220.679L639.672 214.769ZM616.965 161.806L602.041 160.292L596.212 217.73L611.135 219.245L626.058 220.76L631.888 163.321L616.965 161.806ZM611.135 219.245L596.159 218.405C596.374 214.564 598.187 212.072 599.12 211.044C600.005 210.067 600.64 209.775 600.301 209.969C600.049 210.112 599.416 210.433 598.243 210.884C597.098 211.325 595.616 211.824 593.748 212.368L597.94 226.77L602.132 241.172C606.86 239.796 611.443 238.15 615.162 236.029C617.022 234.968 619.323 233.423 621.344 231.196C623.411 228.916 625.826 225.174 626.112 220.085L611.135 219.245ZM597.94 226.77L594.22 212.238C590.16 213.278 586.074 214.135 581.96 214.81L584.389 229.612L586.818 244.414C591.804 243.596 596.752 242.558 601.661 241.301L597.94 226.77ZM584.389 229.612L582.656 214.712L569.71 216.218L571.443 231.118L573.176 246.017L586.122 244.511L584.389 229.612ZM571.443 231.118L570.589 216.142C568.652 216.252 567.097 216.276 565.88 216.242C564.632 216.207 563.943 216.116 563.676 216.067C563.307 216 564.035 216.071 565.227 216.724C566.493 217.417 569.046 219.219 570.491 222.823L556.568 228.405L542.645 233.987C544.555 238.751 548.077 241.536 550.816 243.036C553.479 244.495 556.184 245.196 558.294 245.58C562.514 246.35 567.389 246.373 572.297 246.093L571.443 231.118ZM556.568 228.405L570.824 223.739L528.245 93.6428L513.989 98.3087L499.733 102.974L542.312 233.071L556.568 228.405ZM769.396 197.399L754.594 199.828C753.309 191.996 758.376 187.319 759.398 186.442C760.87 185.178 762.158 184.632 762.271 184.582C762.721 184.382 762.585 184.492 761.275 184.825C758.894 185.432 754.822 186.239 748.763 187.233L751.192 202.036L753.621 216.838C759.873 215.812 764.991 214.836 768.679 213.897C770.402 213.458 772.52 212.855 774.444 212.001C775.293 211.624 777.122 210.765 778.94 209.204C780.308 208.03 785.527 203.07 784.198 194.971L769.396 197.399ZM751.192 202.036L748.763 187.233C742.759 188.219 738.636 188.773 736.148 188.987C734.791 189.104 734.532 189.062 734.899 189.086C734.949 189.089 736.224 189.145 737.913 189.726C738.771 190.021 740.541 190.719 742.389 192.256C744.414 193.942 746.791 196.898 747.496 201.199L732.694 203.628L717.892 206.057C719.367 215.044 727.147 217.748 728.155 218.094C730.258 218.818 732.135 218.97 732.975 219.024C734.921 219.149 736.995 219.026 738.72 218.877C742.398 218.56 747.446 217.851 753.621 216.838L751.192 202.036ZM732.694 203.628L747.496 201.199L731.324 102.638L716.522 105.067L701.72 107.496L717.892 206.057L732.694 203.628ZM716.522 105.067L731.324 102.638C732.03 106.939 730.722 110.499 729.342 112.744C728.082 114.792 726.628 116.018 725.909 116.572C724.495 117.662 723.305 118.122 723.258 118.142C722.918 118.281 723.149 118.159 724.473 117.836C726.899 117.244 730.983 116.452 736.987 115.466L734.558 100.664L732.129 85.8623C725.955 86.8754 720.945 87.8162 717.359 88.6915C715.676 89.1022 713.672 89.6475 711.868 90.3879C711.088 90.7077 709.359 91.4519 707.597 92.8094C706.753 93.46 700.245 98.5079 701.72 107.496L716.522 105.067ZM734.558 100.664L736.987 115.466C743.071 114.468 747.312 113.877 749.919 113.621C751.321 113.484 751.721 113.5 751.524 113.494C751.429 113.491 751.178 113.481 750.819 113.44C750.497 113.404 749.819 113.314 748.951 113.077C748.225 112.88 746.451 112.344 744.513 110.984C742.429 109.522 739.266 106.412 738.421 101.267L753.224 98.8385L768.026 96.4097C767.165 91.1641 763.937 87.965 761.742 86.425C759.692 84.9869 757.759 84.3833 756.826 84.1296C754.901 83.6058 753.198 83.5311 752.441 83.508C750.656 83.4534 748.706 83.5969 746.998 83.764C743.383 84.1176 738.357 84.8404 732.129 85.8623L734.558 100.664ZM753.224 98.8385L738.421 101.267L754.594 199.828L769.396 197.399L784.198 194.971L768.026 96.4097L753.224 98.8385ZM751.28 86.9951L736.478 89.4239C735.764 85.072 737.11 81.4849 738.502 79.2492C739.772 77.209 741.232 75.9926 741.944 75.449C743.35 74.3754 744.528 73.9241 744.565 73.9089C744.886 73.7779 744.634 73.905 743.291 74.2314C740.825 74.8312 736.686 75.6322 730.614 76.6285L733.043 91.4305L735.472 106.233C741.712 105.209 746.768 104.26 750.381 103.382C752.078 102.969 754.086 102.424 755.889 101.69C756.667 101.373 758.39 100.636 760.148 99.2946C760.939 98.6906 767.57 93.6358 766.082 84.5663L751.28 86.9951ZM733.043 91.4305L730.614 76.6285C724.598 77.6156 720.412 78.1983 717.844 78.4477C716.46 78.5821 716.081 78.564 716.296 78.5711C716.397 78.5744 716.654 78.5852 717.019 78.6276C717.347 78.6658 718.032 78.7593 718.908 79.0014C719.644 79.2049 721.421 79.752 723.356 81.1254C725.441 82.6055 728.546 85.7088 729.381 90.7947L714.579 93.2235L699.777 95.6523C700.628 100.839 703.796 104.031 705.992 105.59C708.038 107.042 709.972 107.656 710.913 107.916C712.848 108.452 714.56 108.53 715.317 108.555C717.104 108.613 719.05 108.472 720.743 108.307C724.33 107.959 729.31 107.244 735.472 106.233L733.043 91.4305ZM714.579 93.2235L729.381 90.7947L724.638 61.8888L709.836 64.3176L695.033 66.7464L699.777 95.6523L714.579 93.2235ZM709.836 64.3176L724.638 61.8888C725.652 68.0733 722.556 72.3834 720.994 74.0519C719.488 75.6606 718.05 76.4057 717.774 76.5495C717.074 76.9152 716.964 76.8519 718.186 76.511C720.357 75.9053 724.236 75.0939 730.202 74.115L727.773 59.3129L725.344 44.5109C719.132 45.5302 713.933 46.552 710.124 47.6146C708.357 48.1077 706.032 48.8374 703.892 49.9547C702.897 50.4743 700.932 51.5849 699.094 53.5487C697.199 55.5725 693.964 60.2274 695.033 66.7464L709.836 64.3176ZM727.773 59.3129L730.202 74.115C736.286 73.1167 740.527 72.5251 743.134 72.2701C744.536 72.1329 744.936 72.1485 744.739 72.1425C744.644 72.1396 744.393 72.1297 744.034 72.089C743.711 72.0525 743.034 71.9623 742.166 71.726C741.44 71.5286 739.666 70.9923 737.727 69.6325C735.644 68.1709 732.481 65.061 731.636 59.9159L746.438 57.4871L761.24 55.0583C760.38 49.8127 757.152 46.6136 754.957 45.0736C752.907 43.6355 750.974 43.0319 750.041 42.7782C748.116 42.2544 746.412 42.1797 745.656 42.1565C743.871 42.102 741.921 42.2455 740.213 42.4126C736.598 42.7662 731.572 43.489 725.344 44.5109L727.773 59.3129ZM746.438 57.4871L731.636 59.9159L736.478 89.4239L751.28 86.9951L766.082 84.5663L761.24 55.0583L746.438 57.4871ZM815.281 191.313L817.265 206.181L817.488 206.152L817.71 206.115L815.281 191.313ZM784.173 127.361L798.976 124.932L796.547 110.13L781.745 112.559L784.173 127.361ZM770.68 120.505L756.42 125.156L756.483 125.35L756.551 125.542L770.68 120.505ZM769.789 102.511L755.169 99.1541L755.137 99.2929L755.108 99.4322L769.789 102.511ZM793.824 93.2072L788.291 107.15L788.291 107.15L793.824 93.2072ZM803.039 99.1162L791.279 108.428L802.685 122.833L814.516 108.774L803.039 99.1162ZM823.152 119.934L831.383 132.474L831.668 132.287L831.944 132.087L823.152 119.934ZM818.93 123.101L807.787 113.059L802.961 118.415L804.128 125.529L818.93 123.101ZM829.504 187.537L814.701 189.965C813.544 182.91 817.607 178.353 818.996 177.032C820.535 175.569 821.961 174.896 822.225 174.77C822.948 174.424 823.163 174.433 822.213 174.686C820.571 175.122 817.562 175.738 812.852 176.511L815.281 191.313L817.71 206.115C822.636 205.307 826.815 204.504 829.913 203.681C831.334 203.304 833.308 202.724 835.177 201.829C836.015 201.429 837.861 200.491 839.668 198.773C841.324 197.199 845.502 192.398 844.306 185.108L829.504 187.537ZM815.281 191.313L813.297 176.445C806.663 177.33 802.079 177.803 799.29 177.952C797.783 178.032 797.427 177.979 797.735 178.01C797.766 178.013 799.008 178.112 800.652 178.75C801.496 179.078 803.174 179.822 804.909 181.361C806.792 183.031 808.977 185.886 809.647 189.97L794.845 192.399L780.043 194.828C781.445 203.372 788.617 206.26 789.792 206.716C791.895 207.533 793.803 207.765 794.708 207.857C796.763 208.065 798.983 208.01 800.882 207.909C804.905 207.696 810.451 207.091 817.265 206.181L815.281 191.313ZM794.845 192.399L809.647 189.97L798.976 124.932L784.173 127.361L769.371 129.79L780.043 194.828L794.845 192.399ZM784.173 127.361L781.745 112.559L776.526 113.415L778.954 128.217L781.383 143.019L786.602 142.163L784.173 127.361ZM778.954 128.217L776.526 113.415C777.816 113.203 779.406 113.242 781.06 113.772C782.68 114.292 783.821 115.109 784.504 115.745C785.637 116.8 785.459 117.29 784.809 115.467L770.68 120.505L756.551 125.542C757.938 129.432 760.158 134.063 764.049 137.69C768.553 141.889 774.704 144.115 781.383 143.019L778.954 128.217ZM770.68 120.505L784.941 115.853C784.622 114.875 784.385 113.9 784.224 112.923L769.422 115.351L754.62 117.78C755.031 120.282 755.632 122.743 756.42 125.156L770.68 120.505ZM769.422 115.351L784.224 112.923C783.865 110.73 783.897 108.321 784.47 105.589L769.789 102.511L755.108 99.4322C753.831 105.525 753.618 111.676 754.62 117.78L769.422 115.351ZM769.789 102.511L784.409 105.867C784.737 104.438 784.989 104.597 784.374 105.267C784.052 105.619 783.613 105.971 783.093 106.245C782.585 106.513 782.183 106.607 782.01 106.636L779.581 91.8338L777.152 77.0317C771.531 77.954 766.326 80.5614 762.264 84.9903C758.385 89.2197 756.284 94.2996 755.169 99.1541L769.789 102.511ZM779.581 91.8338L782.01 106.636C784.651 106.202 786.624 106.488 788.291 107.15L793.824 93.2072L799.357 79.265C792.204 76.4263 784.681 75.7963 777.152 77.0317L779.581 91.8338ZM793.824 93.2072L788.291 107.15C789.851 107.769 790.812 108.287 791.338 108.624C791.882 108.973 791.703 108.963 791.279 108.428L803.039 99.1162L814.799 89.8045C810.657 84.5744 804.709 81.3889 799.357 79.265L793.824 93.2072ZM803.039 99.1162L814.516 108.774C819.337 103.045 825.504 99.4991 833.799 98.1379L831.37 83.3358L828.942 68.5337C813.952 70.9933 801.231 77.9675 791.562 89.4583L803.039 99.1162ZM831.37 83.3358L833.799 98.1379C842.981 96.6312 846.735 98.5199 848.371 99.9415L858.211 88.6202L868.051 77.2989C857.185 67.8539 843.045 66.2196 828.942 68.5337L831.37 83.3358ZM858.211 88.6202L848.371 99.9415C850.622 101.898 854.143 107.471 856.31 120.678L871.112 118.249L885.914 115.82C883.382 100.388 878.303 86.2093 868.051 77.2989L858.211 88.6202ZM871.112 118.249L856.31 120.678L866.192 180.898L880.994 178.469L895.796 176.04L885.914 115.82L871.112 118.249ZM880.994 178.469L866.192 180.898C865.414 176.16 867.133 172.365 868.736 170.186C870.15 168.265 871.651 167.285 872.131 166.984C873.123 166.364 873.561 166.337 872.523 166.66C870.739 167.214 867.293 167.99 861.697 168.909L864.126 183.711L866.554 198.513C872.467 197.543 877.586 196.501 881.425 195.308C883.199 194.757 885.713 193.875 888.044 192.416C889.194 191.696 891.181 190.301 892.897 187.97C894.802 185.381 896.639 181.18 895.796 176.04L880.994 178.469ZM864.126 183.711L861.697 168.909C856.169 169.816 852.716 170.171 850.894 170.212C849.83 170.236 850.282 170.121 851.443 170.403C852.011 170.541 853.752 171.003 855.704 172.387C857.919 173.958 860.703 176.997 861.47 181.673L846.668 184.102L831.866 186.53C832.699 191.608 835.722 194.994 838.35 196.858C840.715 198.535 843.043 199.236 844.371 199.558C847.054 200.208 849.72 200.246 851.566 200.205C855.564 200.115 860.707 199.472 866.554 198.513L864.126 183.711ZM846.668 184.102L861.47 181.673L851.951 123.66L837.149 126.089L822.347 128.518L831.866 186.53L846.668 184.102ZM837.149 126.089L851.951 123.66C851.193 119.042 849.466 113.058 844.891 108.372C839.484 102.834 832.4 101.361 826.047 102.403L828.476 117.205L830.905 132.007C830.316 132.104 829.071 132.197 827.482 131.737C825.813 131.254 824.419 130.347 823.424 129.328C822.51 128.392 822.174 127.616 822.126 127.499C822.079 127.385 822.206 127.661 822.347 128.518L837.149 126.089ZM828.476 117.205L826.047 102.403C821.076 103.219 816.92 105.929 814.36 107.781L823.152 119.934L831.944 132.087C832.276 131.847 832.533 131.676 832.72 131.558C832.91 131.439 832.995 131.395 832.983 131.401C832.977 131.404 832.812 131.489 832.506 131.6C832.206 131.709 831.66 131.884 830.905 132.007L828.476 117.205ZM823.152 119.934L814.921 107.394C813 108.655 809.888 110.728 807.787 113.059L818.93 123.101L830.074 133.142C829.83 133.412 829.631 133.607 829.513 133.719C829.391 133.836 829.305 133.91 829.27 133.94C829.209 133.992 829.245 133.958 829.422 133.825C829.782 133.555 830.41 133.113 831.383 132.474L823.152 119.934ZM818.93 123.101L804.128 125.529L814.701 189.965L829.504 187.537L844.306 185.108L833.733 120.672L818.93 123.101ZM896.595 140.659L902.179 126.737L893.015 123.062L886.015 130.026L896.595 140.659ZM917.511 134.96L921.508 120.502L921.183 120.412L920.854 120.337L917.511 134.96ZM894.036 81.0927L904.671 91.6704L904.671 91.6704L894.036 81.0927ZM944.867 68.0107L942.836 82.8725L942.875 82.8779L942.915 82.8831L944.867 68.0107ZM954.384 87.0632L940.487 81.4171L940.429 81.5594L940.374 81.7028L954.384 87.0632ZM949.847 95.847L944.754 109.956L951.292 112.316L957.319 108.854L949.847 95.847ZM928.293 102.682L920.197 115.309L920.854 115.731L921.552 116.081L928.293 102.682ZM936.814 105.613L932.783 120.061L932.999 120.121L933.215 120.175L936.814 105.613ZM946.772 108.514L941.707 122.633L941.867 122.69L942.027 122.744L946.772 108.514ZM956.125 112.751L963.409 99.638L963.372 99.6176L963.335 99.5974L956.125 112.751ZM962.664 158.884L974.496 168.104L974.543 168.044L974.589 167.984L962.664 158.884ZM905.475 173.421L908.891 158.815V158.815L905.475 173.421ZM892.325 149.812L877.835 145.933L877.783 146.129L877.735 146.327L892.325 149.812ZM896.595 140.659L891.012 154.582C903.365 159.536 915.748 162.818 926.332 161.081L923.903 146.279L921.474 131.477C919.479 131.805 913.657 131.341 902.179 126.737L896.595 140.659ZM923.903 146.279L926.332 161.081C929.612 160.543 934.631 159.215 938.725 155.218C943.671 150.39 944.924 144.063 944.036 138.647L929.234 141.076L914.432 143.505C914.258 142.448 914.182 140.778 914.751 138.811C915.344 136.763 916.453 135.035 917.769 133.751C920.086 131.489 922.209 131.357 921.474 131.477L923.903 146.279ZM929.234 141.076L944.036 138.647C943.239 133.79 940.559 130.515 938.675 128.716C936.751 126.879 934.658 125.611 932.994 124.742C929.654 123 925.625 121.641 921.508 120.502L917.511 134.96L913.513 149.417C915.114 149.86 916.384 150.263 917.366 150.617C918.372 150.98 918.913 151.233 919.118 151.34C919.407 151.491 918.821 151.238 917.956 150.413C917.132 149.625 915.064 147.358 914.432 143.505L929.234 141.076ZM917.511 134.96L920.854 120.337C913.817 118.728 909.511 116.271 906.872 113.734C904.371 111.33 902.531 108.067 901.72 103.126L886.918 105.554L872.116 107.983C873.853 118.565 878.386 127.965 886.082 135.363C893.64 142.628 903.357 147.111 914.168 149.583L917.511 134.96ZM886.918 105.554L901.72 103.126C900.775 97.3646 902.112 94.2436 904.671 91.6704L894.036 81.0927L883.401 70.515C873.22 80.7515 869.812 93.9383 872.116 107.983L886.918 105.554ZM894.036 81.0927L904.671 91.6704C908.543 87.7782 913.741 85.0205 921.075 83.8171L918.646 69.015L916.217 54.213C903.478 56.3033 892.27 61.5975 883.401 70.515L894.036 81.0927ZM918.646 69.015L921.075 83.8171C930.308 82.3021 937.465 82.1383 942.836 82.8725L944.867 68.0107L946.899 53.149C937.65 51.8846 927.326 52.3903 916.217 54.213L918.646 69.015ZM944.867 68.0107L942.915 82.8831C944.244 83.0576 945.167 83.2565 945.762 83.423C946.377 83.5952 946.441 83.6774 946.166 83.5246C945.885 83.3683 945.025 82.839 944.116 81.7065C943.137 80.4854 942.379 78.9 942.088 77.1247L956.89 74.6959L971.692 72.2671C970.453 64.7154 965.45 59.9213 960.746 57.3055C956.369 54.8721 951.374 53.7364 946.82 53.1384L944.867 68.0107ZM956.89 74.6959L942.088 77.1247C941.941 76.2311 942.117 76.0638 941.924 77.0171C941.744 77.9073 941.329 79.3439 940.487 81.4171L954.384 87.0632L968.281 92.7092C970.676 86.8146 972.872 79.4586 971.692 72.2671L956.89 74.6959ZM954.384 87.0632L940.374 81.7028C939.925 82.8786 939.529 83.8555 939.186 84.6516C938.838 85.4594 938.579 86.0026 938.408 86.3348C938.324 86.4958 938.283 86.5662 938.284 86.5649C938.285 86.5621 938.303 86.5317 938.338 86.4781C938.372 86.4251 938.43 86.3381 938.512 86.2242C938.656 86.0239 938.978 85.5945 939.489 85.0685C939.753 84.7968 940.109 84.4554 940.562 84.0862C941.012 83.7197 941.615 83.277 942.376 82.8402L949.847 95.847L957.319 108.854C960.408 107.079 962.21 104.655 962.88 103.723C963.78 102.469 964.504 101.182 965.062 100.102C966.191 97.9163 967.304 95.2722 968.393 92.4235L954.384 87.0632ZM949.847 95.847L954.94 81.7382C946.213 78.5878 937.136 77.7849 927.96 79.2906L930.388 94.0926L932.817 108.895C937.023 108.204 940.918 108.571 944.754 109.956L949.847 95.847ZM930.388 94.0926L927.96 79.2906C924.869 79.7977 919.983 81.0738 915.975 85.0056C911.126 89.7626 909.931 95.9744 910.792 101.225L925.594 98.7959L940.396 96.3671C940.579 97.4806 940.655 99.1998 940.076 101.213C939.474 103.308 938.344 105.087 936.985 106.421C934.575 108.785 932.294 108.98 932.817 108.895L930.388 94.0926ZM925.594 98.7959L910.792 101.225C911.832 107.56 915.563 112.338 920.197 115.309L928.293 102.682L936.39 90.0549C937.026 90.4627 937.948 91.2073 938.787 92.415C939.651 93.6592 940.179 95.0404 940.396 96.3671L925.594 98.7959ZM928.293 102.682L921.552 116.081C924.614 117.622 928.688 118.919 932.783 120.061L936.814 105.613L940.844 91.1644C939.012 90.6532 937.594 90.2151 936.538 89.8522C935.414 89.4653 935.002 89.2657 935.035 89.2824L928.293 102.682ZM936.814 105.613L933.215 120.175C936.941 121.095 939.728 121.923 941.707 122.633L946.772 108.514L951.838 94.395C948.56 93.219 944.708 92.1124 940.412 91.0508L936.814 105.613ZM946.772 108.514L942.027 122.744C943.696 123.3 945.97 124.29 948.915 125.905L956.125 112.751L963.335 99.5974C959.335 97.4046 955.373 95.5698 951.517 94.284L946.772 108.514ZM956.125 112.751L948.842 125.864C952.11 127.679 953.625 129.851 954.219 133.472L969.021 131.043L983.824 128.614C981.739 115.908 974.657 105.885 963.409 99.638L956.125 112.751ZM969.021 131.043L954.219 133.472C955.38 140.545 953.97 145.552 950.74 149.784L962.664 158.884L974.589 167.984C983.349 156.506 986.176 142.952 983.824 128.614L969.021 131.043ZM962.664 158.884L950.833 149.664C948.04 153.247 942.089 157.16 929.732 159.188L932.161 173.99L934.59 188.792C950.87 186.121 965.255 179.963 974.496 168.104L962.664 158.884ZM932.161 173.99L929.732 159.188C921.919 160.47 915.028 160.25 908.891 158.815L905.475 173.421L902.06 188.027C912.5 190.469 923.4 190.628 934.59 188.792L932.161 173.99ZM905.475 173.421L908.891 158.815C907.552 158.502 906.629 158.176 906.03 157.91C905.434 157.646 905.256 157.485 905.32 157.538C905.407 157.609 905.688 157.869 905.971 158.35C906.26 158.84 906.406 159.317 906.461 159.655L891.659 162.083L876.857 164.512C879.223 178.932 891.243 185.498 902.06 188.027L905.475 173.421ZM891.659 162.083L906.461 159.655C906.226 158.225 906.228 156.173 906.915 153.296L892.325 149.812L877.735 146.327C876.305 152.318 875.862 158.447 876.857 164.512L891.659 162.083ZM892.325 149.812L906.815 153.691C907.262 152.022 907.646 151.026 907.881 150.524C907.991 150.288 908.022 150.26 907.945 150.378C907.87 150.492 907.63 150.84 907.175 151.293L896.595 140.659L886.015 130.026C881.403 134.615 879.164 140.971 877.835 145.933L892.325 149.812ZM1014.88 115.066L999.995 116.893L1000.03 117.195L1000.08 117.495L1014.88 115.066ZM986.211 119.977L1001.01 117.548L1000.96 117.248L1000.9 116.95L986.211 119.977ZM965.958 21.6731L951.156 24.1019L951.205 24.402L951.266 24.6999L965.958 21.6731ZM1002.66 15.4447L1017.55 13.6179L1017.51 13.316L1017.46 13.0159L1002.66 15.4447ZM1014.88 115.066L1000.08 117.495C999.433 113.546 1000.48 110.169 1001.77 107.871C1002.96 105.769 1004.37 104.462 1005.15 103.823C1006.64 102.59 1007.95 102.042 1008.12 101.97C1008.69 101.724 1008.76 101.764 1007.77 102.013C1006.02 102.452 1002.92 103.064 998.199 103.84L1000.63 118.642L1003.06 133.444C1007.97 132.638 1012.06 131.864 1015.07 131.111C1016.45 130.764 1018.29 130.256 1020.01 129.512C1020.76 129.19 1022.5 128.405 1024.26 126.947C1025.43 125.981 1031.06 121.014 1029.68 112.637L1014.88 115.066ZM1000.63 118.642L998.199 103.84C993.526 104.606 990.373 105.037 988.514 105.209C987.48 105.304 987.406 105.265 987.857 105.285C987.946 105.289 989.195 105.325 990.838 105.825C991.65 106.072 993.448 106.691 995.366 108.149C997.455 109.738 1000.23 112.799 1001.01 117.548L986.211 119.977L971.409 122.405C972.202 127.238 975.03 130.374 977.207 132.029C979.212 133.554 981.134 134.23 982.106 134.526C984.07 135.123 985.786 135.222 986.49 135.254C988.17 135.331 989.912 135.208 991.28 135.081C994.227 134.808 998.228 134.236 1003.06 133.444L1000.63 118.642ZM986.211 119.977L1000.9 116.95L980.649 18.6463L965.958 21.6731L951.266 24.6999L971.519 123.003L986.211 119.977ZM965.958 21.6731L980.76 19.2443C982.032 26.9969 977.07 31.6623 976.008 32.5832C974.53 33.8645 973.23 34.4214 973.107 34.4764C972.638 34.6862 972.752 34.5819 974.043 34.2518C976.383 33.6534 980.399 32.855 986.39 31.8719L983.961 17.0699L981.532 2.2678C975.346 3.28295 970.272 4.25084 966.611 5.18685C964.901 5.62398 962.786 6.22891 960.861 7.08991C960.009 7.47061 958.175 8.33864 956.355 9.91652C954.951 11.1341 949.84 16.0816 951.156 24.1019L965.958 21.6731ZM983.961 17.0699L986.39 31.8719C992.461 30.8756 996.64 30.3118 999.168 30.0921C1000.54 29.9725 1000.82 30.0122 1000.48 29.9907C1000.44 29.9883 999.178 29.9369 997.502 29.3691C996.654 29.0815 994.882 28.3952 993.027 26.8679C990.993 25.1942 988.571 22.2255 987.857 17.8735L1002.66 15.4447L1017.46 13.0159C1015.97 3.94642 1008.07 1.27588 1007.13 0.956418C1005.04 0.246756 1003.17 0.0998392 1002.33 0.0479739C1000.39 -0.0722137 998.311 0.0535217 996.571 0.204766C992.866 0.526739 987.772 1.24388 981.532 2.2678L983.961 17.0699ZM1002.66 15.4447L987.771 17.2715L999.995 116.893L1014.88 115.066L1029.77 113.239L1017.55 13.6179L1002.66 15.4447ZM983.738 132.545L998.54 130.116C999.254 134.468 997.908 138.055 996.516 140.291C995.246 142.331 993.786 143.547 993.074 144.091C991.668 145.164 990.49 145.616 990.453 145.631C990.132 145.762 990.384 145.635 991.727 145.308C994.193 144.709 998.332 143.908 1004.4 142.911L1001.97 128.109L999.546 113.307C993.306 114.331 988.25 115.279 984.637 116.158C982.94 116.571 980.932 117.115 979.129 117.85C978.351 118.167 976.628 118.904 974.87 120.245C974.079 120.849 967.448 125.904 968.936 134.973L983.738 132.545ZM1001.97 128.109L1004.4 142.911C1010.56 141.902 1014.85 141.301 1017.5 141.041C1018.92 140.901 1019.34 140.914 1019.16 140.909C1019.07 140.906 1018.82 140.897 1018.47 140.858C1018.16 140.823 1017.49 140.736 1016.62 140.506C1015.91 140.314 1014.14 139.789 1012.2 138.442C1010.12 137 1006.89 133.884 1006.04 128.679L1020.84 126.25L1035.64 123.822C1034.77 118.517 1031.49 115.312 1029.29 113.791C1027.24 112.366 1025.31 111.774 1024.38 111.526C1022.47 111.013 1020.77 110.943 1020.02 110.921C1018.23 110.87 1016.28 111.015 1014.55 111.185C1010.91 111.544 1005.84 112.274 999.546 113.307L1001.97 128.109ZM1020.84 126.25L1006.04 128.679L1010.78 157.585L1025.58 155.156L1040.39 152.727L1035.64 123.822L1020.84 126.25ZM1025.58 155.156L1010.78 157.585C1009.74 151.259 1013 146.912 1014.53 145.309C1016.03 143.735 1017.45 143.014 1017.71 142.884C1018.37 142.544 1018.43 142.621 1017.17 142.97C1014.91 143.593 1010.92 144.423 1004.82 145.425L1007.25 160.227L1009.67 175.029C1016.02 173.988 1021.3 172.952 1025.16 171.885C1026.96 171.389 1029.28 170.665 1031.42 169.568C1032.41 169.06 1034.37 167.971 1036.21 166.04C1038.08 164.081 1041.48 159.388 1040.39 152.727L1025.58 155.156ZM1007.25 160.227L1004.82 145.425C998.732 146.423 994.491 147.015 991.885 147.27C990.482 147.407 990.082 147.391 990.279 147.397C990.374 147.4 990.625 147.41 990.984 147.451C991.307 147.487 991.984 147.577 992.852 147.814C993.578 148.011 995.352 148.547 997.291 149.907C999.374 151.369 1002.54 154.479 1003.38 159.624L988.58 162.053L973.778 164.482C974.638 169.727 977.866 172.926 980.061 174.466C982.111 175.904 984.045 176.508 984.977 176.762C986.902 177.285 988.606 177.36 989.362 177.383C991.147 177.438 993.097 177.294 994.805 177.127C998.42 176.774 1003.45 176.051 1009.67 175.029L1007.25 160.227ZM988.58 162.053L1003.38 159.624L998.54 130.116L983.738 132.545L968.936 134.973L973.778 164.482L988.58 162.053Z" fill="white" mask="url(#path-1-outside-1_84_2)"/>
</g>
<defs>
<filter id="filter0_d_84_2" x="0" y="0" width="1054.6" height="346.555" filterUnits="userSpaceOnUse" color-interpolation-filters="sRGB">
<feFlood flood-opacity="0" result="BackgroundImageFix"/>
<feColorMatrix in="SourceAlpha" type="matrix" values="0 0 0 0 0 0 0 0 0 0 0 0 0 0 0 0 0 0 127 0" result="hardAlpha"/>
<feOffset dx="10" dy="10"/>
<feGaussianBlur stdDeviation="2"/>
<feComposite in2="hardAlpha" operator="out"/>
<feColorMatrix type="matrix" values="0 0 0 0 0 0 0 0 0 0 0 0 0 0 0 0 0 0 0.6 0"/>
<feBlend mode="normal" in2="BackgroundImageFix" result="effect1_dropShadow_84_2"/>
<feBlend mode="normal" in="SourceGraphic" in2="effect1_dropShadow_84_2" result="shape"/>
</filter>
</defs>
</svg>
