<svg width="28" height="23" viewBox="0 0 28 23" fill="none" xmlns="http://www.w3.org/2000/svg">
<path d="M0.438847 12.1983C0.291258 7.34648 -1.37022 -0.233382 2.91764 0.0865643C7.04399 0.39446 1.51065 12.625 5.55895 11.6715C9.20378 10.813 4.61011 -0.764064 7.88952 1.22751C10.5258 2.82851 6.48038 8.56863 9.28786 9.74069C12.5479 11.1017 8.4495 1.23219 11.7738 0.0866501C15.7441 -1.28149 10.9876 14.0393 14.5705 11.6715C17.1316 9.97898 13.8124 2.5115 16.668 3.4217C19.195 4.22715 16.0422 8.96193 18.0663 10.8512C21.0495 13.6355 16.9186 -0.0798144 20.7853 0.0866501C24.6133 0.251443 19.6944 12.7975 23.1159 10.8512C25.8283 9.30825 21.8544 2.9931 24.825 2.28093C28.0928 1.49751 26.741 7.89936 26.8448 11.6715C26.9374 15.0341 28.0459 18.1426 25.6795 20.1849C24.5177 21.1877 23.5188 21.0197 22.1088 21.4569C20.6503 21.909 19.831 22.1835 18.337 22.4498C15.8038 22.9013 14.3367 22.8029 11.7738 22.698C9.55152 22.607 8.25823 22.7099 6.10612 22.0774C4.39771 21.5753 3.19958 21.544 1.90773 20.1849C-0.155807 18.014 0.535693 15.382 0.438847 12.1983Z" fill="#FFDB11"/>
<path d="M25.6792 20.1856C28.0455 18.1432 26.937 15.0347 26.8445 11.6721C26.7406 7.9 28.0924 1.49815 24.8246 2.28157C27.9577 3.88017 26.2035 11.9125 22.4298 17.8203C19.353 22.6369 13.1718 21.9031 11.7734 22.6986C14.3363 22.8035 15.8035 22.9019 18.3367 22.4504C19.8306 22.1841 20.6499 21.9097 22.1085 21.4575C23.5185 21.0204 24.5173 21.1884 25.6792 20.1856Z" fill="#E1C000"/>
<path d="M23.1166 10.8514C19.8567 13.412 22.5777 2.86698 20.7861 0.0869141C24.6141 0.251707 19.6952 12.7978 23.1166 10.8514Z" fill="#E1C000"/>
<path d="M18.0658 10.8524C15.9177 10.4312 17.9671 4.37888 16.6675 3.42285C19.1944 4.2283 16.0417 8.96312 18.0658 10.8524Z" fill="#E1C000"/>
<path d="M14.5701 11.6715C10.9265 14.3903 14.5701 0.0866501 11.7734 0.0866501C15.7437 -1.28149 10.9872 14.0393 14.5701 11.6715Z" fill="#E1C000"/>
<path d="M9.288 9.74177C6.33092 9.74177 9.28795 3.65631 7.88965 1.22852C10.5259 2.82952 6.48052 8.56972 9.288 9.74177Z" fill="#E1C000"/>
<path d="M5.55883 11.6718C1.22414 13.3846 4.70618 1.1375 2.91748 0.0869141C7.04384 0.39481 1.51053 12.6253 5.55883 11.6718Z" fill="#E1C000"/>
</svg>
